<svg xmlns="http://www.w3.org/2000/svg" viewBox="0 0 549.55 760.58"><defs><style>.cls-1{fill:#ee4146;}.cls-2{fill:#131212;}</style></defs><title>Asset 2</title><g id="Layer_2" data-name="Layer 2"><g id="Left-Desktop"><g id="International"><g id="IntroLeft"><path class="cls-1" d="M68.32,330.08A184.21,184.21,0,0,0,79,361.55a169.4,169.4,0,0,0,35.1,52.13c15.75,16,33.63,28.63,55.7,34.44,2.32.61,4.21,1.2,4.19,4.48-.14,17.32,0,34.65,0,52,0,.79-.18,1.59-.37,3.16-6.8-.81-13.41-1.19-19.85-2.43-19.64-3.79-37.66-11.59-54.57-22.26C79.93,470.9,64.39,455,50.9,436.88,38.47,420.17,29,401.74,20.83,382.73A210.08,210.08,0,0,1,7.45,338.55C5.15,326.33,4,313.91,1.9,301.66-.57,287.08-.16,272.43.53,257.83A262.13,262.13,0,0,1,6,217.89c3-14.49,6.38-28.83,11.67-42.64a261.94,261.94,0,0,1,38.28-67.16A268.58,268.58,0,0,1,119.63,49.2a297.09,297.09,0,0,1,65.92-32.69A268.38,268.38,0,0,1,241.23,3.17a380.14,380.14,0,0,1,61.31-3c26,.88,51.55,5.43,76.8,11.73A397.1,397.1,0,0,1,440.6,32.81c.75.32,1.45.76,2.6,1.37-1,17.06-1.53,34.21-6.75,51.49l-17.95-6.16A381.6,381.6,0,0,0,373,66.68c-11.7-2.47-23.4-4.94-35.16-7.09-6.52-1.2-13.14-1.93-19.75-2.56-16.78-1.62-33.58-1.28-50.38-.15-24.89,1.67-49.19,6.3-72.17,16.16a212,212,0,0,0-57.47,36.38C115.73,129.22,97.16,152,83.38,178.5,75.32,194,70,210.53,66,227.53c-3.21,13.48-4.47,27.18-5.46,40.91A102.44,102.44,0,0,0,61,285.38c.82,8.58,2.09,17.12,3.17,25.68l-7,13Z"/><path class="cls-2" d="M372.32,248.68c4.4-7.56,8.84-15.1,13.2-22.68,2.46-4.28,4.8-8.62,7.46-13.41l25.48,14a37.4,37.4,0,0,1-1.7,4.15c-9.66,17.21-19.45,34.34-29,51.61-5.37,9.71-10.37,19.63-15.54,29.46a3.25,3.25,0,0,0-.72.67c-6.41,11.49-12.85,23-19.18,34.48-3.47,6.31-6.77,12.72-10.15,19.08l-14.59,26.58c-.14.09-.34.14-.41.27C319,407.26,310.83,421.6,302.76,436c-2.14,3.82-3.9,7.85-5.84,11.79-4.11,7-8.24,13.9-12.31,20.87-1.58,2.71-3,5.51-4.52,8.27l-2.89,5-29,50.35q-12,21.09-23.89,42.19c-2.51,4.46-4.86,9-7.29,13.51-1.14,2.15-2.25,4.31-3.43,6.44-6.85,12.28-13.76,24.53-20.55,36.84-3,5.5-5.82,11.13-8.73,16.7-6.26,11.33-12.47,22.69-18.79,34q-21,37.56-42.16,75.06c-.64,1.14-1.49,2.16-2.47,3.55L95,746.79c2.46-4.39,4.85-8.68,7.26-13q35-62.28,70-124.57c4.31-7.67,8.47-15.42,12.63-23.18a27.32,27.32,0,0,0,1.46-4.21c1-1.62,2.08-3.2,3-4.86q13.43-24.59,26.82-49.2c4-6.8,8.12-13.55,12-20.41,6.62-11.65,13.14-23.35,19.65-35.06.88-1.58,1.47-3.32,2.19-5,.69-1.06,1.44-2.1,2.07-3.2,6.31-11,12.64-21.89,18.89-32.88,3.25-5.71,6.32-11.52,9.47-17.29a63,63,0,0,0,4.61-6.21c3.8-6.61,7.45-13.3,11-20a52.45,52.45,0,0,0,2.33-5.93c.49-.42,1.15-.74,1.44-1.27Q314,355,328.16,329.43c3.67-6.16,7.49-12.23,10.94-18.51,2-3.7,3.49-7.72,5.2-11.6.45-.21,1.12-.3,1.31-.65,4.66-8.67,9.25-17.38,13.88-26.07Q365.87,260.63,372.32,248.68Z"/><path class="cls-2" d="M68.32,330.08l-11.11-6,7-13c4.51-7.72,9.08-15.4,13.53-23.16,12.3-21.47,24.39-43.07,37-64.37,2-3.35,3.53-6.86,5.47-10.19s4-6.88,6-10.35,4-7.29,6-10.92q11.86-21.3,23.73-42.6c4.74-8.54,9.42-17.12,14.15-25.67,1-1.86,2.17-3.66,3.4-5.73l11.18,6.25c-.89,1.81-1.6,3.41-2.44,4.93Q170.49,150.64,158.7,172q-13.8,25.09-27.6,50.18c-1,1.81-1.62,4.34-3.93,3.73-.06,1.29.25,2.59-.23,3.46-3.29,6-6.75,11.82-10.16,17.71-2.91,5-5.85,10-8.71,15.11a23.77,23.77,0,0,0-1.29,3.58c4.68.41,3.87-4.2,6.92-5.51l136.2,76.19c3.31,1.88,6.58,3.81,9.93,5.62,7.24,3.92,14.52,7.78,21.79,11.67l14.33,8c-1.38,2.41-2.49,4.25-3.5,6.13q-6.13,11.37-12.21,22.76a11.86,11.86,0,0,0-1.93,2.07c-3,5.34-5.93,10.72-9,16.27-1.24-.54-2.14-.87-3-1.31q-8-4.27-15.95-8.58c-2.09-1.32-4.12-2.74-6.28-3.95-16.67-9.37-33.4-18.65-50-28.07-21.69-12.27-43.26-24.75-65-36.91-12-6.72-24.34-13-36.51-19.45-1.89-1-3.68-2.21-5.75-3.46,6.32-13.39,14.82-25.46,20.85-39.4a4.47,4.47,0,0,0-4.48,2.64Q87,299.3,70.87,328.1C70.38,329,69.18,329.43,68.32,330.08Z"/><path class="cls-2" d="M250.59,250.9c-4.2-2.6-8.32-5.35-12.62-7.77-12.44-7-25-13.8-37.43-20.81-15.35-8.66-30.62-17.45-45.91-26.2-1.27-.72-2.47-1.56-4.19-2.65l25.44-46.52c6.9,3.76,13.31,7.19,19.66,10.73q26.54,14.85,53,29.77a7.82,7.82,0,0,0,1.41.47c6.17,3.49,12.29,7.06,18.53,10.43,4.18,2.26,8.52,4.23,12.79,6.34L298,214l30.11,16.63L342.37,239c4.54,2.59,9,5.28,13.65,7.71,2.12,1.11,2.6,2.24,1.34,4.28-1.46,2.36-2.83,4.78-4.15,7.22-3.71,6.88-7.37,13.78-11,20.68l-8.9,16.15-5.05-2c-2.55-1.48-5.06-3-7.65-4.42-7.35-3.94-14.73-7.82-22.1-11.72l-17.32-9.4c-6.53-3.73-13-7.54-19.6-11.17C258,254.38,254.24,252.71,250.59,250.9Z"/><path class="cls-2" d="M250.52,324.89c-2-1.37-4-2.89-6.15-4.09-24.33-13.66-48.72-27.23-73-40.92-16.2-9.12-32.31-18.4-48.45-27.6l-3.74-2.14,26.5-46.46a28,28,0,0,1,3.09,1.31c16.58,9.47,33.09,19.08,49.74,28.44,17.07,9.6,34.28,19,51.43,28.42,7.58,4.27,15.13,8.58,22.74,12.78,2.7,1.49,5.54,2.71,8.31,4.05l16.23,9.12,30.83,17,0,1.21-15.89,27.71-10.4,18.1-3.37-1a18.71,18.71,0,0,0-2.6-2.09c-4.56-2.52-9.17-4.94-13.77-7.4-3.61-1.94-7.2-3.91-10.83-5.81C264.26,332,257.39,328.43,250.52,324.89Z"/><path class="cls-1" d="M296.93,447.81c1.94-3.94,3.7-8,5.84-11.79,8.06-14.41,16.25-28.76,24.39-43.12.07-.13.27-.18.41-.27.15,4.25.22,8.51.48,12.76a52.1,52.1,0,0,0,.91,5.55l-13.48,24,12.85,7c-.25,8.3-.67,16.6-.7,24.91-.12,30.62-.11,61.25-.14,91.88q0,23.72,0,47.43c0,10.47,0,20.94,0,31.82h-30c-.09-1.64-.27-3.39-.26-5.14.1-15.31.27-30.63.34-45.94q.16-33.7.21-67.4c0-15.14.08-30.28,0-45.43,0-7.63-.18-15.27-.33-22.9A21.45,21.45,0,0,0,296.93,447.81Z"/><path class="cls-2" d="M282.3,137.55c3.6-2,7.17-4.07,10.82-6a47.11,47.11,0,0,1,5-2c6.85,3.71,13.69,7.45,20.57,11.12,3.13,1.67,6.35,3.18,9.53,4.76l14.11,8.33c4.66,2.7,9.28,5.47,14,8.08,5.31,3,10.7,5.77,16.05,8.64Q426.7,199.88,481,229.2c8.62,4.64,17.34,9.11,26,13.69,1.14.6,2.2,1.37,3.67,2.3L498.91,267c-7.06-3.72-13.81-7.22-20.51-10.81-18.42-9.89-36.78-19.87-55.23-29.69C414.72,222,406,218,397.59,213.42c-6.13-3.3-12-7.12-18-10.6-2.14-1.23-4.46-2.13-6.7-3.18-7.88-4.53-15.73-9.09-23.65-13.55a49.91,49.91,0,0,0-5.39-2.28c-4.42-4.41-10-6.81-15.63-9.23l-29.71-16.39L281.64,149l-10.56-5.54Z"/><path class="cls-2" d="M470,372.06l-92.08-50.81,26.17-48.51,93.23,51Z"/><path class="cls-2" d="M372.25,331.58c1-.06,2.16-.5,2.93-.12,4.16,2,8.24,4.23,12.3,6.47q37.09,20.45,74.16,41c1.15.64,2.24,1.39,3.85,2.4-8.28,16.3-17.87,31.71-27.2,47.82-3.59-2-7-3.82-10.49-5.71q-25.53-14.05-51.07-28.1c-1.45-.79-3-1.35-4.55-2-1.5-1-3-2.07-4.52-3-6.71-3.87-13.45-7.69-20.34-11.62a21.09,21.09,0,0,1,1.14-3.49c3-5.46,6.08-10.86,9.05-16.32C362.45,349.8,367.34,340.68,372.25,331.58Z"/><path class="cls-2" d="M328.33,442l-12.85-7,13.48-24q6.85-11.67,13.72-23.34c.07-.12.28-.16.43-.23,2.44,1.4,4.87,2.82,7.33,4.18q10.79,6,21.61,11.91,13.89,7.78,27.79,15.57c11,6.14,22,12.26,33.27,18.53l-27,47.79c-1.15-.5-2.19-.87-3.15-1.38q-15.41-8.16-30.79-16.36l-29.14-17Z"/><path class="cls-2" d="M323.49,115.74c2.12-2,4-.46,5.79.52,4.45,2.44,8.85,5,13.27,7.48,7.58,4.35,15.14,8.74,22.75,13,2.38,1.34,4.93,2.39,7.4,3.57,7.64,4.36,15.22,8.83,22.93,13.06,11.2,6.14,22.48,12.14,33.76,18.15,22.25,11.87,44.55,23.66,66.77,35.59,9.06,4.87,18,10,27.56,15.37L512.45,243,373.52,168.73c-6.54-3.68-13.05-7.43-19.65-11-3.29-1.78-6.75-3.25-10.14-4.85l-15.4-8.92c-7.69-4.36-15.4-8.7-23.07-13.1a50.09,50.09,0,0,1-4.22-3.11Z"/><path class="cls-1" d="M343.08,450.64l29.14,17c0,15.65,0,31.31-.16,47-.13,16.66-.51,33.32-.53,50,0,14.65.36,29.29.42,43.94,0,8-.22,16-.39,24,0,1.94-.32,3.88-.48,5.79H342.44c0-3.32,0-6.27,0-9.23q.22-66.49.45-133Q343,473.35,343.08,450.64Z"/><path class="cls-2" d="M344.2,122.8c-3.72-2.34-7.42-4.7-11.15-7-1.25-.78-2.57-1.45-4.71-2.66l14.41-7.84a72.5,72.5,0,0,0,7.3-4.15c2-1.43,3.5-1.06,5.42,0,2.73,1.46,5.63,2.6,8.46,3.87,6.42,3.75,12.75,7.66,19.27,11.23,11.63,6.36,23.37,12.52,35.07,18.75q18.53,9.86,37.06,19.71,19.12,10.22,38.2,20.51,19.29,10.41,38.53,20.93c1.28.7,2.43,1.62,4.11,2.75l-11,21.4c-7.05-3.88-13.52-7.58-20.12-11-11.57-6-23.31-11.75-34.81-17.91-15.09-8.08-30-16.52-45-24.7-17.16-9.33-34.38-18.55-51.57-27.81-4.61-2.56-9.2-5.15-13.83-7.66C354.66,128.31,349.42,125.57,344.2,122.8Z"/><path class="cls-2" d="M361.89,95.13l20.23-10.7c55.39,30,112,59,167.43,90.62l-11.66,21.26c-7.12-3.86-13.78-7.5-20.47-11.08q-31.87-17.06-63.77-34.07C442,145,430.17,139.08,418.53,132.84c-10.07-5.39-20-11.1-30-16.62-6.41-3.53-12.86-7-19.32-10.41a26.09,26.09,0,0,0-3.24-1.22c-1.75-1.17-3.51-2.32-5.23-3.52-1-.7-1.95-1.5-2.92-2.25,1-.94,1.94-1.88,2.93-2.81C361.13,95.69,361.52,95.42,361.89,95.13Z"/><path class="cls-1" d="M184.35,648c2.9-5.57,5.69-11.2,8.73-16.7,6.79-12.31,13.71-24.56,20.55-36.84,1.18-2.12,2.29-4.29,3.43-6.44.1,11.46.29,22.91.28,34.37q-.08,50.94-.32,101.88c-.06,10.94-.43,21.89-.66,33.33H185.29c0-1.8,0-3.41,0-5q.17-35.21.33-70.42c0-9.82-.06-19.64-.22-29.45A23.32,23.32,0,0,0,184.35,648Z"/><path class="cls-1" d="M248.23,532.3l29-50.35,2.89-5q-.05,46.71-.1,93.42c0,18.82,0,37.64,0,56.45,0,3.11-.17,6.23-.27,9.62H250.08a17.07,17.07,0,0,1-.5-2.9c.09-16.82.31-33.63.32-50.45,0-15.47-.15-30.94-.34-46.4C249.54,535.22,248.69,533.76,248.23,532.3Z"/><path class="cls-1" d="M216.13,527.8q-13.4,24.6-26.82,49.2c-.91,1.67-2,3.24-3,4.86-.14-6-.42-12-.41-17.95q.07-62.47.24-124.93c0-2.8,0-5.59,0-8.79h27.78c.08,1.72.22,3.49.25,5.25.18,14,.22,28,.52,42C215.06,494.21,215.64,511,216.13,527.8Z"/><path class="cls-2" d="M518.66,299.1l11.19,6.4c-37.37,69.23-76.64,137.14-116,205.92l-11.55-6.62c2.81-5.16,5.4-10.07,8.14-14.9q18.89-33.36,37.85-66.68c12.47-21.93,25-43.83,37.41-65.79,10.53-18.65,20.92-37.38,31.39-56.07C517.52,300.63,518,300,518.66,299.1Z"/><path class="cls-1" d="M282.3,137.55l-11.21,6L281.64,149c-.13,9.25-.2,18.5-.43,27.74-.09,3.75-.81,7.49-.77,11.23.06,5.56.55,11.11.86,16.67-4.27-2.1-8.61-4.07-12.79-6.34-6.23-3.37-12.36-6.95-18.53-10.43.18-7.82.38-15.64.54-23.46.32-16.63.62-33.26.93-50.25h30.36c0,4.09-.06,8,0,11.94S282.13,133.75,282.3,137.55Z"/><path class="cls-1" d="M343.85,183.81a49.91,49.91,0,0,1,5.39,2.28c7.91,4.46,15.77,9,23.65,13.55l-.56,49q-6.42,12-12.84,23.92c-4.63,8.69-9.22,17.4-13.88,26.07-.19.35-.86.44-1.31.65-.14-3.31-.11-6.64-.46-9.93-.37-3.51-1.1-7-1.68-10.46,3.68-6.89,7.34-13.8,11-20.68,1.32-2.44,2.68-4.87,4.15-7.22,1.27-2,.79-3.17-1.34-4.28-4.62-2.43-9.11-5.13-13.65-7.71.47-1.46,1.3-2.91,1.35-4.39.21-5.65.2-11.3.21-17C343.93,206.4,343.88,195.11,343.85,183.81Z"/><path class="cls-1" d="M391.08,653.15V662H236.58v-8.41C240.6,652.36,354.48,652,391.08,653.15Z"/><path class="cls-1" d="M361.89,95.13c-.37.29-.76.56-1.1.88-1,.93-2,1.87-2.93,2.81,1,.75,1.91,1.55,2.92,2.25,1.72,1.2,3.48,2.35,5.23,3.52l-2.08.38c-2.83-1.28-5.73-2.41-8.46-3.87-1.93-1-3.44-1.4-5.42,0a72.5,72.5,0,0,1-7.3,4.15,48.56,48.56,0,0,0-5.87-.7q-41.23-.07-82.45,0H232.11V95.3a24.36,24.36,0,0,1,3.35-.46q62.47,0,124.94.15C360.9,95,361.39,95.08,361.89,95.13Z"/><path class="cls-1" d="M250.39,399.09q8,4.29,15.95,8.58c.83.45,1.73.77,3,1.31,3-5.55,6-10.93,9-16.27a11.86,11.86,0,0,1,1.93-2.07l.19,23.34c-3.15,5.77-6.23,11.58-9.47,17.29-6.24,11-12.57,21.93-18.89,32.88-.63,1.1-1.38,2.13-2.07,3.2,0-3.45-.05-6.9,0-10.35Q250.16,428,250.39,399.09Z"/><path class="cls-1" d="M372,403.45q-10.8-6-21.61-11.91c-2.46-1.36-4.89-2.79-7.33-4.18.09-5.59.27-11.17.21-16.76,0-1.52-.76-3-1.16-4.55,3.38-6.36,6.68-12.77,10.15-19.08,6.34-11.53,12.77-23,19.18-34.48a3.25,3.25,0,0,1,.72-.67q0,9.88,0,19.77c-4.91,9.1-9.79,18.21-14.74,27.29-3,5.46-6.08,10.86-9.05,16.32a21.09,21.09,0,0,0-1.14,3.49c6.89,3.93,13.63,7.75,20.34,11.62,1.56.9,3,2,4.52,3Z"/><path class="cls-2" d="M475.21,131.35l-31.65-16.77,6.33-11.34L481.5,120Z"/><path class="cls-1" d="M250.52,324.89c6.86,3.54,13.74,7.06,20.58,10.63,3.63,1.89,7.22,3.87,10.83,5.81-1.79,4.09-1.45,8.23-.33,12.4-7.26-3.89-14.54-7.74-21.79-11.67-3.34-1.81-6.62-3.74-9.93-5.62Z"/><path class="cls-1" d="M281,278.68c-2.78-1.34-5.62-2.56-8.31-4.05-7.61-4.2-15.16-8.51-22.74-12.78l.69-10.95c3.65,1.81,7.38,3.48,10.94,5.45,6.58,3.63,13.07,7.44,19.6,11.17Z"/><path class="cls-1" d="M323.49,115.74l-22.45,12a50.09,50.09,0,0,0,4.22,3.11c7.67,4.4,15.37,8.74,23.07,13.1l-.12,1.55c-3.18-1.58-6.4-3.09-9.53-4.76-6.88-3.66-13.71-7.41-20.57-11.12q.4-3.87.8-7.74c.21-2.09.43-4.19.62-6.14Z"/><path class="cls-1" d="M343.73,152.87c3.39,1.61,6.85,3.07,10.14,4.85,6.6,3.58,13.11,7.33,19.65,11l-1.17,1.82c-5.35-2.88-10.74-5.69-16.05-8.64-4.7-2.61-9.32-5.38-14-8.08Z"/><path class="cls-1" d="M344.2,122.8c5.22,2.77,10.46,5.52,15.66,8.33,4.63,2.51,9.22,5.1,13.83,7.66l-1,1.54c-2.47-1.18-5-2.23-7.4-3.57-7.62-4.28-15.17-8.67-22.75-13Z"/><path class="cls-1" d="M298.31,350.82l3.37,1,10.4-18.1L328,306l.18,23.38Q314,355,299.82,380.55c-.29.53-1,.85-1.44,1.27Z"/><path class="cls-1" d="M298.51,158.19l29.71,16.39-.11,56L298,214c.3-4.24.87-8.48.86-12.72C298.86,186.91,298.65,172.55,298.51,158.19Z"/><path class="cls-1" d="M328.2,293.06,328,304.84l-30.83-17a14.23,14.23,0,0,0,1-3.06c.21-2.6.22-5.21.31-7.81,7.37,3.9,14.75,7.78,22.1,11.72C323.15,290,325.65,291.58,328.2,293.06Z"/></g></g></g></g></svg>