<svg xmlns="http://www.w3.org/2000/svg" viewBox="0 0 126.46 212.99"><defs><style>.cls-1{fill:#eb3e3e;}.cls-2{fill:#181616;}.cls-3{fill:none;}</style></defs><title>Asset 10</title><g id="Layer_2" data-name="Layer 2"><g id="Layer_1-2" data-name="Layer 1"><path class="cls-1" d="M62,89.62c17.75.13,30.9,8.55,40.62,22.9,9,13.35,10,27.72,4.86,42.7-5.87,17-18.41,26.11-35.06,31.58-17.4,5.72-41.2-3.66-51.28-18A50.57,50.57,0,0,1,12,131.67c1.82-14.34,9.13-25,20-33.53,6.83-5.35,15-7.74,23.58-8.49C57.73,89.46,59.89,89.62,62,89.62ZM60.51,97.8c-22.46-.23-40,15.44-40.72,40.46-.66,23.87,19.53,39.71,38.55,40.08,22.41.43,40.61-16.39,42-39.28C101.51,119.75,83.47,97.46,60.51,97.8Z"/><path class="cls-2" d="M30.25,73.35l-8.82-4.19c.72-1.87,1.91-3.84,2.18-5.94s-.3-4.5-.52-6.86C32,50.61,29.25,50.79,38,55.31c-3.27,3.82,2,5.83,2.22,9.2l.4-4.68,5.49-3.07,5.06,3.79c1.11-2.94,3.6-3.52,6.44-3.06,1.21.2,3.21.58,3.37,1.24a8.1,8.1,0,0,1-.55,4.63c-.34.86-1.63,1.35-2.71,2.17l2.58,3.59c-3.39,3.56-3.39,3.56-7.53,1.24l-.57-9.72L47.49,66l3,2.47c-2.82,4.15-2.82,4.15-9.7,1.4l-.75-4.68Zm2.68-5.15c.52-5.57.52-5.57-3.47-6.45.09,1.69-.12,3.32.37,4.7C30.07,67.18,31.55,67.47,32.93,68.2Zm-2.5-10.68a10.89,10.89,0,0,0-1-.64c-.07,0-.26.16-.39.25l.76,1.09Z"/><path class="cls-2" d="M78.59,58.61l1.33-1.3c3.28-.19,5.6-.6,7.85-.33a3.93,3.93,0,0,1,2.57,2.54,67.28,67.28,0,0,1,.76,7.57c.22,2.09-.72,3.4-2.7,4.43l-3.37-2-3,2c-2.64-.94-3.22-2.6-2.93-5.13C79.37,64.15,78.85,61.87,78.59,58.61Zm6.72,3.59L84,62.28l.3,5.14,1,0Z"/><path class="cls-2" d="M69.81,68.72l-2.86,3.51c-2.84-1.11-3.94-2.62-3.71-5.48.29-3.46-.1-7-.12-10.47,0-3.11,1.16-4.1,5.34-4.38,0,3.76-.1,7.52,0,11.26C68.57,64.66,69.19,66.14,69.81,68.72Z"/><path class="cls-2" d="M74,56.36c1.84,1.26,3,2.72,2.53,5.28-.33,1.89.14,3.93.29,5.89s-1.09,4-2.75,3.8c-2-.19-2.67-1.46-2.7-3.45-.06-3.76-.51-7.52-.49-11.28a6.49,6.49,0,0,1,1.41-4.26c.64-.64,2.54,0,4.57.09Z"/><path class="cls-1" d="M30.43,57.52l-.66.7L29,57.13c.13-.09.32-.28.39-.25A10.89,10.89,0,0,1,30.43,57.52Z"/><path class="cls-1" d="M60,104.41c19.27-.89,33.76,17.65,33.82,32.41a34.6,34.6,0,0,1-34.12,34.95c-16.16.23-34.34-13-33.8-33.27C26.4,117.89,39.52,104.81,60,104.41Z"/><rect class="cls-3" width="126.46" height="212.99"/></g></g></svg>