<svg xmlns="http://www.w3.org/2000/svg" viewBox="0 0 99.12 98.94"><defs><style>.cls-1{fill:#eb3e3e;}</style></defs><title>Asset 1</title><g id="Layer_2" data-name="Layer 2"><g id="Layer_1-2" data-name="Layer 1"><path class="cls-1" d="M50.54.06C68.29.19,81.44,8.61,91.16,23c9,13.35,10,27.72,4.86,42.7C90.15,82.66,77.61,91.77,61,97.24c-17.4,5.72-41.2-3.66-51.28-18A50.57,50.57,0,0,1,.54,42.11c1.82-14.34,9.13-25,20-33.53C27.37,3.23,35.54.84,44.12.09,46.27-.1,48.43.06,50.54.06ZM49.05,8.24C26.59,8,9.05,23.68,8.33,48.7,7.67,72.57,27.86,88.41,46.88,88.78c22.41.43,40.61-16.39,42-39.28C90.05,30.19,72,7.9,49.05,8.24Z"/><path class="cls-1" d="M48.54,14.85C67.81,14,82.3,32.5,82.36,47.26A34.6,34.6,0,0,1,48.24,82.21c-16.16.23-34.34-13-33.8-33.27C14.94,28.33,28.06,15.25,48.54,14.85Z"/></g></g></svg>