<svg xmlns="http://www.w3.org/2000/svg" viewBox="0 0 328.85 473.9"><defs><style>.cls-1{fill:#ee7c35;}.cls-2{fill:#e42925;}.cls-3{fill:#3a1b0e;}</style></defs><title>Asset 1</title><g id="Layer_2" data-name="Layer 2"><g id="Layer_1-2" data-name="Layer 1"><g id="_2iHUaH.tif" data-name="2iHUaH.tif"><path class="cls-1" d="M0,473.9a4.22,4.22,0,0,1,0-.45Q0,236.77,0,0H328.85V473.9Zm96-337.61c0,23.22,0,45.67,0,68.11s0,44.9,0,67.35q0,34,0,68c0,22.4-.29,44.81.1,67.79a267.14,267.14,0,0,0,28.62,0c1.62-5.81,1.39-267.32-.08-271.18Zm-46.65-78v180c7.8-.11,15,.8,22.75-.49V63.75l.88-.11,21.5,47.46,5.17-2.69L77.13,58.29Zm102.52,0c-8-.26-15.35-.71-22.81.07V238.18H152ZM285.42,327.68c0-30.65-24.69-55.61-55-55.6a54.87,54.87,0,0,0-54.64,54.8c-.1,30.14,24.83,55.08,55,55C260.79,381.84,285.4,357.41,285.42,327.68ZM200.72,226.2a77.15,77.15,0,0,0-2.57-7.89c-1.65-3.74-4.89-5.27-8.86-5.19a8.92,8.92,0,0,0-8.32,5.29,17.11,17.11,0,0,0-.2,15.34,8.87,8.87,0,0,0,8.68,5.52C195.89,239.28,200.1,234.24,200.72,226.2Zm-23.6-12.27h-7.58l-5.12,6.52L163.6,214h-6v24.31h6l.94-8.26,1.1,0,4.89,8.84,7.37-.78-7.55-14.74Zm86.77.25h-7.47l-4.82,5.92-1.26-5.87h-5.89v24.29h6.21l.8-7.95,1-.22,4.56,8.25h7.7l-7.34-15.09ZM123.45,57.61,99.94,108a22.48,22.48,0,0,0,2.47,1.76,20.54,20.54,0,0,0,2.78.9L128.76,60.2ZM223.59,231.35c.68,5.63,4.32,8.54,9.86,8.06,5.14-.44,8.25-3.93,8-8.93-.18-4-2.65-5.8-6.05-7-1.81-.65-4.38-.56-4.82-3.64,3.45-1.25,6.44,3.92,9.63.38-.8-5.36-4.8-7.95-10.37-6.73A7.85,7.85,0,0,0,224,223.83c.92,2.81,3.27,4,5.78,5.09,1.71.72,3.36,1.6,5.28,2.53-1.8,2.42-3.2,2.11-4.61.78C228.32,230.23,226,230.48,223.59,231.35ZM82.72,235.82c4.06-2,5.91.48,8,2.59l5.12-.62-6.84-24h-7l-6.92,24.09,5.42.5Zm118.81-21.73,6.74,24.31h6.94L222,214.23h-6.75l-3.16,12.82-.72,0-3.06-12.92Zm77.93,24.6c-2.14-9.58,4.3-16.16,6.7-24.41h-6.69L275.77,221l-3.41-6.71H265c2.06,4.33,4.18,7.91,5.48,11.76s1.86,8.23,2.8,12.6ZM77,319.88c-9.35,8-19.12,14.4-28,22.56l4,4.38,28-21.83ZM52.45,318.4l28.37-22-4.12-4.72L48.53,313.5Zm-4.1,9,4.06,4.84,28.71-22.29-4.18-4.77Z"/><path class="cls-2" d="M96.09,136.29h28.67c1.47,3.86,1.7,265.37.08,271.18a267.14,267.14,0,0,1-28.62,0c-.39-23-.06-45.39-.1-67.79q-.06-34,0-68,0-33.68,0-67.35C96.09,182,96.09,159.51,96.09,136.29Zm18.84,102.87c-1.48-9.36,4.12-16.16,7.06-24.53h-6.52l-3.89,6-3.53-6h-6.89c2,4.48,3.89,8.07,5.12,11.89,1.29,4,1.91,8.21,2.91,12.69Zm4.94,28.48H102.26l-.22,3.69c1.93,2,5.78.07,6,4.42l-6.25,1.82,1.13,3.86h16.45v-3.77L114,275.19l0-1.26,5.4-2.37ZM104.61,203l3.73.67,2.17-5.63h1.12l2.5,5.21H118l-1-8.73c.63-2,2-4.89-.71-7.12-3.35-2.81-7.32-2.14-11.67-1.46ZM102.35,343.1a11.88,11.88,0,0,0,11.26,3.58c5.56-1.13,8.4-7,5.58-11.29-2.46-3.78-9-4.94-13.94-2.48C101.58,334.74,100.66,338,102.35,343.1Zm6.09-161.21c7.93.31,12.46-5.85,9.83-13.06-1.26-3.46-4.77-6-8-5.68-3.41.31-5.67,2.53-6.56,6.43C102.6,174.59,103.71,178.77,108.44,181.89Zm5,195.64c3.26-.1,5.15-1.18,6.08-3.72a6.8,6.8,0,0,0-1.39-7.41c-3.62-3.86-11.83-3.69-15.37.25-2,2.28-2.09,4.84-.8,7.4s3,4.3,7,3.22l-2.29-6.62c3.51-2.72,4.52-2.68,7.89.25C112.86,375.19,112.86,375.19,113.46,377.53Zm6-77.74v-11.1c-6.2-.57-11.86-1.38-17.52.32v10.89h3.57l1.55-6.24c1.69,2.53,1.28,6.3,5.27,4.71l2.14-5,1.26,6.11Zm-8.07-151.64-.16-1.09,5.63-1.87-.75-3.86-10.37.57v17.25h4.47l1-4.45c1.7-1.48,5.3-1.05,4-4.91Zm8,173.92-7.59-2.93,8-2.77L119,312c-5.24,1.47-10.05,2.64-14.74,4.2-2.44.81-3.25,2.73-1.26,5.75,5.1.94,10.21,3.91,16.46,4Zm-5.76-69.85-12.45.89,1.36,4.66h10.89l2.49,3.87,3.61-.41V249.15l-3.65-.67Zm5.25,132.38H102v10.93h3.5l1.23-5.8.77-.06,1.85,4.44c4.14,1.38,3.16-2.95,4.9-4.3,1.3,2-.06,5.33,4,5.69C120.65,392.29,119.63,388.7,118.93,384.61Zm-16.68-27.06h17.27l-.21-4.15H101.59Z"/><path class="cls-3" d="M49.44,58.29H77.13l22.62,50.12-5.17,2.69L73.08,63.63l-.88.11V237.83c-7.78,1.29-14.95.38-22.75.49Z"/><path class="cls-3" d="M152,58.27V238.18H129.15V58.33C136.61,57.55,144,58,152,58.27ZM132.3,233.41l.59-.09,5.22-17.23h5.34l4.84,15.46.39-.17v-18H132.3Zm10.82,2.49,0-1.16c-3.2-2.14-3.5-2.09-5,1.44ZM140.94,225l-.83.13c0,1,0,2.06,0,3.08,0,.12.53.21,1.14.44.18-.55.57-1.12.5-1.62A8.48,8.48,0,0,0,140.94,225Z"/><path class="cls-3" d="M285.42,327.68c0,29.73-24.64,54.16-54.64,54.22-30.18.06-55.12-24.88-55-55a54.87,54.87,0,0,1,54.64-54.8C260.74,272.07,285.45,297,285.42,327.68ZM230.61,377.6a50.14,50.14,0,0,0,50.55-49.87c.09-29.65-23.85-50.89-49.46-51.26a50.64,50.64,0,0,0-51.89,50.73C179.79,354.76,202.74,377.6,230.61,377.6Z"/><path class="cls-3" d="M200.72,226.2c-.63,8-4.84,13.09-11.27,13.07a8.87,8.87,0,0,1-8.68-5.52,17.11,17.11,0,0,1,.2-15.34,8.92,8.92,0,0,1,8.32-5.29c4-.08,7.21,1.45,8.86,5.19A77.15,77.15,0,0,1,200.72,226.2Zm-11.44-6.66c-3.78,2.31-3.4,5.7-3,9,.28,2.2,1.06,4.27,3.89,4.22C194.68,228.78,194.38,222.6,189.29,219.54Z"/><path class="cls-3" d="M177.13,213.93l-6.76,9.41,7.55,14.74-7.37.78L165.66,230l-1.1,0-.94,8.26h-6V214h6l.82,6.45,5.12-6.52Z"/><path class="cls-3" d="M263.9,214.18l-6.48,9.34,7.34,15.09h-7.7l-4.56-8.25-1,.22-.8,7.95h-6.21V214.23h5.89l1.26,5.87,4.82-5.92Z"/><path class="cls-3" d="M123.45,57.61l5.31,2.59-23.58,50.47a20.54,20.54,0,0,1-2.78-.9A22.48,22.48,0,0,1,99.94,108Z"/><path class="cls-3" d="M223.59,231.35c2.43-.86,4.73-1.11,6.84.89,1.41,1.33,2.8,1.64,4.61-.78-1.92-.93-3.57-1.81-5.28-2.53-2.51-1.06-4.86-2.27-5.78-5.09a7.85,7.85,0,0,1,5.89-10.35c5.57-1.22,9.57,1.37,10.37,6.73-3.19,3.54-6.18-1.63-9.63-.38.44,3.08,3,3,4.82,3.64,3.4,1.22,5.87,3.06,6.05,7,.23,5-2.89,8.49-8,8.93C227.91,239.88,224.28,237,223.59,231.35Z"/><path class="cls-3" d="M82.72,235.82l-2.17,2.53-5.42-.5,6.92-24.09h7l6.84,24-5.12.62C88.63,236.3,86.78,233.83,82.72,235.82Zm4.25-6-1.09-6.64C83.86,228.12,83.86,228.12,87,229.84Z"/><path class="cls-3" d="M201.53,214.09h6.75L211.34,227l.72,0,3.16-12.82H222l-6.76,24.17h-6.94Z"/><path class="cls-3" d="M279.46,238.69h-6.18c-.93-4.37-1.46-8.62-2.8-12.6s-3.41-7.42-5.48-11.76h7.36l3.41,6.71,3.69-6.77h6.69C283.76,222.54,277.32,229.12,279.46,238.69Z"/><path class="cls-3" d="M77,319.88l4,5.11-28,21.83-4-4.38C57.86,334.27,67.63,327.9,77,319.88Z"/><path class="cls-3" d="M52.45,318.4l-3.91-4.91L76.7,291.71l4.12,4.72Z"/><path class="cls-3" d="M48.35,327.39l28.59-22.22,4.18,4.77L52.4,332.23Z"/><path class="cls-3" d="M114.93,239.16H109.2c-1-4.48-1.62-8.69-2.91-12.69-1.23-3.82-3.16-7.41-5.12-11.89h6.89l3.53,6,3.89-6H122C119.05,223,113.45,229.79,114.93,239.16Z"/><path class="cls-3" d="M119.87,267.63l-.42,3.92-5.4,2.37,0,1.26,5.33,2.46v3.77H102.91l-1.13-3.86,6.25-1.82c-.2-4.34-4.06-2.43-6-4.42l.22-3.69Z"/><path class="cls-3" d="M104.61,203v-17c4.34-.68,8.31-1.35,11.67,1.46,2.67,2.24,1.34,5.17.71,7.12l1,8.73h-3.88l-2.5-5.21h-1.12l-2.17,5.63Zm6-12.19-.39,1.18h1.89l.08-.76Z"/><path class="cls-3" d="M102.35,343.1c-1.69-5.14-.77-8.36,2.9-10.19,4.93-2.46,11.48-1.3,13.94,2.48,2.83,4.34,0,10.16-5.58,11.29A11.88,11.88,0,0,1,102.35,343.1ZM115,339.59c-3.15-4-6.44-3.88-8.4.15C109.92,342.67,111.44,342.69,115,339.59Z"/><path class="cls-3" d="M108.44,181.89c-4.73-3.12-5.83-7.3-4.69-12.31.89-3.9,3.15-6.12,6.56-6.43,3.19-.29,6.7,2.22,8,5.68C120.9,176,116.36,182.2,108.44,181.89ZM111,168.41c-3.42,3-3.26,6.13.45,8.67C114.5,173.94,114.37,171.47,111,168.41Z"/><path class="cls-3" d="M113.46,377.53c-.6-2.34-.6-2.34,1.14-6.63-3.37-2.93-4.38-3-7.89-.25l2.29,6.62c-4,1.08-5.76-.73-7-3.22s-1.25-5.12.8-7.4c3.54-3.94,11.75-4.11,15.37-.25a6.8,6.8,0,0,1,1.39,7.41C118.61,376.35,116.72,377.43,113.46,377.53Z"/><path class="cls-3" d="M119.48,299.79l-3.73-.32-1.26-6.11-2.14,5c-4,1.59-3.58-2.18-5.27-4.71l-1.55,6.24H102V289c5.67-1.7,11.32-.88,17.52-.32Z"/><path class="cls-3" d="M111.41,148.15l3.82,1.64c1.33,3.86-2.26,3.43-4,4.91l-1,4.45h-4.47V141.9l10.37-.57.75,3.86-5.63,1.87Z"/><path class="cls-3" d="M119.44,322.07v3.85c-6.25-.09-11.36-3.05-16.46-4-2-3-1.18-4.94,1.26-5.75,4.69-1.56,9.51-2.73,14.74-4.2l.87,4.39-8,2.77Z"/><path class="cls-3" d="M113.68,252.22l2.25-3.74,3.65.67v12.09l-3.61.41-2.49-3.87H102.59l-1.36-4.66Z"/><path class="cls-3" d="M118.93,384.61c.7,4.09,1.73,7.68-.71,10.91-4.07-.36-2.72-3.65-4-5.69-1.73,1.35-.76,5.68-4.9,4.3l-1.85-4.44-.77.06-1.23,5.8H102V384.61Z"/><path class="cls-3" d="M102.25,357.55l-.65-4.15h17.71l.21,4.15Z"/><path class="cls-1" d="M132.3,233.41v-20h16.38v18l-.39.17-4.84-15.46h-5.34l-5.22,17.23Z"/><path class="cls-1" d="M143.12,235.91l-5,.27c1.51-3.53,1.81-3.58,5-1.44Z"/><path class="cls-1" d="M140.94,225a8.48,8.48,0,0,1,.83,2c.07.5-.31,1.07-.5,1.62-.61-.23-1.13-.32-1.14-.44-.07-1,0-2.05,0-3.08Z"/><path class="cls-2" d="M230.61,377.6c-27.88,0-50.83-22.83-50.8-50.4a50.64,50.64,0,0,1,51.89-50.73c25.61.37,49.54,21.61,49.46,51.26A50.14,50.14,0,0,1,230.61,377.6ZM264,326.93c.88-19.41-17.06-34-32.93-33.82-19.91.26-34,15.43-34.1,33.25-.09,19.2,14,34,33.58,34.19A32.84,32.84,0,0,0,264,326.93Z"/><path class="cls-1" d="M189.29,219.54c5.09,3.06,5.4,9.24.91,13.18-2.83.05-3.61-2-3.89-4.22C185.89,225.24,185.5,221.85,189.29,219.54Z"/><path class="cls-1" d="M87,229.84c-3.11-1.72-3.11-1.72-1.09-6.64Z"/><path class="cls-2" d="M110.6,190.79l1.58.42-.08.76h-1.89Z"/><path class="cls-2" d="M115,339.59c-3.56,3.09-5.07,3.07-8.4.15C108.56,335.72,111.85,335.56,115,339.59Z"/><path class="cls-2" d="M111,168.41c3.37,3.06,3.5,5.53.45,8.67C107.73,174.54,107.57,171.44,111,168.41Z"/><path class="cls-1" d="M264,326.93a32.84,32.84,0,0,1-33.46,33.62c-19.54-.22-33.67-15-33.58-34.19.08-17.82,14.19-33,34.1-33.25C247,292.9,264.91,307.52,264,326.93Z"/></g></g></g></svg>