<svg xmlns="http://www.w3.org/2000/svg" viewBox="0 0 131.5 111.01"><defs><style>.cls-1{fill:#121214;}</style></defs><title>Asset 3</title><g id="Layer_2" data-name="Layer 2"><g id="Middle-Mobile"><g id="Our_March_copy" data-name="Our March copy"><path class="cls-1" d="M0,67.57c2.84-2,5.65-4,8.4-6,1.31-1,1.87-.05,2.51.81l6.74,9.11c1.79-1.36,3.39-2.73,5.14-3.88,6.93-4.55,15.13-3,20,3.63,3.68,5,7.29,10.11,11,15.09,6.61,8.8.8,23-11.44,24.5-6.48.8-11.62-1.42-15.61-7C18.61,92.41,10,81.24,1.62,69.95,1.11,69.26.65,68.53,0,67.57ZM45.82,96.85A13.5,13.5,0,0,0,44.76,94C40.88,88.49,37,83,33,77.65a4,4,0,0,0-5.45-.59c-1.7,1.12-2.59,3.65-1.45,5.29Q32,90.84,38.2,99.11a3.76,3.76,0,0,0,5,.92C44.34,99.36,45,97.86,45.82,96.85Z"/><path class="cls-1" d="M105.92,15,131.5,49.75l-9.65,6.9c-1.51,1.08-2-.27-2.65-1.14Q109.82,42.78,100.46,30C98.7,27.64,97,25.22,95,22.48c-1.64,1.38-3.11,2.73-4.69,3.93-1.15.88-2.37,1.64-3.54-.18-1.61-2.49-3.36-4.88-5.29-7.66L107.19,0,114,9.07Z"/><path class="cls-1" d="M84.14,63.29l3-2L94.9,71.59a34.18,34.18,0,0,1-5,4.2,3.69,3.69,0,0,1-3.5-.51c-2.35-2.61-4.34-5.55-6.58-8.51l2.41-1.85C84.57,67.55,86.76,70,89,72.47c.09.1.6-.19,1.34-.44Z"/><path class="cls-1" d="M77.68,69.7a5.22,5.22,0,0,1,2,1,28.63,28.63,0,0,1,4,5.15c1.44,2.55.74,4.64-1.62,6.18s-4.16,1.3-6.06-1a20.63,20.63,0,0,1-3.3-5C71.4,72.9,73.72,69.73,77.68,69.7Zm-1.65,3c-.47,1.83,2.07,6.86,3.79,7.2.41.08,1.35-.67,1.42-1.14C81.48,77.12,77.9,73.11,76,72.68Z"/><path class="cls-1" d="M61.22,45.32c1.39,1.47,1.53,2.93.33,4.21s-3.1,2.23-4.59.8a23.07,23.07,0,0,1-4.36-5.85c-.86-1.63.21-3.13,1.78-4.06a3.1,3.1,0,0,1,4.33.84c.62.73,1.15,1.53,1.86,2.47l-4.51,3.7,3.11,1.8c.34-.87.62-1.76,1-2.6A7.91,7.91,0,0,1,61.22,45.32Zm-2.95-1.56c-1.13-1.26-1.84-3.11-3.49-1.65-1.31,1.15-.58,2.47.61,3.64Z"/><path class="cls-1" d="M70.25,42.1c-1,.94-1.91,1.74-2.78,2.57a2.41,2.41,0,0,1-3.58.16c-1.3-1.15-2.58-2.5-1.55-4.43a25.19,25.19,0,0,1,2.51-3.22c-.77-.45-1.48-1.13-2.22-1.17-.36,0-.78,1.19-1.17,1.84-.27.45-.52.91-.79,1.36-.39-.46-1.19-1.16-1.09-1.35A11.64,11.64,0,0,1,61.9,34.6c1.2-1,2.58-.61,3.49.62C67.09,37.51,68.69,39.87,70.25,42.1ZM66.7,39.37l-1.16-.17c-1.48.79-2.24,1.92-1.09,3.53.33.46,1.21.53,1.83.77Z"/></g></g></g></svg>