<svg xmlns="http://www.w3.org/2000/svg" viewBox="0 0 174.09 126.12"><defs><style>.cls-1{fill:#ef4136;}</style></defs><title>Asset 5</title><g id="Layer_2" data-name="Layer 2"><g id="Layer_1-2" data-name="Layer 1"><g id="Hand"><path class="cls-1" d="M123.29,84.13c.42,2.56.69,4.46,1,6.34s1,3.72.07,5.66c-.26.53.12,1.33.08,2a35.35,35.35,0,0,1-2,11,3.22,3.22,0,0,1-3,2,35.77,35.77,0,0,1-6.35-.07c-1.68-.17-3.42-.52-4.23-2.21-2.8,1.69-5.46,2.9-8.59,1.57-.08,0-.17-.1-.24-.09-2.11.45-3.18-2.45-5.37-1.68a10.54,10.54,0,0,1-5.54.25,6.08,6.08,0,0,0-1.8.23c-1.46-1.64-3.42-3-4.23-4.95-1-2.43-2.89-4.24-4-6.56a4.67,4.67,0,0,1,.2-3.94,14.44,14.44,0,0,0,.79-1.88,2.37,2.37,0,0,0-1.49-3.07,35.06,35.06,0,0,1-9.09-4.36c-2-1.41-4.32-2.36-6.35-3.74a27.34,27.34,0,0,1-9.38-10.27,4.48,4.48,0,0,1-.58-1.67c-.17-3.23-2.73-4.12-5.06-5.05a3.23,3.23,0,0,0-4,1.4,15.5,15.5,0,0,1-5.35,5c-3.41,1.78-5.76,1.59-8.57-.94C26.23,65.46,22.15,61.76,18,58.09a7.25,7.25,0,0,0-1.29-.63c-.73-.42-1.68-.7-2.13-1.34C12,52.49,8.06,50.61,4.7,48c-1-.79-2.1-1.46-3.13-2.22C.07,44.63-.28,43.8.2,42.68A3.17,3.17,0,0,1,3.92,40.8c1.31.32,2.57.87,3.89,1.1a4.16,4.16,0,0,0,2.32-.33c1-.47,1.1-1.4.16-1.85a11.23,11.23,0,0,0-2.6-.6A6.85,6.85,0,0,1,6,38.8c-2.06-1-2.06-1.58-.28-3.12a3,3,0,0,0,.81-1.48c.64-2.58,1.87-3.29,4.33-2.39,3.16,1.15,3.8.92,5.61-2.23L10.4,28.41c-.24-1.73.56-2.45,1.93-2.51s2.81-.8,4.18.41c.34.3,1.53,0,2.11-.4a14.92,14.92,0,0,0,2.2-2.11l8.7-8.66L32.1,16c2.74-2.27,5-5.18,8.51-6.35,1.35-3.12,1-4-2-5.74a14.81,14.81,0,0,0-1.67-1.15c-1-.42-1.68-1-1-2.08A2,2,0,0,1,38.68.44c1.64,2.16,4.07,3.23,6.22,4.68C48.9,7.81,53,10.34,57,13a39.24,39.24,0,0,1,6.7,5,37.4,37.4,0,0,0,5.37,4.18c1.93,1.41,3.16,3.12,2.55,5.64a2.34,2.34,0,0,0,1.18,2.8,26.15,26.15,0,0,1,2.89,2.45c3,2.75,6.85,4.09,10.43,5.74,3,1.36,6,2.57,8.92,4.09,3.43,1.8,6.94,3.46,10.36,5.28a31,31,0,0,1,4.46,2.83c2.79,2.16,6.34,2.57,9.34,4.21a18.31,18.31,0,0,1,3.43,2.1c2.88,2.54,6,4.86,8.33,8a100.91,100.91,0,0,0,8.9,10.19,37.14,37.14,0,0,0,5.62,4.59,18.85,18.85,0,0,1,5.57,6.54,32.71,32.71,0,0,0,5.4,7.33,37.5,37.5,0,0,1,6.67,9.16,33,33,0,0,0,3,4.72c2.11,2.64,3.1,5.81,4.55,8.77a37.17,37.17,0,0,0,2.86,4.71c.69,1,.82,2.29-.17,2.68-2.3.9-4.34,2.41-7.17,2s-4.76-2.13-6.49-4a34.74,34.74,0,0,1-6.17-9.62,5.55,5.55,0,0,0-2.08-2.48A34.27,34.27,0,0,1,140,96.83a5.36,5.36,0,0,0-2.58-2.65,39.66,39.66,0,0,1-6.25-3.4,75.27,75.27,0,0,1-5.73-5.18A23.29,23.29,0,0,0,123.29,84.13ZM61.18,20.65c-4.94.46-8.59,3.1-12.32,6.21L51.73,28l-.44,1.49c-2.51.45-5.58-1-7,2.48a4.7,4.7,0,0,1,.74.45c.39.36.75.76,1.11,1.14a6.07,6.07,0,0,1-1.36.94,21.16,21.16,0,0,1-2.25.45c-1.18.27-1.75.95-1.44,2.17,2.62,1.22,2.63,1.81,5.26-1,2.89-3,5.81-6.07,8.66-9.15a16.67,16.67,0,0,1,4.8-3.9A2.05,2.05,0,0,0,61.18,20.65Zm-4.44-2.28c-1.39-1.32-2.69-.56-3.74-.18a30,30,0,0,0-12.78,9c1,.44,1.69,1.09,2.21,1,1.44-.37,3.34-.68,4.08-1.72,1.18-1.64,2.82-2.59,4.17-3.94s2.49-2.52,4.36-2.91C55.6,19.42,56.07,18.84,56.73,18.37ZM26.88,26.63c1.51,1,2.46.43,3.42-.62,2.14-2.34,3.88-5.13,7.11-6.26.41-.14.74-.7,1-1.14a11.89,11.89,0,0,1,4-4c.65-.47,1.26-1,1.88-1.48C36.14,14.65,31.31,20.3,26.88,26.63Zm6,.7a11.75,11.75,0,0,0,2.43.2c.82-.13,2,.16,2-1.37,0-.22.44-.46.69-.67q5.17-4.44,10.33-8.88c.14-.12.14-.39.39-1.19-1.61.73-2.79,1.2-3.91,1.79-2.14,1.14-4.25,2.35-6.7,3.71a6.11,6.11,0,0,1-2.82,3.5C34.38,25,33.83,26.16,32.9,27.33Zm4.76,18.24C34.52,45,34.23,45.2,34,48.2,36.67,49,37.61,48.34,37.66,45.57Zm-5.75-8c3,.85,4.32.31,5.08-2C33.73,34.53,33.67,34.55,31.9,37.61Zm4.53-7.06c.25,2.31.36,2.44,1.81,2.26A5,5,0,0,0,40,32.39,4.94,4.94,0,0,0,41,31.28c-.41-.34-.81-.94-1.24-1A23.59,23.59,0,0,0,36.44,30.55Zm5.08,10.17c-.3-.17-.51-.38-.74-.4a14.57,14.57,0,0,0-2-.08C37,40.32,36.66,41,37.5,43,39.18,42.89,40.87,42.83,41.52,40.72Zm-8,.18c-2.7-.58-3.14-.32-3.46,1.88C32,43.27,32,43.27,33.51,40.89Z"/></g></g></g></svg>