<svg xmlns="http://www.w3.org/2000/svg" viewBox="0 0 529.25 785.04"><defs><style>.cls-1{fill:#181616;}.cls-2{fill:#eb3e3e;}</style></defs><title>Asset 1</title><g id="Layer_2" data-name="Layer 2"><g id="Middle-Desktop"><g id="Scum"><g id="IntroRight"><path class="cls-1" d="M513.44,342.35l15.82,15.16c-3.65,3.93-7,7.78-10.61,11.37-9.33,9.27-18.86,18.32-28.15,27.63C476,411,461.73,425.64,447.38,440.23c-9.91,10.07-19.85,20.13-29.68,30.28-12.72,13.15-25.28,26.45-38,39.57q-18.61,19.15-37.48,38.06c-12,12-24,24-36,36-12.68,12.74-25.38,25.45-37.91,38.33-14.16,14.56-28.11,29.31-42.2,43.94q-21.81,22.66-43.72,45.24c-4.76,4.89-9.84,9.46-14.68,14.29-7.65,7.64-15.22,15.37-22.83,23-1.15,1.15-2.38,2.22-3.81,3.54l-16.39-15.58,8.24-8.19c17.83-17.71,35.75-35.33,53.46-53.16,13.95-14,27.67-28.31,41.44-42.52,12.16-12.54,24.21-25.19,36.39-37.72q20.52-21.11,41.2-42.06c11-11.11,22.29-22,33.27-33.1,16.12-16.36,32.06-32.9,48.09-49.34,8.48-8.7,17-17.34,25.5-26.06,12.16-12.53,24.18-25.2,36.42-37.66,12.59-12.82,25.36-25.46,38-38.17L511,344.58C511.72,343.88,512.47,343.24,513.44,342.35Z"/><path class="cls-1" d="M466.9,297.07c-16.34,16.72-32.21,32.85-47.95,49.11-10.06,10.39-19.81,21.1-29.91,31.45-15.8,16.19-31.77,32.23-47.7,48.3-17.57,17.72-35.27,35.32-52.72,53.15-20.72,21.17-41.2,42.57-61.84,63.81q-19.48,20-39.14,39.9c-10.64,10.76-21.42,21.4-32.08,32.13-4.21,4.24-8.29,8.63-12.45,12.93-.68.7-1.45,1.3-2.57,2.3l-15.93-15.64c1-1.13,1.88-2.09,2.78-3,18.6-18.58,37.3-37.07,55.78-55.76,14.5-14.66,28.76-29.55,43.1-44.37,10.53-10.88,21-21.85,31.53-32.7q18.45-18.94,37.07-37.72,20.87-21.12,41.82-42.17C347.25,388.19,358,377.72,368.36,367c15.27-15.78,30.27-31.83,45.5-47.65,9.35-9.71,18.93-19.21,28.38-28.82,2.67-2.72,5.25-5.52,8.28-8.71C456.22,286.53,461.18,292,466.9,297.07Z"/><path class="cls-1" d="M388.13,219.2l15,15.72c-1,1.22-1.91,2.38-2.92,3.42-15.33,15.74-30.61,31.52-46,47.16-12.85,13-25.93,25.82-38.79,38.83q-28.94,29.28-57.72,58.73c-17.93,18.32-35.76,36.73-53.69,55q-28.46,29-57,58c-5.38,5.45-10.93,10.73-16.43,16.06a32.92,32.92,0,0,1-2.68,2.07L113,498.07c2.59-2.68,5.52-5.8,8.54-8.84,26.55-26.63,53.26-53.09,79.63-79.9,21.35-21.71,42.18-43.95,63.46-65.73C281.26,326.58,298.29,310,315,293q35.5-35.83,70.84-71.8C386.46,220.66,387.1,220.14,388.13,219.2Z"/><path class="cls-1" d="M379.39,102.49l15.94,15.75c-3.31,3.34-6.2,6.23-9.07,9.16-16.54,16.87-33,33.81-49.64,50.62-11.58,11.72-23.39,23.21-35,34.92Q280.22,234.57,259,256.42,243.84,272,228.79,287.64c-16.29,16.88-32.5,33.83-48.88,50.62-8.71,8.93-17.77,17.53-26.58,26.36-5,5-9.9,10.27-15.12,15.7l-17-16.49a62.82,62.82,0,0,0,5.3-4.26q17.3-17.3,34.49-34.7c18.53-18.66,37.19-37.19,55.54-56,17.18-17.64,34-35.66,51.07-53.38,7.28-7.54,15-14.67,22.37-22.11q29.33-29.58,58.56-59.28c7-7.1,14.16-14.1,21.17-21.21C372.81,109.7,375.78,106.36,379.39,102.49Z"/><path class="cls-1" d="M51,382c-7.8-3.66-16.08-4.26-24.09-6L3.16,370.67c-1.33-4.28-1.7-19.71-.64-28.43l85.78-1v19.61l-62-1.06-.07.92L88.62,373.4v15.18L28,402.18l.15,1.11L88.75,401V420.8H3.07l-.9-28.09Z"/><path class="cls-1" d="M507.62,106.14H471.87c-2-5.09-2.17-10.59-2.83-16-1.17-9.57-2.13-19.16-3.18-28.74-.94-8.59-1.86-17.18-2.85-25.77-.78-6.74-1.72-13.47-2.47-20.21-.55-4.92-.89-9.86-1.39-15.45h59.27Z"/><path class="cls-1" d="M2,506.95v-20a24.73,24.73,0,0,1,3.41-.5c20.13-.12,40.27-.29,60.4-.22a42.3,42.3,0,0,1,10.26,1.7c6.36,1.65,10,6.17,12,12.21,2.5,7.42,2.62,15.07,1.5,22.63C88.18,532.3,79.48,539.92,69.67,541a24.16,24.16,0,0,1-2.49.18q-31.69.18-63.37.34a9.24,9.24,0,0,1-1.56-.28V521.61c1.5-.16,2.77-.41,4-.42,8.82-.07,17.64-.09,26.47-.13q16.69-.09,33.38-.2c5.68,0,7.84-1.78,8.14-6.51.27-4.29-1.87-6.88-6.29-7.35a65.75,65.75,0,0,0-7-.23q-26.69.06-53.39.17Z"/><path class="cls-1" d="M32.63,609.35V629.7c-3.47.19-6.77.11-10,.59-5.35.81-7.34,4.31-5.9,9.33,1,3.34,3.46,4.32,6.42,4.47,4.32.21,8.65.22,13,.2,9.81,0,19.63-.17,29.44-.26,1,0,2,.07,3,0,3.7-.37,6.06-2.53,6.39-5.76.46-4.49-1.17-7.28-5.32-8.2a60.36,60.36,0,0,0-8.89-.91c-1.78-.12-3.57,0-5.57,0v-20.5c7-.15,13.82-.36,20.44,1.51a17.12,17.12,0,0,1,10.78,9.05c4.56,8.89,5.94,18.3,3.39,28.05C87,657.85,79.36,662.45,69.74,664a21,21,0,0,1-3,.17c-12.14.21-24.27.59-36.41.51a60.16,60.16,0,0,1-14.28-1.79c-7.65-1.94-12.7-7-14.6-14.79a45,45,0,0,1,0-22.7C3.6,617.55,8.6,612,17,610.17,22.06,609,27.15,609.17,32.63,609.35Z"/><path class="cls-1" d="M30.1,732.55v18.29c-2.5.41-4.82.62-7.06,1.19-4.22,1.06-5.92,4-5.12,8.3.57,3.11,3.27,4.85,7.16,4.72s6.55-2.33,8.47-5.38c2.74-4.36,5.18-8.89,7.8-13.32,1.27-2.15,2.54-4.31,4-6.33,4.07-5.64,10.2-7.32,16.6-7.8,4.1-.31,8.29.26,12.42.66,9.68.93,15.77,9,17.49,17.37A39.81,39.81,0,0,1,90.67,770c-2.78,9.19-10.51,14.86-20.12,15-2.65.05-5.3,0-8.23,0-1.54-6.26-.92-12.32-.84-18.91,2.48-.07,4.75-.08,7-.21,3.34-.2,6.14-1.27,7.61-4.66,1.9-4.38.09-8.64-4.51-9.82-4.35-1.12-8.43-.41-11.22,3.4-2.45,3.34-4.47,7-6.75,10.46-2.1,3.2-4.12,6.46-6.45,9.47-6.38,8.23-15.11,10.5-25,9C10.12,782,1.8,774.42,1.92,760.27A53.06,53.06,0,0,1,3.4,748.48C5.21,740.94,10,736,17.55,733.89A33.08,33.08,0,0,1,30.1,732.55Z"/><path class="cls-1" d="M465,110.46h52.65c1.09,4.37,1.2,45.22-.08,48.76H465Z"/><path class="cls-2" d="M415.59,411.48l2.37,5.19-2.2,2.2-10.69-6.64-.52.56,8.2,8.4-3.13,3.52-17.89-17.2,4.87-5.63,8.9,5.42.8-.8-5.82-8.35,4.91-5.54c6.54,5.47,12.29,11.43,18.64,17.8l-3.35,3.17-4.34-2.85-1-1-1-.51.44,1.09Z"/><path class="cls-2" d="M268.76,282.51l5-5.53,10.11,6.63c-.83-4.47-4.12-6.84-5.55-10.77l5.24-4.76,17.84,17.32-3.12,3.33-8.2-7.36-.87.76,6,8.74c-2.29,3.85-3.09,4-6.2,1.45a29.8,29.8,0,0,0-6.77-4.19l8.09,9-3,3.25Z"/><path class="cls-2" d="M285.58,423.51l2.11,3.83-4.06,3.92-21.36-15.91L266,412.2,275.3,419l.65-.61a61.45,61.45,0,0,0-4.39-6c-2.6-2.82-2.72-2.75-.21-5.29.35-.35.76-.64,1.31-1.09l9.41,6.89.6-.45a23.81,23.81,0,0,0-2.06-2.89c-.79-.83-1.89-1.35-2.71-2.16-3.13-3.09-3-4.44.83-8l15.86,20.78L289.88,424l-3.31-1.53c-.74-1.89-2.24-2.82-4.62-2.88Z"/><path class="cls-2" d="M379.64,297.25l9.42,7.6c-1-4-3.69-6.68-6.81-9.53l3.13-3.84a17.33,17.33,0,0,1,2.33,2.14c4.4,6,8.74,12,13.29,18.27l-4,4.34-6.57-5.05-.65.42c.58,1,1.08,2,1.74,2.91,3.08,4.24,3.09,4.23-1.12,8.22l-20.51-15,3.51-4.08L384,312.2c-2.11-3.46-3.26-6.39-5.3-8.46C376.26,301.21,377.7,299.73,379.64,297.25Z"/><path class="cls-2" d="M355.64,335.94c1.45-3.54-.68-4.56-2-5.84-3.35-3.25-3.31-3.75,1.21-6.64L373,341l-3.63,3.85c-3.58-1.11-4.44-5.67-8.35-5.84-.33,0-.69.59-1.36,1.2,1.3,1.34,2.51,2.61,3.74,3.86,3.51,3.56,3.5,3.77-.42,6.8l-17.79-18.26,3.19-2.93Z"/><path class="cls-2" d="M112.24,326.68l-2.94-4.75,3.14-3.42,18,17.08c-.21,2-1.05,3.56-2.91,3.65a9.67,9.67,0,0,1-4.56-1,36.71,36.71,0,0,1-4.73-3.25l-.79.85,7.13,7.67-3.31,3.21-18.67-17.63c3.28-4.24,3.28-4.23,7.79-2a4.66,4.66,0,0,0,1.47.18,17,17,0,0,0,1.52.89c.05,0,.33-.42.5-.64Z"/><path class="cls-2" d="M168.76,421.88l-4.05,3.79-6.82-3.1c.24,3.09,2.81,3.71,3.79,5.85l-3.07,3.32c-6.73-5.22-12.25-11.33-18.15-17,3.21-4.44,3.21-4.42,7.51-2.28,1.74.86,3.5,1.66,6.11,2.89a8.67,8.67,0,0,0-3.42-4.15c-1.33-1-2.54-2.13-3.8-3.21,3-3.81,3.29-4,6.57-.9C158.51,411.81,163.41,416.7,168.76,421.88Z"/><path class="cls-2" d="M317.9,499.36a57.65,57.65,0,0,1,6.34,5.17c2.13,2.27,2.13,4.76.21,7.14s-4,4.25-6.26,6.61l-18.73-17.75c2.16-2.17,3.87-4.16,5.85-5.82,3.88-3.26,7.74-2.62,10.45,1.63a19.89,19.89,0,0,1,1.35,3.2Zm-3.62,7.45,4.36,4.2c2-2.29,1.09-3.62-.41-5S315.61,505.26,314.29,506.81Zm-3.52-3.44c1.26-2,1.51-3.18.11-4.13-1.13-.76-2.35-1.41-3.56.77Z"/><path class="cls-2" d="M133,670.85c1.43-1.78,2.55-3.44,3.94-4.83,4.57-4.6,9.55-4.28,12.55,1.27,1.16,2.14,2.6,3,4.45,4.15,2.65,1.62,5,3.82,7.88,6.15l-4.37,4.24c-6-5.28-6-5.28-8.87-4l6.65,7.06-4.12,3.85Zm9.15-2.71c-1.36,3.08-1.36,3.08,2.22,5.74C146.95,671.78,146.81,671.39,142.15,668.14Z"/><path class="cls-2" d="M134.62,704.61l-3.4,3.66-8.37-6.77c-.93,2.91-.93,2.91,5.43,9.63l-3.71,3.52-18.69-17.32,4-3.84,6.89,6c2.32-1.18,1.75-2.56.5-4-1.41-1.58-2.88-3.09-4.52-4.85l3.57-3.83Z"/><path class="cls-2" d="M229.47,609.08l-4.08,3.67c-3.35-.86-4.2-5.69-8.49-4.52-.07,2.3,1.61,3.31,2.79,4.58,3.31,3.56,3.31,3.68-.59,6l-17.8-16.52c1.41-3.61,4.13-5.29,6.53-7.18,3.21-2.53,7.28-.86,9.81,3.52A12.65,12.65,0,0,0,222,603C224.41,604.65,226.57,606.7,229.47,609.08Zm-17.34-3.77c2.15-1.86,2.35-3.23.6-4.55-1.32-1-2.62-1.36-4,1.32Z"/><path class="cls-2" d="M214.25,375.74l-3,3.21c-2.87-2.12-5.54-4.12-8.27-6-.13-.09-.73.49-1.6,1.11l6.76,7.8-3.4,3.86L186.6,367.9l3-4,7.44,5.67c2-1.11,1.5-2.33.34-3.58-1.53-1.64-3.09-3.26-4.91-5.18l4-3.16Z"/><path class="cls-2" d="M304.29,263.26c2.4,1.51,4.71,2.48,6.36,4.11,2.87,2.83,2.75,6.23.15,9.25a26,26,0,0,1-2.14,2.07c-1.09,1-2.2,2-3.67,3.31-6.56-5.24-12.24-11.24-18.43-17.51,2.64-2.35,4.86-4.55,7.3-6.45a5.82,5.82,0,0,1,7.64.86A30.37,30.37,0,0,1,304.29,263.26Zm-2.92,7.25a11.52,11.52,0,0,0,2.16,2.56,8.72,8.72,0,0,0,2.9.67c-.12-1,0-2.19-.42-3C304.84,268.62,303.24,269,301.37,270.5Zm-4.12-2.2c2.05-3,1.93-4.4.2-5.45-1.45-.88-2.43-.17-3.18,1.66Z"/><path class="cls-2" d="M159.47,521.86c3.29-3.34,3.29-3.32,7.2-1.29,1.82.95,3.68,1.82,5.53,2.73l.55-.87-7.1-6.5,2.88-3.78c6.56,5.7,12.61,11.47,18.66,17.87l-3.7,4.18-8.71-4.78-.57.6,6.56,7.55-3.05,2.85Z"/><path class="cls-2" d="M261.11,576.22,257,579.87l-8.26-4.5-.64.68,6.06,6.43L251,586c-6.06-6-11.8-11.59-17.3-18l3.22-3.62,8.92,4.58.48-.5-6.49-6.81,3.4-3.79Z"/><path class="cls-2" d="M198.54,268.31,180,250.56c2.06-2,4-4.16,6.22-5.94,3.48-2.78,7.7-2.13,9.49,1.82a9.79,9.79,0,0,0,5.09,4.94,13.5,13.5,0,0,1,4.29,4,5,5,0,0,1,0,6,20.46,20.46,0,0,1-2.22,2.66C201.48,265.49,200.05,266.83,198.54,268.31Zm-.08-7.53c2-2.09,2.13-3.3.54-4.61s-2.92-1.27-3.9,1.1Zm-6.58-7c-.17-2.18.1-3.49-.43-4.14s-1.87-.58-2.85-.83a9.61,9.61,0,0,0,.36,2.87C189.21,252.26,190.14,252.56,191.88,253.75Z"/><path class="cls-2" d="M239.61,350.13l-4.22,3.65a50,50,0,0,0-4.39-3.94c-1.18-.83-2.16-2.93-4.34-1.07.24,3.46,4.09,4.4,5.57,7.6l-3.38,3.9-17.46-17.46a25.56,25.56,0,0,1,7.22-7.3c3.14-2,7.64-.23,9.17,3.88.74,2,2,2.63,3.49,3.66C234,344.9,236.31,347.28,239.61,350.13Zm-17-4.21c2-2.62,1-3.87-.38-5s-2.4-.37-3.45,1.39Z"/><path class="cls-2" d="M171.34,419.79,153.5,400.2a86.23,86.23,0,0,1,6.56-5.75c2.6-1.88,5-1.79,7.29.29,3.67,3.35,7.26,6.81,10.61,10.48,2.62,2.87,2.59,3.9.27,7C176.47,414.52,174.3,416.56,171.34,419.79Zm.86-8.26,1.46-.74c-.18-1,0-2.29-.59-2.9-2.68-2.84-5.49-5.57-8.4-8.18-1-.87-2.38-1.24-3.77.89Z"/><path class="cls-2" d="M164.59,674.87c-2.09-1.9-3.78-3.41-5.45-5-3.88-3.59-7.69-7.24-11.63-10.75-1.17-1-1.87-2.14-.72-3.31a58.77,58.77,0,0,1,6.24-5.5,5,5,0,0,1,6.82.41c3.62,3.34,7.17,6.78,10.47,10.42,2.31,2.55,2.27,4.88.15,7.53C168.76,670.85,166.71,672.69,164.59,674.87ZM154,655.74c1,2.66,8.26,10.51,10.37,11.15.53.16,1.33-.59,2.23-1-2.69-4.37-6.22-7.49-9.92-10.4C156.2,655.07,155,655.61,154,655.74Z"/><path class="cls-2" d="M291.4,389.12a13.64,13.64,0,0,1,3.55,1.74c3.86,3.39,7.66,6.86,11.26,10.51,2.2,2.24,2.13,4.73.37,7.15-2.46,3.38-5.67,4.95-8.37,3.89a12.55,12.55,0,0,1-3.9-2.16c-3.17-2.9-6.26-5.91-9.2-9.05-1.91-2-2.72-4.54-1.3-7.29S287.62,389.41,291.4,389.12Zm10.84,17.93c-.63-1.63-.77-3-1.51-3.71-2.63-2.66-5.44-5.15-8.25-7.63-1.42-1.26-2.87-1.49-4.44,1,3.63,3.34,7.3,6.79,11.08,10.11C299.58,407.21,300.62,407,302.23,407.05Z"/><path class="cls-2" d="M383.91,328c-.5,3.67-2.23,5.76-5,7-2.38,1.07-4.78,1.33-6.94-.66-3.28-3-6.7-5.9-9.85-9-3.42-3.41-3.47-6.75-.49-10,3.14-3.47,6.93-4,10.44-.79s7,7,10.29,10.66A10.9,10.9,0,0,1,383.91,328Zm-17.54-10.48c-1.14,2.87-1.22,2.95.24,4.41,2.44,2.43,4.92,4.83,7.54,7.06.81.69,2.15.75,3.58,1.21C377,326.09,373.43,322.27,366.37,317.52Z"/><path class="cls-2" d="M266.21,198.21l-3.86,3.1c-3.62-.53-4.49-6.61-9.49-3.94,1.18,3.36,4.17,4.78,6.49,7.46l-3.74,3.69-17.42-17.31c1.64-2,3.08-3.94,4.79-5.65,3.31-3.3,7.49-3.76,9.88,0C256.22,190.86,261.75,193.42,266.21,198.21ZM248.83,194c1.87-.76,2.54-1.76,1.35-3.09a17.18,17.18,0,0,0-2.92-2.17c-.41.75-1.35,1.82-1.13,2.2A18.2,18.2,0,0,0,248.83,194Z"/><path class="cls-2" d="M289,514a11.79,11.79,0,0,1,3.66,1.61,126.27,126.27,0,0,1,9.82,9.07c3.41,3.55,3.28,6.53,0,10-2.89,3.14-6.31,3.77-9.64.92a111,111,0,0,1-10.79-10.95c-1.5-1.69-2.38-3.79-.63-6.29C283.55,515.42,285.12,514.06,289,514Zm10.84,15.6c-3.42-3.2-6.72-6.37-10.14-9.41-1.18-1-2.63-1.65-3.64,1.16,3.18,3.17,6.51,6.55,9.9,9.86C297.44,532.73,298.56,532,299.81,529.64Z"/><path class="cls-2" d="M159.29,271.53c2.1-2,4-4,6.18-5.72a6,6,0,0,1,8.19.27c3.2,2.86,6.31,5.85,9.26,9,2.74,2.89,2.74,5.83.19,8.92-1.68,2-3.54,3.94-5.83,6.46ZM177.52,282l1.13-.15c0-1,.42-2.38-.07-2.93a108.62,108.62,0,0,0-8.36-8.45c-1-.92-2.55-.75-3.2,1.54Z"/><path class="cls-2" d="M392.8,440.55c-.07,5.07-5.22,8.61-9.19,7.06a10.19,10.19,0,0,1-3-1.73c-3.1-2.72-6.18-5.46-9.11-8.36-3.19-3.15-3.11-6.85,0-10.63a6.41,6.41,0,0,1,9.3-.64,130.23,130.23,0,0,1,11,11.34C392.61,438.47,392.64,440,392.8,440.55Zm-18.56-8.9A53.6,53.6,0,0,0,386,443c1.78-1.12,2.27-2.25,1-3.47-3.27-3.22-6.63-6.35-10-9.49-.17-.16-.54-.11-.82-.16-.26.2-.52.4-.77.62S374.95,431,374.23,431.65Z"/><path class="cls-2" d="M252,463.64l-3.93,3.5-7-6.86c-2.19,1.12-2.36,2.41-.92,4,1.65,1.83,3.27,3.68,4.88,5.48-2.65,4-2.78,4.09-5.67,1.26-5.06-4.94-10-10.06-14.91-15.1l3.31-4.25,7,6.41,2.38-1.94-6.33-6.81,3.52-3.83Z"/><path class="cls-2" d="M260.71,326.79c-5.56-5.58-10.82-10.83-16-16.13a2.19,2.19,0,0,1,.14-3.48c.24-.23.52-.42.75-.66,6.23-6.63,8-6.7,14.54-.51,2,1.94,4.1,3.88,6,6,2.78,3,2.84,6,.13,9.25C264.7,323.07,262.84,324.67,260.71,326.79Zm.43-7.51c1.78-2.42,2-2.62.57-4.17-2.32-2.53-4.85-4.87-7.4-7.18-1-.95-2.33-1.24-3.6.63A79.26,79.26,0,0,0,261.15,319.28Z"/><path class="cls-2" d="M336,366.4l3.07-3.59,4.3,1.45A4.17,4.17,0,0,0,344,363c.19-1.73-.86-2.44-2.39-2.4a46.41,46.41,0,0,0-5.95.48c-3.53.56-6-1.1-8.18-3.57a5.79,5.79,0,0,1,.54-8.41c3.86-3.61,7.1-3.46,10.48.49-2.12,3.48-2.12,3.48-6.07,2.42-.94,1.5-1.12,2.91,1.09,3.1a20.21,20.21,0,0,0,4.86-.69c5.81-1,11.12,2.88,11.32,8.25a6.93,6.93,0,0,1-9.64,6.48A32.44,32.44,0,0,1,336,366.4Z"/><path class="cls-2" d="M193.93,488.39c.14-3.31,2.33-5.08,4.46-6.52a5.61,5.61,0,0,1,7,.54,118.31,118.31,0,0,1,11.34,11.75c2.28,2.77,1.48,5.72-1.29,8.4-2.48,2.4-6.13,3.15-8.52,1-4-3.64-7.66-7.69-11.33-11.7C194.74,490.94,194.46,489.55,193.93,488.39Zm19.29,9.37c-4.06-3.89-7-9.06-13.39-12.06.4,2.1.26,3.45.86,4.13,2.64,2.95,5.45,5.76,8.32,8.5C210.5,499.74,212,499.39,213.22,497.75Z"/><path class="cls-2" d="M261.59,551.34,259,554.42l-5.35-1.7c.43,1.63.38,2.87,1,3.49,3.21,3.32,6.58,6.49,10.46,10.26l1.79-3.34-7.64-5,5.31-5.63,9.27,9.94c-1.27,2.35-3.92,3.13-4.83,5.95s-4.54,3.29-7.26,1.64c-5.31-3.22-9.28-8-13.05-12.76-1.58-2-.69-5.2,1.29-7.23,2.29-2.36,5.51-3.1,8.12-1.61A25.29,25.29,0,0,1,261.59,551.34Z"/><path class="cls-2" d="M258.17,431.68c-2.12,1.79-3.1,4.89-6,1.72-.95,2.53-.42,3.69,1.54,3.65,1.63,0,3.25-.61,4.89-.8a9.15,9.15,0,0,1,9.36,5.15c1.52,3.29.86,6.33-1.85,8.45-3.12,2.45-5.82,2.36-8.85-.32a21.85,21.85,0,0,1-1.53-1.7l2.62-3.18c1.89-.09,3.32,2.12,5-.13-1-2.27-2.55-2.78-5-2.06-3.49,1-6.89.82-9.76-1.86-2-1.88-3.66-3.95-2.84-6.93a6.84,6.84,0,0,1,5.5-5.17C254,428,256.35,429,258.17,431.68Z"/><path class="cls-2" d="M165.23,552.23,147,534.56l9.16-8.24L159.3,529a31,31,0,0,0-3.21,4.14,2.71,2.71,0,0,0,.37,2.55,2.54,2.54,0,0,0,2.5.07,23.34,23.34,0,0,0,3-3.67l4.15,3.87-3.82,4.64,2.81,3.59,5.79-4.68,3.58,3.75Z"/><path class="cls-2" d="M146.6,283.34l9.6-7.71,3,2.8a19.89,19.89,0,0,0-2.82,3.47c-.42.85-.1,2.06-.11,3.11,1.05,0,2.23.27,3.12-.12s1.75-1.46,2.88-2.46l4.05,3-3.81,4.35,2.75,4.23,5.34-4.72,3.51,2.92c-1.8,3.85-4.94,6.21-7.88,8.7C163.77,300,152.1,289.63,146.6,283.34Z"/><path class="cls-2" d="M117.95,446c-1.29,3.65-1.29,3.65-5.78,3.16-.24,3,.12,3.49,2.31,3.19a29.74,29.74,0,0,0,3.37-.82c4.08-1.06,7.1.61,9.61,3.68,2.66,3.27,2.61,6.61-.2,9.35a6.8,6.8,0,0,1-9.47.47,18.46,18.46,0,0,1-1.86-2c.47-.71.89-1.36,1.33-2s.78-1.09,1.08-1.51l4.79,2.08c.49-3.26,0-4.3-2.26-4.37a23.38,23.38,0,0,0-4.92.67,7.88,7.88,0,0,1-8.05-2.73c-2.41-2.83-2.62-5.82-.48-8.54s5.09-4.26,8.61-1.91C116.69,445.12,117.34,445.57,117.95,446Z"/><path class="cls-2" d="M313.66,486.28l7.62-7.45,4.32,3c-1.08,1.22-2,2.32-3,3.31-1.17,1.17-1.32,2.51,0,3.37a3.66,3.66,0,0,0,3-.17,13.54,13.54,0,0,0,2.77-2.47c1.49,1,3.83,1.36,3.26,3.63-.4,1.59-2,2.87-3,4.24,2.83,3.63,2.83,3.63,8.13-1.24l3.61,3.31-9.05,9.45Z"/><path class="cls-2" d="M256.4,296.43l2.86-3.9c6.27,3.63,10,9.82,15.52,13.64,1.67-.86,2.36-1.87,1.13-3.23-1.67-1.84-3.48-3.55-5.24-5.31-2.66-2.65-5.34-5.3-8.14-8.08l2.61-3.62a25.65,25.65,0,0,1,2.95,2c3.88,3.61,7.82,7.16,11.5,11,3.25,3.37,3.18,6.46.25,9.66s-6.63,3.59-10.1.51C265.19,305.09,260.91,300.75,256.4,296.43Z"/><path class="cls-2" d="M280.2,182.7l-17.3-16.87c1.77-3.92,5.21-5.85,8.05-9l3.67,2.87a55.51,55.51,0,0,0-3.12,5.32c-.24.53.43,1.47.92,2.93l5.8-4,3.29,3.43-4,4.39,2.92,3.65,5.34-4.36,4.11,3.16Z"/><path class="cls-2" d="M118,312.3l5-4.4,21.65,14.25-3.59,4.08-4.68-2.54-2,2L137,330.6l-3.12,3.65C127.52,327,123.48,319.43,118,312.3Zm13.15,10.46c.48-1.48,1.11-2.63.89-2.84-1.66-1.49-3.5-2.79-5.28-4.16l-.46.53Z"/><path class="cls-2" d="M122,680.68l5.12-4.14,20.6,13.64c.42,2.59-2,2.86-2.85,4.63l-4.43-2.64-2.2,2.42,2.32,4.3-4,3.47Zm13.07,9.74c1.54-3.16-1.38-3.42-2.76-5.41C131.31,688.35,133.86,689,135.07,690.42Z"/><path class="cls-2" d="M134.42,420.56l21.45,13.65-3.74,4-3.65-2c-3.15,2.13-3.15,2.13-.46,6.13a14,14,0,0,1-1.19,1.93,23.44,23.44,0,0,1-2.26,2c-2.46-3.37-4.8-6.49-7.05-9.67-2-2.83-3.91-5.72-5.83-8.61-2.26-3.39-2.26-3.42.62-6.07A14.45,14.45,0,0,1,134.42,420.56Zm4.06,8.25-.51.4a51.3,51.3,0,0,0,3.37,4.34c.31.34,1.36,0,2.07,0-.17-.69-.11-1.69-.55-2A45.85,45.85,0,0,0,138.49,428.81Z"/><path class="cls-2" d="M361.86,473.95c-1.82,2.5-3.31,4.21-6.07,2.35-1.66-1.12-2.78-.13-3.91,1.5l2.33,4-3.45,3.75c-3.1-4.2-5.91-8-8.71-11.82-1.37-1.86-2.66-3.79-4.09-5.61-2.59-3.32-2.62-3.6.34-6.59.57-.58,1.25-1,2.12-1.77Zm-11.76-1.4c-1.27-1.82-2.28-3.31-5.14-3.21C346.28,471.49,346.82,473.68,350.09,472.55Z"/><path class="cls-2" d="M223,359.68,226.2,363l-8.57,9.6-18.37-18.21,8.91-8.58,3,3.45a34.5,34.5,0,0,1-2.36,3.12c-1.81,1.91-1.26,3.13,1.21,4.22l4.88-4,3.19,3.39-3.79,5.3C217.34,364.23,217.34,364.23,223,359.68Z"/><path class="cls-2" d="M136.93,554.27c-1.14,4.32-3.85,3.49-6.61,2.64-.73,2.57.69,3.23,2.45,3.22,2,0,3.95-.43,5.93-.61,4.26-.39,6.87,2.23,8.8,5.41,1.7,2.81.37,6.19-2.83,8.62-2.62,2-4.94,1.95-7.64-.17-.9-.71-1.76-1.48-2.55-2.14,1.35-2.86,2.82-4.1,5.39-2.07,1.18.93,2.59.53,2.75-.69.13-1-.87-2.86-1.63-3a14.92,14.92,0,0,0-5.35.31c-4.57.78-7.52-.64-10-4.56-1.44-2.26-1.6-4.11.11-6.29,2-2.54,4-3.73,6.71-2.94A26.71,26.71,0,0,1,136.93,554.27Z"/><path class="cls-2" d="M258.3,175.82c-.65,1.71-.52,3.23,1.89,3.28a30.87,30.87,0,0,0,5.42-.62c4.36-.69,9.71,3.08,10.29,7.34.39,2.82-1.06,4.75-3.19,6.31s-4.21,2.1-6.51.84a37.79,37.79,0,0,1-3.88-2.82l3-3.69,4.54,2c.13-1.16.52-2.39.25-2.55a9.54,9.54,0,0,0-3.89-1.62c-1.61-.15-3.27.46-4.92.55a9,9,0,0,1-8.67-5.4c-1.16-2.79,0-5.91,2.85-7.7,2.26-1.42,6.38-1.22,8,.37a2.12,2.12,0,0,1-.87,3.6C261.38,176.16,259.89,175.82,258.3,175.82Z"/><path class="cls-2" d="M244.83,204.42c-4,5.26-4,5.26-.31,8l4.49-4,3.8,3.27-8.08,8.62-18.2-18,8.43-7.36c3.62,1.62,3.64,1.63,1.11,5.38-1.14,1.69-1.49,3.27.87,5l4.47-3.87Z"/><path class="cls-2" d="M241.93,338.8l4.73-4,3.89,3-9.14,8.69-17.51-17.7,7.81-8.35,3.9,3.19c-3.75,4.8-3.75,4.8-1.19,7.53l4.48-3.5c.48.38,1.06.88,1.68,1.33,1.78,1.28,1.58,2.44.23,4.08C238.67,335.71,238.81,335.82,241.93,338.8Z"/><path class="cls-2" d="M397.51,436.48l-17.64-17.14,8.5-8.78L392.1,414l-4.34,5.15,2.76,2.59L395,418.1c1.69.52,3.5,1.43,2.9,3.59-.44,1.6-2,2.9-3.23,4.65l3.49,2.7,5.12-4.81,3.81,4Z"/><path class="cls-2" d="M224,205.15c4.77,6.74,9.23,13,13.63,19.3a8.78,8.78,0,0,1,.78,2.3L234.5,231c-4.26-2.8-8.38-5.52-12.53-8.21-1.94-1.26-4-2.37-5.88-3.71-2.87-2-2.78-2.86.83-5.92l11.56,8c-.93-5.51-6.52-7.26-7.88-12.43Z"/><path class="cls-2" d="M372,463.56l-17.34-18.15c1.38-1.43,3-3.33,4.8-4.95,3.35-3,6.58-3,9.79-.25,4.14,3.51,4.74,6.63,2.05,10.75a22.37,22.37,0,0,1-1.61,1.88l6.47,6.8Zm-10.41-18.22,4.24,3.85c1.86-1.23,2-2.41,1-3.59C365.57,444.17,364.13,443.2,361.62,445.34Z"/><path class="cls-2" d="M305.72,372.6l8.52-8.35,3.86,3.28-4.35,4.79,2.56,2.72,4.6-3.86,3.67,3.31c-.69,1-1.11,1.69-1.62,2.33-2.13,2.7-2.11,3.47.28,5.72,1,.91,2,1.78,2.88,2.72a11,11,0,0,1,1,1.71l-4,4.12Z"/><path class="cls-2" d="M193.21,645.62l-3.73,4.27c-5.89-6.8-13.68-10.3-21.93-14l3.21-3.67,6.78,2.08c-1-3.5-4.39-7,1.27-9.47a52.07,52.07,0,0,1,3.53,6.61C184.41,637.09,188.15,641.35,193.21,645.62Z"/><path class="cls-2" d="M220.3,582.08l3.53-4.06c2.15,4.2,3.78,8.15,6.07,11.67s5.26,6.65,8.19,10.26l-4,3.73c-5-7.92-13.63-9.84-21.17-14.25l3.22-3.43,6.1,1.79Z"/><path class="cls-2" d="M134.49,547.39l9.68-10,3.54,2.86-2.4,4,14.48,13.56-3.2,3.81c-6.06-3.89-10.28-9-15.37-13C137.47,550.31,137.47,550.31,134.49,547.39Z"/><path class="cls-2" d="M141.29,450.32l-3.91,4c-4.33-4.13-8.12-7.78-12-11.36-1.54-1.44-2.89-3.07-5.57-1.6-2,1.11-3.2-.77-4.37-2.49l9.3-9.75,3.8,3.23-2,3.93Z"/><path class="cls-2" d="M192.56,236.73l3.55-2.61,5.23,2.13c1.9-2.47-1.22-3.83-1-6.75l3-2.66c3.38,3.34,3.57,8,6,11.37s5.19,6.74,8,10.3l-3.28,3.85c-5.38-7.18-12.88-10.89-20.71-14.1Z"/><path class="cls-2" d="M174.26,380.21,184.46,370l3,4.09-2.08,3.32L198.86,391l-3.77,4-13.86-13.23-3.69,2.12Z"/><path class="cls-2" d="M186.4,502.7l-3.66,2.48L179.21,502l10.29-10.55,2.7,2.74c.11.73.3,1.15.17,1.35-1.54,2.4-.85,4.19,1.13,6.06,3.59,3.38,7,7,10.75,10.84l-3.5,4Z"/><path class="cls-2" d="M195.47,615.43c-.9.53-1.46.83-2,1.17-1.37.9-2.49.46-3.5-.63-1.18-1.28-.62-2.51.28-3.55,2.47-2.84,5-5.6,7.57-8.42l4.21,3.44-2.34,3.94L213.82,626l-4,3.35Z"/><path class="cls-2" d="M139.77,291.22c4.52,4.07,8.47,7.6,12.38,11.18,1.41,1.29,2.62,1.62,4.38.4,3.26-2.27,3.34-2.16,6.17,1.72l-8.54,7.67L136,295.31Z"/><path class="cls-2" d="M232.76,482.7l-13.71-13-3.69,2.09-3-3.3a9.13,9.13,0,0,1,.81-1.21c2.14-2.28,4.31-4.53,6.46-6.8,1-1,2.09-2.06,3.39-1,1,.83,2.55,1.82,1.3,3.69s-.47,3.22,1.14,4.65c2.81,2.5,5.35,5.29,8,8C236.76,479.18,236.76,479.19,232.76,482.7Z"/><path class="cls-2" d="M158.68,643.77l4.14-3.82,14.31,14L182,650.3l3.89,3.46-8.51,8C170.72,656.48,165.54,650.07,158.68,643.77Z"/><path class="cls-2" d="M312.56,393.68l4.11-3.59c4.4,2.56,4.5,3.06,1.3,6.35-1.26,1.3-2.6,2.54-3.93,3.78-.35.33-.77.59-1.59,1.21C306,396.25,300.52,390,294.1,384.29l3.77-4.33Z"/><path class="cls-2" d="M276.52,524l2.35,4c-1.51,3.49-1.53,3.51,1.13,6.25,3.32,3.43,6.66,6.84,10,10.27.21.22.25.61.53,1.31l-3.82,3.64-13-14.35-4.25,2.26-3.19-3.52Z"/><path class="cls-2" d="M131.1,586.14l-8.34,8.45c-6.31-6.07-12.55-11.35-17.85-17.42a8.63,8.63,0,0,1,1-1.76c.72-.68,1.54-1.25,2.55-2l14.16,13.24,4.69-3.67Z"/><path class="cls-2" d="M391.51,285.37l14,13.27c4.77-3.61,4.77-3.61,8.39-.44l-8,8.94L387.7,288.86Z"/><path class="cls-2" d="M133.71,299a3.7,3.7,0,0,1,1.38.82c5.14,5.28,10.23,10.62,15.69,16.31l-3.9,4.26-17.83-18.61Z"/><path class="cls-2" d="M248.63,589.94l-4.93,2.53c-5.53-4.6-10.75-10.79-17-16.67l3.48-4.7Z"/><path class="cls-2" d="M137.92,579.93l-4.19,3.57-18.47-18.2,4.08-3.52C126,567.42,131.7,573.71,137.92,579.93Z"/><path class="cls-2" d="M254.87,459.84,237,441.72l3.12-2.69c.79.16,1.43.09,1.72.38,5.17,5.09,10.36,10.17,15.39,15.4C258.92,456.53,258.32,457.55,254.87,459.84Z"/><path class="cls-2" d="M316,261.06c-1.26-.24-2.8-.09-3.72-.78-4.08-3.07-8-6.38-12.2-9.82l4.27-3.78c4.47,4.57,9.89,7.92,11.57,14.45Z"/><path class="cls-2" d="M424,399.06c-1.25-.3-2.76-.25-3.7-1A103.82,103.82,0,0,1,412,391c-2.62-2.45-2.52-2.94.23-5.45.36-.33.79-.59,1.61-1.18,3.25,3.93,6.56,7.83,9.7,11.85.52.66.29,1.9.41,2.87Z"/><path class="cls-2" d="M327.67,363.92l-2.8,5-1.22-4.71c-3.33-.09-3.34-.1-6.17-3.73l3.31-3.52Z"/><path class="cls-2" d="M315.9,261.14c2.75-.19,5.12.39,6.6,3.68L319.6,268c-3.54-1.32-4.16-3.85-3.63-6.94Z"/><path class="cls-2" d="M423.9,399.14c.44.1,1,.41,1.32.28a3.31,3.31,0,0,1,4.61,2.28c.38,1.14-.61,2.73-1,4.09-4.2-1-5.24-3.41-4.87-6.73Z"/></g></g></g></g></svg>