<svg xmlns="http://www.w3.org/2000/svg" viewBox="0 0 535.95 472.64"><defs><style>.cls-1{fill:#1e1b1f;}.cls-2{fill:#ef4136;}</style></defs><title>Asset 10</title><g id="Layer_2" data-name="Layer 2"><g id="Middle-Desktop"><g id="Our_March" data-name="Our March"><g id="IntroRight"><g id="Intro"><path class="cls-1" d="M185.26,287.37l-20.79,5,48,176.9L200,472.64,130.62,220.85c-.62-2.19-1.18-4.4-1.88-6.57-2-6-4-12.07-6-18.11q-3.52-14.78-7.05-29.55c-.42-1.77-.94-3.52-1.53-5.71l34-10.11,12.73-3.13c17.38-5.15,32.51-1.33,44.56,12.21,14.84,16.68,22.14,36.92,26.12,58.55l-2.29,35.35c-3.63,10.18-9.29,18.85-19.46,25L307,440.48l-11.32,6.64c-11.56-19.2-23-38.14-34.4-57.15q-27.15-45.38-54.24-90.8c-2.33-3.88-5.14-7.46-7.73-11.19l-2.31-4.6Zm8.51-18c2.53-.37,5.32-.17,7.54-1.22,12.08-5.69,16.32-16.38,17.67-28.77q0-6.61,0-13.22c-1.86-23-9.81-43.58-26.08-60.22-7.72-7.89-17.66-8.86-28-5.39l-12.74,4L131,170.48l5.74,20Q143.33,215,149.9,239.6c3.61,13.41,7.26,26.82,11,40.67l20.59-6.58Z"/><path class="cls-2" d="M229.29,253.76l2.29-35.35c3.27-5.54,8.38-10.72,9.51-16.67,5.79-30.35-5-56.36-23.61-79.59-5.7-7.1-14.2-9.87-23.1-7.92-13.18,2.9-26.13,6.79-40,10.47l6.47,22.95-12.73,3.13c-3.2-11.36-6.41-22.72-9.86-35,15-4.08,29.4-8.34,44-11.78,7.21-1.7,14.83-2.91,22.17-2.51,11.18.61,19.9,7.23,26.27,15.92,14.78,20.17,23.88,42.76,25,67.95.87,19.49-4.3,36.8-22.33,49.23l98,161.8L320.6,403c-11-17.85-22-35.33-32.64-53-18.7-31-37.2-62-55.83-93A22.63,22.63,0,0,0,229.29,253.76Z"/><path class="cls-2" d="M122.74,196.17c2,6,4,12.06,6,18.11.7,2.17,1.26,4.38,1.88,6.57-3.86,15.17-7.92,30.3-11.52,45.54-6,25.46-11.79,51-17.54,76.49-2.56,11.39-4.78,22.86-7.24,34.28a20.06,20.06,0,0,1-1.79,3.78l-57.83-12.8L82.11,158.3l12.7,2.87L48.33,364.7l33.43,7.57c3.74-16.8,7.22-32.89,10.93-48.93q13.46-58.13,27.11-116.21C120.66,203.45,121.76,199.82,122.74,196.17Z"/><path class="cls-1" d="M399.5,108.29l12.24-4.77L535.95,438.29l-12.46,5.07Z"/><path class="cls-1" d="M454.84,466.66,442.61,471,321.25,136.23l12.39-4.79Z"/><path class="cls-1" d="M38.89,397H52.52v68.78H39.15V427.83l-1.55-.42L27,449.08c-8.38-5-7.72-14.9-13.87-21.57V466L0,466.74v-69.1l11.78-.95,14,26.45Z"/><path class="cls-2" d="M10.09,182.47c1.81-6.53,4.41-19.16,8.87-31.09,5.07-13.54,14.69-17.08,29.82-13,13.09,3.57,19.74,13,17.23,27.48A189.23,189.23,0,0,1,56.6,200c-4.85,12.9-13.56,16.29-28,12.89C15.16,209.78,9.22,202.08,10.09,182.47ZM53,158.32c-3.55-3.62-6.24-8.61-9.35-8.89s-7,3.86-9.6,6.85c-1.82,2.07-2.39,5.43-3,8.32-2.1,9.57-4.51,19.12-5.58,28.82-.29,2.67,3.12,7.08,5.89,8.32,2.06.92,7.75-1.27,8.52-3.31C44.64,185.77,48.44,172.75,53,158.32Z"/><path class="cls-1" d="M157.67,447.77,141,449.88l-5.53-12.08-20.73,2.47-2.92,13.24-16.28,1.8L109.15,380l17-2.11Zm-28.11-24-9.14-21.87-3.2,23.28Z"/><path class="cls-2" d="M185.26,287.37l11.71-4,2.31,4.6c6.85,25.42,13.75,50.82,20.52,76.26,5.39,20.25,10.6,40.55,16,61.23l-12.16,3.08c-5.56-20.93-10.88-41.39-16.43-61.79C200,340.27,192.58,313.83,185.26,287.37Z"/><path class="cls-1" d="M385.24,444.42l10.57-3.49c4.22,7.52,2,19.11-4.84,25.11-8,7-19.91,7.84-27.82,1.88-12.63-9.5-21.49-37.43-16.67-52.52,3.3-10.34,11.52-15.8,23.6-15.69,8.62.08,15.82,6.57,19.23,17.76L377.78,421c-1-1.81-1.57-4.24-3-5.1-3.2-1.86-7-4.23-10.3-3.85-2.31.26-5.69,4.56-5.93,7.29a52.06,52.06,0,0,0,10.84,37.06c1.75,2.28,7,4.22,9.21,3.22,2.94-1.31,4.84-5.52,6.54-8.82C385.92,449.27,385.24,446.93,385.24,444.42Z"/><path class="cls-1" d="M494.68,10.73l5.88-5,7.91,9.83L457.73,69.72,447.2,57.31Z"/><path class="cls-2" d="M494.68,10.73,447.2,57.31l-5,6.17-9.49-9.77L485.08,0Z"/><path class="cls-1" d="M454.55,271.07l2.36,6.08-60,21.34-3.18-5.89Z"/><path class="cls-2" d="M181.5,273.69q-13.69-50.42-27.36-100.83c-.74-2.74-1.35-5.52-2-8.28l12.75-4,19.92,74.58,34.18-9q0,6.61,0,13.22l-30.25,8.18,5,21.8Z"/><path class="cls-2" d="M131,170.48l10.07,2.61-4.33,17.38Z"/></g></g></g></g></g></svg>