<svg xmlns="http://www.w3.org/2000/svg" viewBox="0 0 558.41 792.52"><defs><style>.cls-1{fill:#1c161c;}.cls-2{fill:#ef4657;}</style></defs><title>Asset 9</title><g id="Layer_2" data-name="Layer 2"><g id="Middle-Desktop"><g id="Arts_Army" data-name="Arts Army"><g id="IntroRight"><path class="cls-1" d="M132.2,438.14l.44,32.14-60,.82-.45-32.63c.74-.27,1.5-.57,2.26-.83,4.83-1.65,4.65-2.08,5.51-6.93,1.29-7.29-1-14.12-1.73-21.16-.3-3.11-1-6.18-1.51-9.63l-20.93.29c-1,9.83-2.22,19.51-1.06,29.28.62,5.22,3.17,7.59,8.38,8.27,1.44.19,2.89.33,4.51.51l.45,32.94-54.85,1.55c-.8-11.29-.19-22.19-.41-33.47,9.34-.66,12.43-6.67,13.09-14.77.56-6.92,1.12-13.83,1.82-20.73Q29.8,384,32,364.2c1.13-10.13,2.47-20.24,3.56-30.38,1.53-14.19,2.93-28.39,4.37-42.59,1.2-11.87,2.29-23.76,3.61-35.62.95-8.51,2.21-17,3.29-25.47.29-2.26.43-4.53.68-7.15l40.2-.55c.43,1.83,1.07,3.85,1.38,5.91C91,241,92.86,253.64,94.78,266.28c2.14,14.1,4.26,28.21,6.54,42.29,1.9,11.78,4.11,23.51,6,35.29,1.42,8.84,2.49,17.73,3.84,26.58,1.29,8.52,2.73,17,4.1,25.52.87,5.41,1.6,10.84,2.6,16.22s2.21,10.73,3.41,16.07c1.11,4.95,3.76,8.46,9.12,9.29A11.25,11.25,0,0,1,132.2,438.14Zm-68-131.35-.93,0-5,64.44L73,371c0-1.29.05-2.27-.06-3.24-.76-6.76-1.55-13.52-2.34-20.28-.74-6.39-1.28-12.81-2.29-19.15C67.18,321.12,65.61,314,64.22,306.79Z"/><path class="cls-2" d="M557.32,754.55c1.25,3.83,1.51,23.4.35,27.68a5.18,5.18,0,0,1-1.33.39c-29.8.67-59.6,1.42-89.4,2-45.32.81-90.64,1.43-136,2.2-17.81.3-35.61.85-53.42,1.17-9.16.16-18.32-.08-27.47.09-35.3.69-70.6,1.53-105.9,2.2-30,.56-60,.93-90,1.45-5.62.1-11.22.52-16.84.77-1.59.07-3.19.05-5.1.08l-.38-27.44c6.2-.2,12.31-.48,18.42-.58,24.33-.38,48.66-.61,73-1.07,25.47-.48,50.94-1.18,76.41-1.74,11.33-.25,22.66-.38,34-.59a23.43,23.43,0,0,0,2.91-.41c1.33.08,2.65.25,4,.22q48.4-1,96.79-2c9.82-.2,19.64-.33,29.45-.48q92.62-1.43,185.23-2.89A30,30,0,0,0,557.32,754.55Z"/><path class="cls-2" d="M114.54,41.28,211.62,0q38,86.54,75.64,172.32a7.13,7.13,0,0,1,.07,2.5l-94.62,40.71c-8.57-19.44-16.93-38.75-25.58-57.94s-17.91-38.36-26.46-57.72S123.34,61.36,114.54,41.28ZM258.91,178.56,188.68,17.9,144.49,36.12l71.93,161.58Z"/><path class="cls-1" d="M557.32,754.55a30,30,0,0,1-5.25,1q-92.62,1.5-185.23,2.89c-9.82.15-19.64.29-29.45.48q-48.4,1-96.79,2c-1.32,0-2.65-.14-4-.22l-.4-29.34c7.36-.19,14.13-.44,20.9-.54,22.31-.34,44.63-.61,66.94-1q46.67-.71,93.34-1.49c33.79-.59,67.58-1.27,101.37-1.88,12.48-.22,25-.35,38.13-.53Z"/><path class="cls-1" d="M364.15,599.26c-.34-4.28-.52-8.59-1.06-12.84-1-7.54-2.19-15-3.22-22.57-1.85-13.5-3.57-27-5.46-40.5-2.23-15.93-4.62-31.83-6.86-47.76-1.57-11.14-2.93-22.32-4.52-33.45-2.21-15.41-4.66-30.79-6.77-46.21-.7-5.11-.67-10.32-1-15.85l51.54-.71a10.54,10.54,0,0,1,.4,3.2c-1,5.76.66,11.29,1.38,16.87,1.46,11.37,3.42,22.67,5,34,1.36,9.71,2.44,19.47,3.73,29.19,1.73,13,3.55,26,5.32,39q2.39,17.55,4.74,35.1c1.41,10.54,2.87,21.07,4.2,31.61,1,7.75,1.65,15.53,2.68,23.28,1,7.24,2.29,14.42,3.29,21.66,1.52,11,2.91,22.09,4.32,33.14.54,4.26,1,8.54,1.53,13.16l-7.69,1-36.52-271,2.15-1.25c-.83-.45-1.54-1.16-2.25-1.16-11.8.09-23.59.27-35.53.44,13.2,91,25.54,181.75,38.45,272.74l-4.72,1.21c4.87,1.53,9.82.94,14.73,1,5.33,0,10.66-.1,16-.17l15.8-.22.11,7.85c-16.67.75-33.38.64-50.64.86-.06-4.42.2-8.48-.23-12.47-1.1-10.06-2.46-20.1-3.83-30.14-1-7.24-2.11-14.46-3.29-21.66-.15-.93-1-1.75-1.57-2.61Z"/><path class="cls-1" d="M323.51,86.61c9.59-4.06,18.57-8.39,27.92-11.68,12.07-4.25,23-.27,30.43,10.59a56.33,56.33,0,0,1,9.57,24.32c1.48,10.62-2.11,19.07-11.25,24.71A136.19,136.19,0,0,1,366,141.63c-4.65,2.17-9.4,4.14-14.42,6.33ZM360.23,130c2.86-1.27,5.31-2.2,7.6-3.42a13.54,13.54,0,0,0,7.53-12.6,29,29,0,0,0-9.74-22.09,14.27,14.27,0,0,0-13.89-3.36c-2.94.81-5.68,2.31-8.86,3.65Z"/><path class="cls-1" d="M318.69,126.11c7.73-1.05,11.89,2.32,15,7.57,3.38,5.69,6.84,11.34,10.51,17.43l-15,6.67c-1.45-2.36-2.94-4.69-4.34-7.06-1.94-3.29-3.9-6.57-5.69-9.94a5.48,5.48,0,0,0-6.67-3c-2.69.64-5.28,1.75-8.61,2.9l10.35,23.9-14.06,6.13-27.57-61.57c2.53-1.18,5-2.45,7.53-3.48,7.68-3.1,15.2-6.83,23.15-9a16.82,16.82,0,0,1,21,19.61,22.11,22.11,0,0,1-2.61,5.84A36.69,36.69,0,0,1,318.69,126.11Zm-20,2.89c2.19-.93,4-1.64,5.75-2.48a17,17,0,0,0,3-1.81c3.33-2.53,4-5,2.47-8.64s-4.33-5.5-8.13-4.93a19.77,19.77,0,0,0-9.41,4.17c1,2.45,1.89,4.76,2.92,7C296.18,124.37,297.3,126.37,298.65,129Z"/><path class="cls-1" d="M454.23,101.82,427.49,40.4c2.78-1.33,5.35-2.76,8.05-3.84,7.52-3,14.55-7.14,22.59-9,7.6-1.73,15.21,2,18.37,7.71,4,7.3,3.54,15.07-2.34,20.47-.48.44-.87,1-1.89,2.15,8.32-2.3,12.49,2.28,16,8,3.29,5.36,6.46,10.79,10,16.66A121.3,121.3,0,0,1,483.14,89l-6.88-11.73-.5-.86c-5.48-9.3-8-9.89-17.51-3.92l10,23Zm-1.36-41.48a97,97,0,0,0,8.9-4.58c3.27-2.13,3.8-5,2.18-8.68-1.85-4.21-4.22-5.87-8.05-4.88-3.13.81-6.1,2.28-9.47,3.58Z"/><path class="cls-2" d="M264.74,664.09l-7.58-2.79,71.49-256.43,8,1.21c-.86,4-1.43,7.72-2.46,11.29-6,20.79-12.15,41.54-18.1,62.34-2.36,8.26-4.23,16.66-6.52,24.94-2.59,9.39-5.45,18.71-8.11,28.08-3.6,12.67-7.1,25.37-10.7,38-2.35,8.26-4.89,16.48-7.18,24.76-2.73,9.85-5.27,19.76-7.93,29.63q-3.47,12.9-7,25.78C267.47,655.2,266.14,659.4,264.74,664.09Z"/><path class="cls-1" d="M428.36,69.26,433.43,81,411.56,91.18l5.65,13,23.71-10.8L446.38,105,408.8,122.41,382.06,61.16,419.53,44l5.31,11.48L401.05,66.74l5.41,12.74Z"/><path class="cls-2" d="M155.82,452.62l-10.89.15-.8-58.13a90.36,90.36,0,0,1,27-.38c7.75,1.14,13.08,10.49,10.79,18.24-1.13,3.84-2.45,7.65-7.73,9.45,7,2.47,8.07,7.43,7.91,13.2a56.78,56.78,0,0,0,2.32,17.1l-12.05.17c-.45-5.67-1.17-11-1.21-16.43-.06-6.38-2.59-8.51-8.77-8.87-2-.12-4,0-6.49.07C155.41,435.61,156.17,443.84,155.82,452.62Zm-.76-50.52.23,17c2.83,0,5.13-.09,7.43-.1,3.2,0,6.1-1,7.27-4.11a11,11,0,0,0-.71-10,5.5,5.5,0,0,0-4.86-2.89C161.29,402,158.17,402.06,155.06,402.11Z"/><path class="cls-2" d="M257.89,430.65l9.63-.13c.47,2.63.76,4.91,1.29,7.12,1.21,5.06,4.59,7,9.06,5.32a7,7,0,0,0,3.48-9.87,14.93,14.93,0,0,0-4.18-4.75c-3.69-2.8-7.68-5.19-11.41-7.94-4.07-3-7.29-6.47-8.53-11.78-1.67-7.14,1.74-15.91,10.39-17.37a34.42,34.42,0,0,1,11.84-.25c5.5,1,10.31,4.24,11.14,12.78.16,1.59.34,3.18.55,5.14l-9.93.14a56.6,56.6,0,0,0-1.51-6c-1.25-3.44-5.41-4.94-9.12-3.47-2.55,1-3.69,5.12-1.86,8.23a15.94,15.94,0,0,0,4.47,4.55c4.16,3,8.6,5.59,12.74,8.6,5.65,4.11,8.25,9.56,7.22,16.76-.88,6.2-5,11.9-10.94,13.39a27.07,27.07,0,0,1-13.79.25A13.92,13.92,0,0,1,258,438C258,435.7,257.92,433.4,257.89,430.65Z"/><path class="cls-2" d="M214.52,401.24l-12.26.17-.51-7.66,36.1-1.5c.18,1.53.4,2.8.45,4.07s-.08,2.3-.14,3.49c-2.87,1.73-5.92.84-8.83,1-3.22.22-3.88.87-3.76,3.79.45,10.28,1,20.55,1.27,30.83.13,5.24-.34,10.5-.55,16.1l-9.58.13c-.13-1.2-.39-2.62-.42-4.05-.18-7.65-.18-15.3-.47-22.94S215,409.52,214.52,401.24Z"/><path class="cls-2" d="M364.15,599.26l.23,4.78c-.38,2.16-2,2.35-3.73,2.35q-4.5,0-9,.12L293.28,608c-2.61.07-5.23.08-8.09.12l-.1-7.58c1.49-.1,2.94-.25,4.39-.28,7.82-.13,15.65-.15,23.47-.36,15.29-.42,30.59-1,45.88-1.39A32.52,32.52,0,0,1,364.15,599.26Z"/><path class="cls-1" d="M472.61,635l6.91-.09,4.24,16,.82-.16,3.85-15.89,6.91-.09.34,24.75-4.08.06-.23-16.82-1-.06-4.54,16.73-3.63.46-4.62-17.58-.68,0,.24,17.18-4.21.26Z"/><path class="cls-2" d="M244.64,665.91l36-.49.11,7.74-36,.49Z"/><path class="cls-1" d="M450.79,650.25l-5.25.07-.31,9.71-3.8.05-.34-24.91c3,0,5.74,0,8.5-.14,5-.31,8.34,3.88,6.12,9.56A12.09,12.09,0,0,1,454,647.1c.71,2.28,1.47,4.26,1.92,6.3s.62,4.16.93,6.42l-4.25.06Zm-5.22-4.69c2.62,1,4.7.71,5.76-1.62a4.42,4.42,0,0,0-.19-3.66c-1.32-2-3.44-1.31-5.66-.83Z"/><path class="cls-1" d="M511.25,634.49l4.87-.07,4.37,10.49c1.27-3.33,2.24-5.93,3.26-8.52s1.09-2.7,4.92-2.11c-1.91,8.11-7.74,15.19-5.89,24.31l-3.9.74c-.36-.56-.7-.84-.68-1.08.57-6.37-1.89-12-4.39-17.57C512.95,638.74,512.18,636.75,511.25,634.49Z"/><path class="cls-2" d="M6.29,227.46,0,225.56c.7-1.2,1.08-2.6,1.6-2.65,4.64-.45,9.35-1.19,14.12.33-1.62,3-1.62,3-5.75,4.13l.35,25.28-3.68.05Z"/><path class="cls-2" d="M28.58,240.51c2.8-.12,5.17-.75,8.36.93L31.31,243c.1,3.45,3.58.89,4.57,3.18l-4.19.74c0,3,0,3,4,3.54-2.62,2.08-2.62,2.08-6.94.78Z"/><path class="cls-2" d="M24.68,251.95l-1.48-4.87c-2.4-.34-4.79-1-6.07,2.19L17,241.21c1.53,4,1.53,4,6.08,3.88.23-.61.47-1.34.77-2s.64-1.37,1.38-2.95c1.54,4.45,1.17,8,.73,11.52Z"/><path class="cls-2" d="M21.49,224.89c3.84-.93,5.14-.58,6.58,1.79a6.79,6.79,0,0,1-.55,7.42c-1.26,1.37-4.7,2.14-6.43,1.29s-2.52-2.11-1-4.43c.44.89.6,1.69,1.1,2.08.7.56,1.79,1.28,2.46,1.08A4,4,0,0,0,26.06,232C27.34,228.48,26,226.47,21.49,224.89Z"/></g></g></g></g></svg>