<svg xmlns="http://www.w3.org/2000/svg" viewBox="0 0 512.46 512.54"><defs><style>.cls-1{fill:#ee2d32;}.cls-2{fill:#151318;}</style></defs><title>Asset 11</title><g id="Layer_2" data-name="Layer 2"><g id="Left-Desktop"><g id="My_May" data-name="My May"><g id="Intro"><path class="cls-1" d="M250.13,512.54c-26.27-.46-51.63-5.82-76.44-13.76a237.78,237.78,0,0,1-76.86-41.54c-21.19-17-38.52-37.45-53.77-59.89C26.88,373.54,15.71,347.51,8.28,320A244.68,244.68,0,0,1,2,225a243.7,243.7,0,0,1,20.4-72.57c17.23-37.11,40.31-67.72,71.07-93.94a228.39,228.39,0,0,1,55-34.63,266.4,266.4,0,0,1,87.61-23,250.67,250.67,0,0,1,73,4.52C353.52,14.79,393.12,34.16,427,64.91c13.71,12.46,25.2,26.63,36.27,41.45,12.65,16.94,22.47,35.23,30.58,54.49a237.63,237.63,0,0,1,16.08,59.44,252.69,252.69,0,0,1-1.13,79c-4.78,27.34-13.57,53.43-27.49,77.47a321.24,321.24,0,0,1-25.67,38.56,273.85,273.85,0,0,1-32.17,34.47,235.1,235.1,0,0,1-74.63,45.1A279.89,279.89,0,0,1,284,510.61C272.79,512,261.43,511.94,250.13,512.54ZM39.78,255l-1.68.15c1.79,14.46,3.15,29,5.47,43.37,4.39,27.25,15.18,52.24,29.78,75.39,34.26,54.31,84.39,85.5,146.83,97,33.24,6.14,66.52,3.46,98.83-6.46,48.17-14.79,87.28-42.42,115.66-84.52,17.51-26,29.48-54.15,35.08-85.1a213.47,213.47,0,0,0,1.19-71.38,221.57,221.57,0,0,0-38-94.36C404,87.92,364.77,61.21,316.73,47.13a210.11,210.11,0,0,0-96.86-5.38c-38,6.71-72.59,21.46-102.2,46.3-27.68,23.23-48.89,51.63-62,85.56a317.7,317.7,0,0,0-10.31,32.16C41.06,221.82,38.44,238.18,39.78,255Z"/><path class="cls-1" d="M311.55,425.74h17.77v22.81H197.79c0-7.17.31-13.65-.13-20.07-.22-3.2,1.16-3.71,3.51-3.74,5-.07,10,0,16.14,0V129.57H150.76l-.48-1.11c4.64-4.07,9.23-8.19,13.92-12.19,10.58-9,21.26-17.93,31.8-27,7.89-6.79,15.52-13.88,23.47-20.59a10.48,10.48,0,0,1,6.22-2.26c27.48-.16,55-.07,82.45-.2,3.48,0,4.61,1,4.58,4.54-.25,30.29-.33,60.59-.49,90.88q-.42,80.7-.85,161.4c-.09,24.65.11,49.29.17,73.94C311.57,406.27,311.55,415.57,311.55,425.74Zm-23.68-94.88c0-1.83,0-3.45,0-5.06,0-7,.11-14-.23-20.92-.15-3-.56-6.46-2.15-8.84-6.69-10-26.39-13.26-36.75-6.08a8.68,8.68,0,0,0-3.08,5.46c-.15,1,2,3.38,3.23,3.44a11.82,11.82,0,0,0,6.17-1.94c1.3-.77,1.82-2.74,3-3.8,2.82-2.48,6-1.37,8.09.7,1.64,1.64,2,4.57,2.89,6.93-2.2.51-4.39,1-6.59,1.5a2.64,2.64,0,0,1-1-.13c-9.11-1.79-19,.71-24.51,11.64-3.66,7.25-2.21,20.22,3.93,24.75,7.61,5.62,16,7.49,25.1,3.46,1.31-.57,3.1-.12,4.67,0,4.9.33,9.86,1.43,14.67.92a9.94,9.94,0,0,0,8.79-11.5Z"/><path class="cls-2" d="M203,161.36V343.74H178V161.36Z"/><path class="cls-2" d="M68.19,161.15H92.67V343.73H68.19Z"/><path class="cls-2" d="M397.91,344.88H375.44c0-6.57,0-13.47,0-20.37.1-25.64.17-51.27.39-76.91a11.62,11.62,0,0,1,1.72-6.49c19.36-26,38.89-51.85,58.82-78.33l17.33,13.34c-5.43,7.43-10.46,14.41-15.59,21.32-11.9,16-23.76,32-35.83,47.92a16.84,16.84,0,0,0-3.63,10.9c0,28.45-.25,56.89-.44,85.34C398.21,342.58,398,343.55,397.91,344.88Z"/><path class="cls-2" d="M168.81,160.19l6.49,1.94-33.42,95.31-6.35-2.13Z"/><path class="cls-2" d="M94.8,161.52l6.27-2.29,31.54,95.28-6.14,2.36Z"/><path class="cls-2" d="M324.06,169.08l6.08-3.16,44.42,63.92-5.42,3.65Z"/><path class="cls-2" d="M287.87,330.86l6.25.53a9.94,9.94,0,0,1-8.79,11.5c-4.8.51-9.77-.59-14.67-.92-1.56-.11-3.36-.57-4.67,0-9.14,4-17.48,2.16-25.1-3.46-6.14-4.54-7.58-17.5-3.93-24.75,5.52-10.93,15.4-13.43,24.51-11.64a2.64,2.64,0,0,0,1,.13c2.2-.48,4.39-1,6.59-1.5-.92-2.36-1.26-5.29-2.89-6.93-2.06-2.07-5.27-3.18-8.09-.7-1.2,1.06-1.73,3-3,3.8a11.82,11.82,0,0,1-6.17,1.94c-1.21-.06-3.38-2.4-3.23-3.44a8.68,8.68,0,0,1,3.08-5.46c10.36-7.19,30.06-3.94,36.75,6.08,1.59,2.38,2,5.84,2.15,8.84.34,7,.19,13.95.23,20.92C287.88,327.41,287.87,329,287.87,330.86Zm-19.72-10.37a37.59,37.59,0,0,1-.19-5c.29-3.83-1.08-6.05-5.15-6.31s-6.41,2.22-6.84,5.75a61.29,61.29,0,0,0,0,13.45c.35,3.44,3.17,4.89,6.52,4.82s5.24-1.75,5.34-5.24C267.84,325.67,268,323.34,268.15,320.49Z"/><path class="cls-1" d="M268.15,320.49c-.14,2.86-.31,5.19-.37,7.52-.1,3.49-2,5.18-5.34,5.24s-6.17-1.38-6.52-4.82A61.29,61.29,0,0,1,256,315c.42-3.53,2.65-6,6.84-5.75s5.44,2.48,5.15,6.31A37.59,37.59,0,0,0,268.15,320.49Z"/></g></g></g></g></svg>