<svg xmlns="http://www.w3.org/2000/svg" viewBox="0 0 465.11 653.4"><defs><style>.cls-1{fill:#ef4136;}.cls-2{fill:#230f0d;}</style></defs><title>Asset 8</title><g id="Layer_2" data-name="Layer 2"><g id="Middle-Desktop"><g id="March"><g id="Intro"><path class="cls-1" d="M157.7,87.56c-.65.19-1.55.18-1.89.62a53.29,53.29,0,0,0-2.93,4.54l-50.13-71-1.1.29V340.52H23.39c-.14-2-.31-3.73-.38-5.49q-.34-9.22-.62-18.44c-.18-6.15-.42-12.31-.42-18.46q0-48.71.07-97.41c0-22.65.07-45.3,0-68s-.17-45.3-.22-67.95c0-14.48,0-29,0-44.2,4.05-.3,7.77-.8,11.49-.81,20.49,0,41-.18,61.46.18,5.71.1,9.84-1.8,14.15-6.56H.11V.06H121.56V13l-8.69.49c7.38,12.11,15.17,23.05,22.93,34S151.15,70,158.52,80.78l-.9,6.87Zm-117.34,111v27.87H83.42V197.95H75.61V216.5H65.4V199.85H57.62v17H47.55V197.71Zm43.12-56.31H65.64V125.49l-8.05.61V142h-10V124.72H40.78v26.64h42.7ZM48.15,84.11V71.57H83.38v-9.8H48V50H40.19v33.7ZM75.89,269.7V287c-12,1.27-23.72.12-35.27.75v8.9H83.36V269.7Z"/><path class="cls-1" d="M219,19.79h78.48V340.25H219.43a32.69,32.69,0,0,1-.55-4.44c.06-19.81.21-39.62.27-59.44,0-5-.34-10-.3-14.93.08-9.15.5-18.29.48-27.44-.09-32.13-.37-64.25-.47-96.38-.09-26.64,0-53.28,0-79.92,0-11,0-22,0-33C218.77,23.29,218.91,21.83,219,19.79Zm56.85,47.14h-16c-2,9.56-4,18.76-5.9,28-1.62,7.93-3.13,15.89-4.67,23.84-.66,3.41-1.16,6.86-1.91,10.25-1.1,5-2.49,9.9-3.52,14.89a65.65,65.65,0,0,0-.67,7.67h14.33l3-13.17a35.9,35.9,0,0,1,14.47-.3l2.81,13.46h16.14C287.75,123,282.5,94.72,275.86,66.93Z"/><path class="cls-2" d="M444.88,172.06l20.23,11.81c-6.56,10.94-12.84,21.5-19.2,32q-18.46,30.5-37,60.95c-4.42,7.23-9.24,14.23-13.62,21.49q-18.93,31.39-37.64,62.92Q339.26,392.09,321,423c-10,16.91-19.65,34-29.75,50.82C279.42,493.5,267.31,513,255.3,532.55q-9.13,14.88-18.37,29.69c-.68,1.09-1.5,2.09-2.4,3.34L214.59,554c1.34-2.5,2.47-4.85,3.81-7.06,8.11-13.35,16.31-26.65,24.4-40,21.34-35.25,42.76-70.46,63.93-105.82,14.24-23.8,28-47.88,42.16-71.73,9.83-16.58,19.94-33,29.92-49.5,13-21.47,25.9-43,38.95-64.41,8.38-13.78,16.93-27.45,25.41-41.16C443.59,173.64,444.12,173,444.88,172.06Z"/><path class="cls-1" d="M419.19,66.71h14.42V99.77h15.93c0-4.63,0-9.94,0-15.24s0-10.6,0-16.25c4.14-2.66,8.78-1.26,13.16-1.43,1.34,4.07,1.79,72.86.6,83.54H449.63c-1.67-11.06.75-22.67-.51-34.54H434v34.88H419.19Z"/><path class="cls-1" d="M325.85,151.23H311.61V67.46c1.43-.11,3-.35,4.6-.34,5.16,0,10.31.16,15.47.3,11.83.32,19,8.62,19.94,20.08.8,10-1.84,18.77-10.24,25.54l12.24,38H338.47l-11.54-35.59-1.08.22Zm-.07-69.93v21.86c5.34.57,8.35-.27,9.5-3.23a28.43,28.43,0,0,0,2.2-9.52C337.57,83.55,333.63,80.5,325.78,81.3Z"/><path class="cls-1" d="M319.19,345.31V359.5c-1,.09-2.08.28-3.18.28-15.48,0-31,0-46.43,0-15,0-29.92.11-44.88.16-6.48,0-13,.07-19.43,0-2,0-3.92-.29-5.78-.43V345.31Z"/><path class="cls-1" d="M198.78,13.13,198,0h121.5V13.13Z"/><path class="cls-1" d="M120.15,345.08v14.45H0V346.8c1.69-2.08,4.54-1.55,7.23-1.55q31.17,0,62.33-.07,18.69,0,37.39-.1Z"/><path class="cls-1" d="M401.19,138.45v13H370.07c-1-2.76-1.52-78.26-.53-84.56h31.81V79.74H383.59v58.71Z"/><path class="cls-1" d="M157.61,87.65c1.18-.91,2.69-1.59,3.48-2.76,10.61-15.67,21-31.45,31.69-47.09,4.72-6.94,9.84-13.6,15-20.74l9.07,6-55.24,80.21L153,97c1.23-1.87,2.42-3.42,3.3-5.13a28.22,28.22,0,0,0,1.44-4.28Z"/><path class="cls-1" d="M264.72,606.36c.11,9-7.28,17.05-15.84,17.18-7.81.12-14.88-6.24-14.64-13.79.31-9.6,6.56-17,16.36-17.11A13.91,13.91,0,0,1,264.72,606.36Zm-4.38-6.19c.25-2.53-1.49-3.86-3.62-5.1-2.67-1.56-5.28-.84-6.7,1.21a188.09,188.09,0,0,0-10.95,17.63c-1.81,3.33-1.05,4.15,3.42,6.79,3.08,1.82,5,1.82,6.84-.93,3.53-5.19,6.73-10.62,10-16A15.42,15.42,0,0,0,260.34,600.17Z"/><path class="cls-1" d="M178.39,548.8l-4.29,6.31c.1-5.42.43-10-4.72-11.71-2.78-.91-4.87.16-6.06,3.78,1.65,2,3.45,4.26,5.42,6.4,4.74,5.15,3.24,10.17,0,14.31-4,5.21-11.4,4.22-14.82.41a39.16,39.16,0,0,0-4.86-3.88l4.31-7.06c.14,3.06.1,5,.34,6.89.56,4.47,4.53,7.12,8.62,5.85,3.52-1.09,4.91-4.41,2.88-7.47-1.27-1.92-3-3.49-4.5-5.29a9.66,9.66,0,0,1-.55-12c3.05-4.49,9.26-4.73,13.46-.59C175,546.07,176.55,547.22,178.39,548.8Z"/><path class="cls-1" d="M284.81,645.79l3.81-6.28,1,.12c0,1.52,0,3,0,4.56a7.27,7.27,0,0,0,4,6.89c2.62,1.53,5.42,1.26,7.27-.71s2-4.67,0-7.21c-1.23-1.56-2.8-2.85-4-4.41A9.55,9.55,0,0,1,298,625.37c3.52-3,9.3-2.45,12.93,1.21,1,1,2.16,1.92,3.59,3.18l-2.82,4.73c-1.13-4.61-1-9.43-7-10.37-5.39,2.2-6,4.7-1.6,8.88,3.28,3.14,5.88,6.39,4.58,11.26-1.15,4.29-3.88,7.52-8.05,8.74-3.91,1.15-7.41-.25-10.08-3.65C288.49,648,286.78,647.23,284.81,645.79Z"/><path class="cls-1" d="M186.35,565.07c-3.81,2.36-7.09,3.86-7.53,7.46l-6.92,3.13,1.53,4.55L166.72,576c5.23,0,7.56-3.45,10.51-5.79,4.79-3.79,9.29-7.93,14-11.87a44.33,44.33,0,0,1,4-2.53l-6.39,33.26c-1.15-.54-2.62-1.14-4-1.9s-2.8-1.76-4-2.53c.91-1.57,2.16-3,2.53-4.56s-.23-3.23-.42-5.06h1.71Z"/><path class="cls-1" d="M208.86,568.59l-1.42-2.46.43-.51,10.45,6.27-.17.73c-.44-.07-.88-.15-1.33-.2s-1-.06-1.86-.11l-13.32,22.41,1.5,2.47-.38.62-8.19-5.14Z"/><path class="cls-1" d="M277.69,623.61l-3.44-.92-7.56,12.8L261,632.21a35.34,35.34,0,0,1,1.65-3.93c3.31-5.73,6.61-11.47,10.1-17.09,1.35-2.17,2.33-4.16-.07-7.56l9.66,5.89-6.73,10.67,2,3.49Z"/><path class="cls-1" d="M221.86,574.26l8.37,4.43L214.33,605l-6.15-3.89c2.88-4.65,5.74-8.88,8.17-13.34C218.61,583.6,222.77,580.16,221.86,574.26Z"/><path class="cls-1" d="M277.63,623.69c6,.39,7.6-4.09,9.33-8.69l-2.16-3.35c6.31,3.08,8.42,6,7.5,9.79-1,4-2.47,4.67-10.8,4.72,3.31,4,2.72,7.88,0,11.78-1.15,1.64-2,3.61.31,5.25-6.64,0-9.19-3.71-6.49-9.5.62-1.34,1.5-2.56,2.18-3.88a6.73,6.73,0,0,0,.22-6.19Z"/><path class="cls-1" d="M149,542.24a6.1,6.1,0,0,1-6.48-6.12c0-3.41,4.09-7.78,7.25-7.76a6.54,6.54,0,0,1,6,6.17C155.8,538.69,152.76,542.15,149,542.24Zm-2.67-2.84c4.19.47,6.61-1.16,6.62-4.61a4.16,4.16,0,0,0-1.68-3.19,3.94,3.94,0,0,0-3.57.42A5.42,5.42,0,0,0,146.29,539.39Z"/><path class="cls-1" d="M127.54,550.61l2.47-5.67-4.07-2.38-3.81,4.84-1.69-1.89c2.74-3.53,3.86-7.92,7.18-10.58l1.35.89-1.81,4.72,3.73,1.95,3.92-3.67c.23,1.28.72,2.22.47,2.86C133.48,546.15,130.64,549.59,127.54,550.61Z"/><path class="cls-1" d="M142.33,559.17l-8.09-5L140.68,543l7.32,4.67-.41.88-5.74-1.28-.54.89,4.5,4.52c-2.72,2.11-5.36-4.1-7.83.59l5.46,4.74Z"/><path class="cls-1" d="M111.4,540.65c.69-1.5,1.33-3,2.09-4.49s1.62-2.85,2.55-4.47l-2.22-3.93.64-.75,8.88,5.17-.33,1.16-4.31-.41L113,541.48Z"/><path class="cls-1" d="M144.07,526.92,140,525.2l-5.57,8.74-2.14-1.27,5-8.6-2.48-3.87C139.24,521.11,142.55,523.35,144.07,526.92Z"/><path class="cls-1" d="M225.56,612l-5-3.5,10.76-5.27Z"/><path class="cls-2" d="M40.36,198.55l7.2-.84v19.13H57.62v-17H65.4V216.5h10.2V197.95h7.81v28.47H40.36Z"/><path class="cls-2" d="M83.48,142.24v9.11H40.78V124.72h6.85V142h10V126.1l8.05-.61v16.75Z"/><path class="cls-2" d="M48.15,84.11l-8-.45V50H48V61.77h35.4v9.8H48.15Z"/><path class="cls-2" d="M75.89,269.7h7.47v26.92H40.62v-8.9c11.55-.63,23.3.52,35.27-.75Z"/><path class="cls-2" d="M275.86,66.93c6.64,27.79,11.89,56.06,18,84.61H277.74l-2.81-13.46a35.9,35.9,0,0,0-14.47.3l-3,13.17H243.15a65.65,65.65,0,0,1,.67-7.67c1-5,2.41-9.91,3.52-14.89.75-3.39,1.25-6.84,1.91-10.25,1.54-8,3-15.91,4.67-23.84,1.88-9.22,3.88-18.41,5.9-28Zm-3.56,56.48-4.45-29.66c-1.41,9.86-4.82,19.4-4,29.66Z"/><path class="cls-1" d="M272.29,123.4h-8.48c-.8-10.26,2.62-19.8,4-29.66Z"/></g></g></g></g></svg>