<svg xmlns="http://www.w3.org/2000/svg" viewBox="0 0 476.3 749.53"><defs><style>.cls-1{fill:#ef4148;}.cls-2{fill:#282627;}</style></defs><title>Asset 12</title><g id="Layer_2" data-name="Layer 2"><g id="Left-Desktop"><g id="International"><g id="IntroRight"><path class="cls-1" d="M111.81,33.69h88.38q-.27,357.92-.54,715.84H110.17c0-2.64,0-4.91,0-7.18q.22-61.73.43-123.46.13-48,.11-96,0-34.23,0-68.46c0-23.14,0-46.28,0-69.42,0-14.33.32-28.65.35-43,.07-33.47,0-66.94.08-100.41q.07-59.71.2-119.42c.07-28,.25-56,.37-84C111.81,37,111.81,35.64,111.81,33.69Z"/><path class="cls-1" d="M.3,27.82c0-7.81,0-15.46,0-23.11C.35.59.76.18,5,.18c16.33,0,32.66,0,49,0q72-.08,143.95-.19c29.83,0,59.65.06,89.48.08C295.22.09,303,0,310.88,0c1.14,0,2.27.11,3.8.18V27.6C309.8,29.16,8.09,29.52.3,27.82Z"/><path class="cls-2" d="M300.34,392.28c-4.36,0-8.6,1.22-11.06-.35s-3.08-5.9-4.47-9c-1.71-3.88-3.37-7.79-5.05-11.68l-1.08.19v21.22h-7.36v-32H283l8.35,19.77,1.22-.2V360.22h7.8Z"/><path class="cls-2" d="M93.15,680.85c1.89-6,.13-12.39,1.28-19l7.06-.52v32.07H89.9l-8.36-20-1.34.28v20.15H72.95V661.92H84.47l7.69,18.81Z"/><path class="cls-2" d="M405.7,173.48v21.14h-7.25v-32h11.47L418.14,183l1.09-.09V162.71h7.57v31.8a7.07,7.07,0,0,1-1.61.51c-9.71.3-9.71.3-13.28-8.8q-2.51-6.4-5-12.81Z"/><path class="cls-2" d="M288,80.93V49c6.4-1.05,12.69-1.35,18.9,0,5.7,1.27,9.34,4.84,10.18,10.84a37.47,37.47,0,0,1,.52,4.45c.19,10-4.69,15.7-14.62,16.51C298.21,81.26,293.37,80.93,288,80.93Zm8.59-25.68V74c3.82,1.25,7.42.85,10-2.7a10.84,10.84,0,0,0,.83-12.14C305.56,55.48,302.58,54.4,296.59,55.25Z"/><path class="cls-2" d="M263.24,420.11c6.6,3.86,3.85,10.44,6.22,15.77H260.2c-.26-2.12-.48-3.91-.69-5.69-.69-6-1-6.26-7.58-5.91V435.8h-8.28V404.14c5.5,0,11.3-.32,17,.12,3.54.27,6.85,2.06,7.8,6C269.56,414.56,267.34,417.57,263.24,420.11Zm-11.18-9.74v7c2.88.52,5.49.72,7.05-1.61a4.4,4.4,0,0,0,0-4C257.41,409.46,254.77,410.1,252.06,410.37Z"/><path class="cls-1" d="M54.38,48.07h8.23v12.2h9.47l.71-12.13H80.3V79.88h-8V67.24h-10V79.9H54.38Z"/><path class="cls-2" d="M370.22,220.3c-.07-11.63,9.13-18.74,20.63-15.45,4.58,1.31,7,4.56,8.46,8.44,2.25,5.93,2.3,12.12-1,17.77-3.15,5.45-8.28,7.4-14.42,6.86s-10.35-3.42-12-9.43C371.12,225.82,370.76,223,370.22,220.3Zm21.93,1.45a50.69,50.69,0,0,0-1.15-7.22,5.79,5.79,0,0,0-5.64-4.15c-2.77-.13-4.22,1.64-5.12,3.95a17.43,17.43,0,0,0,.49,14c1,2.15,2.71,3.73,5,3.19,1.74-.4,3.86-1.53,4.66-3C391.59,226.48,391.68,223.84,392.15,221.74Z"/><path class="cls-1" d="M259.16,81.77H250.4c-.17-2.28-.34-4.36-.48-6.45-.35-5.4-1.71-6.33-8-4.92V81.73H234.3V49.8c5.58,0,11-.34,16.4.09,5.6.45,7.75,2.63,8.61,7.24.41,2.23-2,6.2-5.07,8.33C258.12,69.9,258.55,71.28,259.16,81.77ZM242.28,62.86c3.06.29,5.94,1.38,7.65-1.49a4.37,4.37,0,0,0-.19-4c-2-2.29-4.67-1.65-7.46-.89Z"/><path class="cls-2" d="M456.56,150.89h-9.29c-3.31-6.6-3.31-6.61-11.15-6.43-.82,0-1.64.1-2.7.17l-2.48,6h-8c3.55-10.17,7-20,10.38-29.79a3.41,3.41,0,0,1,3.67-2.66,29.47,29.47,0,0,1,5.46.22,4.36,4.36,0,0,1,2.8,2.17C449,130.42,452.65,140.35,456.56,150.89Zm-21.12-13.17h7.16c-1.21-3.8-1.24-7.58-3.89-11.21Z"/><path class="cls-2" d="M306.31,340.48l-1.89,5.71h-8.31l11.53-32h10.25l11.67,32.33h-9.28l-2.2-6ZM313,322.26l-1,.12-3.55,11.17H316Z"/><path class="cls-2" d="M237.78,447.35v5.73H224.23V460h12.23v6.3H224.19v7h13.4v6.21H215.89V447.35Z"/><path class="cls-2" d="M349.41,279.4v6.31l-8.49.49v25.61h-8.62V286l-9.17-.43-.36-5.32C331.63,278.3,340.45,280.23,349.41,279.4Z"/><path class="cls-2" d="M454.92,82.2h8v25.68H476.3v6.41H454.92Z"/><path class="cls-2" d="M0,54.42v-6H25.48V54l-8.65.38V80.12H8.5V54.42Z"/><path class="cls-2" d="M52.7,732.94V701.09h7.61v31.84Z"/><path class="cls-2" d="M357,242.45h7.71v32.16H357Z"/></g></g></g></g></svg>