<svg xmlns="http://www.w3.org/2000/svg" viewBox="0 0 126.46 195.26"><defs><style>.cls-1{fill:#eb3e3e;}.cls-2{fill:#181616;}.cls-3{fill:none;}</style></defs><title>Asset 8</title><g id="Layer_2" data-name="Layer 2"><g id="Layer_1-2" data-name="Layer 1"><path class="cls-1" d="M2.06,83.13C.63,54.43,25.56,32.48,51.63,32.68c27.77.22,50,25.46,49.72,48.5-.46,32.44-25.36,50.52-50.4,50.88C21.83,132.49,1,107.27,2.06,83.13Zm8.28-.69C9.53,104.24,28.76,122.47,51,122A41,41,0,0,0,90.67,80.93c.17-19.27-17.71-40-41.39-39.45C27.91,42,9.89,58.42,10.34,82.43Z"/><path class="cls-2" d="M66.85,9.82c-1.36,6.82-6.36,9.47-16.61,7.39-.09-4.12-.15-8.36-.3-12.61a2.66,2.66,0,0,1,2.6-3,34.86,34.86,0,0,1,8.32-.09c3.67.59,5.84,3,5.75,6.31C68.09,6,69.46,3.33,71.64,2,73.57.85,76.46.68,78.82,1c3.91.5,7.13,4.57,7,8s-4.17,8-7.78,8.53C72,18.37,69.39,16.56,66.85,9.82Zm10.24,1.84a8.18,8.18,0,0,0,2.05-2.27c.52-1.25-1.07-2.75-2.6-2.81C74.84,6.53,74.21,7.68,74,9,73.83,10.61,74.84,11.37,77.08,11.66ZM56.94,6.32v5.84c2,.68,2.65-.39,3-1.76C60.48,8.5,59.64,7.3,56.94,6.32Z"/><path class="cls-2" d="M12.07,13.88c.27,4.08-1.6,4.8-4.37,4.64-2.44-.14-4.9,0-7.71,0V3.36c1.5-1.51,3.43-1.57,5.76-.2L6.6,12.5l5.38.57c.69-8,2.72-10.59,8.68-11.28,4.26-.49,7.72,1.54,9.11,5.34a8.34,8.34,0,0,1-3.83,10.26C21.08,20.32,17.51,19.58,12.07,13.88ZM21,6.44c-1.11,2-2.12,3-2.16,4a2,2,0,0,0,2.67,2.06,3,3,0,0,0,1.74-2.32C23.19,9.21,22.17,8.27,21,6.44Z"/><path class="cls-2" d="M94.21,12.8l-1,4.13-5.62.26V1.82c4.43-2.68,6.81,0,9.06,2.74,1.09-1.48,1.77-3.28,3.06-4C102.21-.81,104,.38,104,3.2c.08,4.14,0,8.28,0,12.34-4.48,2.54-7.08.44-9-3.74Z"/><path class="cls-2" d="M43,18.12l-4.17-4.89-.57,4.44H32.33V2.58C37.4.9,37.57,1,41.27,5.52l1.35-3.79H48V17.31Z"/><path class="cls-1" d="M49.9,48.2c21.38-1,35,18,34.49,32.93-.64,20.34-16.25,34.49-34.69,34.38-16.93-.1-34.42-14.33-33.2-34.52C17.49,64.49,27.34,47.69,49.9,48.2Z"/><rect class="cls-3" width="126.46" height="195.26"/></g></g></svg>