<svg xmlns="http://www.w3.org/2000/svg" viewBox="0 0 171.23 216.24"><defs><style>.cls-1{fill:none;}.cls-2{fill:#3a1b0e;}.cls-3{fill:#e42925;}.cls-4{fill:#ee7c35;}</style></defs><title>Asset 3</title><g id="Layer_2" data-name="Layer 2"><g id="Layer_1-2" data-name="Layer 1"><path class="cls-1" d="M22.3,66.21q0-.59.09-1.18Q22.34,65.62,22.3,66.21Z"/><path class="cls-1" d="M22.89,61.09c.06-.37.13-.75.2-1.12Q23,60.53,22.89,61.09Z"/><path class="cls-1" d="M22.53,63.62q.07-.57.14-1.14C22.62,62.86,22.58,63.24,22.53,63.62Z"/><path class="cls-1" d="M78.19,119.72c-.44,0-.89.06-1.33.09C77.31,119.78,77.75,119.76,78.19,119.72Z"/><path class="cls-1" d="M22.21,68.19q0,.68,0,1.36c0-.66,0-1.31,0-2C22.23,67.79,22.21,68,22.21,68.19Z"/><path class="cls-1" d="M75.64,119.89c-.43,0-.87,0-1.31,0C74.77,119.91,75.21,119.91,75.64,119.89Z"/><path class="cls-1" d="M23.36,58.61c.08-.37.17-.75.26-1.12Q23.48,58,23.36,58.61Z"/><path class="cls-1" d="M26.4,49.22c.17-.39.34-.78.52-1.17C26.74,48.44,26.57,48.83,26.4,49.22Z"/><path class="cls-1" d="M25.47,51.5c.15-.39.3-.78.46-1.16Q25.69,50.91,25.47,51.5Z"/><path class="cls-1" d="M24.66,53.82c.12-.39.25-.77.39-1.15Q24.84,53.24,24.66,53.82Z"/><path class="cls-1" d="M24,56.19c.1-.38.21-.76.32-1.13Q24.11,55.62,24,56.19Z"/><path class="cls-1" d="M92.6,116.14l-1.12.43Z"/><path class="cls-1" d="M80.7,119.42c-.44.06-.88.11-1.33.16C79.82,119.52,80.27,119.48,80.7,119.42Z"/><path class="cls-1" d="M97,114.05l-1,.53C96.3,114.41,96.65,114.24,97,114.05Z"/><path class="cls-1" d="M101.15,111.57c-.32.22-.66.42-1,.63C100.49,112,100.82,111.79,101.15,111.57Z"/><path class="cls-1" d="M27.43,47q.29-.59.59-1.16Q27.72,46.42,27.43,47Z"/><path class="cls-1" d="M99.11,112.86c-.33.2-.68.39-1,.58C98.43,113.25,98.77,113.06,99.11,112.86Z"/><path class="cls-1" d="M94.83,115.15l-1.08.48Z"/><path class="cls-1" d="M83.18,119c-.43.09-.87.15-1.3.23C82.31,119.14,82.75,119.08,83.18,119Z"/><path class="cls-1" d="M90.32,117l-1.16.39Z"/><path class="cls-1" d="M85.6,118.45c-.42.1-.84.19-1.26.28C84.76,118.64,85.19,118.55,85.6,118.45Z"/><path class="cls-1" d="M88,117.79c-.4.12-.81.23-1.21.34C87.18,118,87.59,117.91,88,117.79Z"/><path class="cls-1" d="M103.13,110.19c-.31.23-.64.45-1,.67C102.49,110.64,102.81,110.42,103.13,110.19Z"/><path class="cls-1" d="M123.45,72.73c0,.41-.07.81-.1,1.22C123.39,73.54,123.43,73.14,123.45,72.73Z"/><path class="cls-1" d="M114.79,98.12c-.23.34-.48.67-.73,1C114.3,98.79,114.55,98.46,114.79,98.12Z"/><path class="cls-1" d="M113.38,100.07c-.25.33-.51.64-.76,1C112.87,100.71,113.13,100.4,113.38,100.07Z"/><path class="cls-1" d="M116.1,96.09c-.22.35-.45.7-.68,1C115.65,96.79,115.89,96.45,116.1,96.09Z"/><path class="cls-1" d="M119.47,89.63c-.16.38-.35.75-.52,1.13C119.12,90.39,119.3,90,119.47,89.63Z"/><path class="cls-1" d="M118.45,91.85c-.18.38-.38.74-.58,1.11C118.06,92.59,118.26,92.22,118.45,91.85Z"/><path class="cls-1" d="M117.33,94c-.2.37-.42.72-.63,1.08C116.91,94.72,117.12,94.37,117.33,94Z"/><path class="cls-1" d="M106.86,107.15c-.29.26-.6.51-.9.77C106.26,107.66,106.57,107.41,106.86,107.15Z"/><path class="cls-1" d="M108.61,105.5c-.28.28-.58.54-.86.81C108,106,108.33,105.78,108.61,105.5Z"/><path class="cls-1" d="M111.87,102c-.26.31-.53.61-.8.91C111.34,102.57,111.61,102.27,111.87,102Z"/><path class="cls-1" d="M110.28,103.77c-.27.29-.55.58-.83.86C109.73,104.34,110,104.06,110.28,103.77Z"/><path class="cls-1" d="M72.8,14.44A54.14,54.14,0,0,1,94.55,19,54.1,54.1,0,0,0,72.8,14.42a54.87,54.87,0,0,0-54.64,54.8h0A54.87,54.87,0,0,1,72.8,14.44Z"/><path class="cls-1" d="M123.54,70.22v-.14c0,.45,0,.89,0,1.33C123.51,71,123.54,70.62,123.54,70.22Z"/><path class="cls-1" d="M105,108.71c-.3.25-.62.48-.93.72C104.41,109.19,104.72,109,105,108.71Z"/><path class="cls-1" d="M123.24,75.27c0,.4-.1.79-.16,1.19C123.14,76.07,123.2,75.67,123.24,75.27Z"/><path class="cls-1" d="M121.87,82.67c-.1.39-.22.77-.33,1.15C121.65,83.43,121.77,83.05,121.87,82.67Z"/><path class="cls-1" d="M121.18,85c-.12.39-.26.77-.4,1.15C120.92,85.81,121.06,85.43,121.18,85Z"/><path class="cls-1" d="M122.91,77.78c-.06.39-.14.78-.22,1.17C122.76,78.56,122.85,78.17,122.91,77.78Z"/><path class="cls-1" d="M120.38,87.36c-.14.39-.31.77-.46,1.15C120.07,88.13,120.23,87.75,120.38,87.36Z"/><path class="cls-1" d="M122.45,80.25c-.08.39-.18.77-.27,1.15C122.27,81,122.37,80.63,122.45,80.25Z"/><path class="cls-1" d="M103.86,82.68c-.12.28-.23.56-.35.83C103.64,83.24,103.75,83,103.86,82.68Z"/><path class="cls-1" d="M91.76,97.38l-.41.28Z"/><path class="cls-1" d="M96.81,93.23l-.54.54Z"/><path class="cls-1" d="M95.61,94.37l-.5.45Z"/><path class="cls-1" d="M94.36,95.45l-.46.38Z"/><path class="cls-1" d="M87.7,99.69l-.54.26Z"/><path class="cls-1" d="M89.07,99l-.47.25Z"/><path class="cls-1" d="M90.42,98.23l-.42.26Z"/><path class="cls-1" d="M101.78,86.82c-.18.3-.35.6-.54.89C101.43,87.42,101.61,87.12,101.78,86.82Z"/><path class="cls-1" d="M102.55,85.47c-.16.3-.32.6-.48.89C102.23,86.06,102.39,85.77,102.55,85.47Z"/><path class="cls-1" d="M86.3,100.32l-.63.26Z"/><path class="cls-1" d="M97.95,92l-.57.63Z"/><path class="cls-1" d="M103.24,84.08c-.14.29-.27.58-.42.87C103,84.67,103.1,84.38,103.24,84.08Z"/><path class="cls-1" d="M99,90.78c-.2.24-.39.48-.59.72C98.63,91.26,98.82,91,99,90.78Z"/><path class="cls-1" d="M100,89.49c-.2.27-.39.53-.6.8C99.63,90,99.82,89.75,100,89.49Z"/><path class="cls-1" d="M100.94,88.16c-.19.29-.38.58-.58.86C100.56,88.74,100.75,88.45,100.94,88.16Z"/><path class="cls-1" d="M93.08,96.45l-.43.32Z"/><path class="cls-1" d="M74.08,18.81c25.61.37,49.54,21.61,49.46,51.26C123.63,40.42,99.69,19.18,74.08,18.81Z"/><path class="cls-1" d="M42.12,82.87c5,11.8,16.31,19.8,30.58,20C58.46,102.65,47.12,94.65,42.12,82.87Z"/><path class="cls-1" d="M77.19,102.69l-1.07.11Z"/><path class="cls-1" d="M82,101.8,81,102Z"/><path class="cls-1" d="M80.43,102.17l-1,.21Z"/><path class="cls-1" d="M83.45,101.37l-.84.26Z"/><path class="cls-1" d="M75.46,102.83l-1,0Z"/><path class="cls-1" d="M78.85,102.46l-1.07.16Z"/><path class="cls-1" d="M84.89,100.88l-.73.27Z"/><polygon class="cls-1" points="72.93 102.89 72.94 102.89 72.93 102.89 72.93 102.89"/><path class="cls-1" d="M106.38,70.68q0-.7,0-1.41c0,.51,0,1,0,1.53C106.38,70.76,106.38,70.72,106.38,70.68Z"/><path class="cls-1" d="M105.69,76.81c0,.19-.07.37-.11.56C105.61,77.18,105.65,77,105.69,76.81Z"/><path class="cls-1" d="M104.9,79.82c-.07.23-.14.46-.21.69C104.77,80.28,104.83,80.05,104.9,79.82Z"/><path class="cls-1" d="M106.33,71.82c0,.21,0,.43,0,.64C106.32,72.25,106.32,72,106.33,71.82Z"/><path class="cls-1" d="M106,75.22c0,.18-.05.36-.08.53C105.93,75.57,105.95,75.4,106,75.22Z"/><path class="cls-1" d="M105.33,78.34c-.05.2-.1.41-.16.61C105.23,78.75,105.27,78.54,105.33,78.34Z"/><path class="cls-1" d="M106.2,73.56c0,.18,0,.37-.06.55C106.16,73.93,106.18,73.75,106.2,73.56Z"/><path class="cls-1" d="M104.42,81.27c-.09.25-.18.51-.28.76C104.24,81.78,104.32,81.52,104.42,81.27Z"/><path class="cls-2" d="M94.55,19A54.14,54.14,0,0,0,72.8,14.44,54.87,54.87,0,0,0,18.16,69.23c-.09,30.14,24.83,55.07,55,55,30,0,54.62-24.47,54.64-54.2A55.72,55.72,0,0,0,94.55,19Zm29,51.25c0,.4,0,.79,0,1.19s0,.88,0,1.32-.07.81-.1,1.22-.06.89-.11,1.33-.1.79-.16,1.19-.11.88-.18,1.32-.14.78-.22,1.17-.15.87-.24,1.3-.18.77-.27,1.15-.19.85-.3,1.27-.22.77-.33,1.15-.23.82-.36,1.22-.26.77-.4,1.15-.26.78-.41,1.17-.31.76-.46,1.15-.29.75-.45,1.12-.35.75-.52,1.13-.33.73-.5,1.08-.38.74-.58,1.11-.35.7-.54,1-.42.72-.63,1.08-.39.68-.59,1-.45.7-.68,1-.42.66-.64,1-.48.67-.73,1-.45.64-.68.95-.51.64-.76,1-.49.62-.74.92-.53.61-.8.91-.52.61-.79.9-.55.58-.83.86-.55.58-.84.87-.58.54-.86.81-.59.56-.89.83-.6.51-.9.77-.62.54-.93.79-.62.48-.93.72-.64.51-1,.75-.64.45-1,.67-.67.48-1,.71-.66.42-1,.63-.7.45-1.05.66-.68.39-1,.58-.72.42-1.09.62-.7.35-1,.53-.74.38-1.12.56l-1.08.48c-.38.17-.76.35-1.15.51l-1.12.43c-.39.15-.77.31-1.16.45l-1.16.39c-.39.13-.78.27-1.17.39s-.81.22-1.21.34l-1.17.32c-.42.1-.84.19-1.26.28l-1.16.26c-.43.09-.87.15-1.3.23l-1.17.2c-.44.06-.88.11-1.33.16l-1.19.14c-.44,0-.89.06-1.33.09l-1.22.08c-.43,0-.87,0-1.31,0s-.8,0-1.2,0H73c-27.88,0-50.83-22.83-50.8-50.4q0-.68,0-1.36c0-.2,0-.4,0-.6q0-.69.07-1.37T22.39,65q.06-.71.14-1.41c0-.38.09-.76.14-1.14s.14-.93.21-1.4.13-.75.2-1.12.18-.91.28-1.36.17-.75.26-1.12.22-.87.34-1.31.21-.76.32-1.13.25-.83.39-1.24.25-.77.39-1.15.28-.78.43-1.17.3-.78.46-1.16.31-.74.47-1.11.34-.78.52-1.17.33-.7.51-1,.39-.78.59-1.16l.54-1c.21-.39.43-.77.66-1.15l.58-1c.23-.37.47-.75.71-1.11l.63-.93c.25-.36.5-.72.76-1.07l.68-.9.8-1,.73-.88.83-1,.79-.87.85-.9.85-.85.87-.84.92-.83.89-.77,1-.81.9-.71,1-.78.92-.66L45,27.11,46,26.5l1.13-.69,1-.56,1.16-.63,1-.52,1.18-.57,1.06-.48,1.18-.5,1.12-.44L56,21.69l1.18-.4,1.16-.36,1.25-.36,1.14-.29L62,20l1.13-.23,1.37-.25,1.12-.17,1.4-.18L68.15,19l1.41-.11,1.18-.06,1.38,0,.6,0,1.36,0c25.61.37,49.55,21.61,49.46,51.26Z"/><path class="cls-2" d="M73.16,124.22c-30.17.08-55.09-24.85-55-55h0c-.12,30.12,24.82,55.06,55,55,30-.06,54.64-24.49,54.64-54.22C127.78,99.75,103.17,124.18,73.16,124.22Z"/><path class="cls-2" d="M94.55,19A55.72,55.72,0,0,1,127.8,70,55.61,55.61,0,0,0,94.55,19Z"/><path class="cls-3" d="M74.08,18.81c-.66,0-1.31,0-2,0l-1.38,0-1.18.06L68.15,19,67,19.14l-1.4.18-1.12.17-1.37.25L62,20l-1.31.31-1.14.29-1.25.36-1.16.36-1.18.4-1.17.43-1.12.44-1.18.5-1.06.48-1.18.57-1,.52-1.16.63-1,.56L46,26.5l-.94.61L44,27.84,43,28.5l-1,.78-.9.71-1,.81-.89.77-.92.83-.87.84-.85.85-.85.9-.79.87-.83,1-.73.88-.8,1-.68.9q-.39.53-.76,1.07l-.63.93q-.36.55-.71,1.11l-.58,1c-.22.38-.44.76-.66,1.15s-.37.66-.54,1-.4.77-.59,1.16-.34.7-.51,1-.35.78-.52,1.17-.32.74-.47,1.11-.31.77-.46,1.16-.29.78-.43,1.17-.26.77-.39,1.15-.26.82-.39,1.24-.22.75-.32,1.13-.23.87-.34,1.31-.17.74-.26,1.12-.19.91-.28,1.36-.14.74-.2,1.12-.15.93-.21,1.4-.1.76-.14,1.14-.1.94-.14,1.41-.06.79-.09,1.18-.05.91-.07,1.37c0,.65,0,1.3,0,2,0,27.56,22.93,50.4,50.8,50.4.45,0,.9,0,1.34,0s.88,0,1.31,0l1.22-.08c.44,0,.89-.05,1.33-.09l1.19-.14c.44-.05.89-.1,1.33-.16l1.17-.2c.43-.07.87-.14,1.3-.23l1.16-.26c.42-.09.85-.18,1.26-.28l1.17-.32c.4-.11.81-.22,1.21-.34s.78-.26,1.17-.39l1.16-.39c.39-.14.78-.3,1.16-.45l1.12-.43c.39-.16.76-.34,1.15-.51l1.08-.48c.38-.18.75-.37,1.12-.56l1-.53c.37-.2.73-.41,1.09-.62s.68-.38,1-.58.7-.44,1.05-.66.66-.41,1-.63.68-.47,1-.71.64-.44,1-.67.65-.5,1-.75.63-.48.93-.72.62-.53.93-.79.6-.51.9-.77.59-.56.89-.83.58-.54.86-.81.56-.58.84-.87.56-.57.83-.86.53-.6.79-.9.54-.6.8-.91.49-.62.74-.92.52-.63.76-1,.46-.63.68-.95.49-.67.73-1,.43-.65.64-1,.46-.69.68-1,.39-.67.59-1,.43-.72.63-1.08.36-.69.54-1,.39-.74.58-1.11.33-.72.5-1.08.35-.75.52-1.13.3-.75.45-1.12.31-.76.46-1.15.27-.78.41-1.17.27-.76.4-1.15.24-.82.36-1.22.23-.76.33-1.15.2-.85.3-1.27.19-.76.27-1.15.16-.86.24-1.3.15-.78.22-1.17.12-.88.18-1.32.11-.79.16-1.19.08-.88.11-1.33.08-.81.1-1.22,0-.88,0-1.32,0-.89,0-1.33C123.62,40.42,99.69,19.18,74.08,18.81Zm32.3,51.87s0,.09,0,.13c0,.34,0,.68,0,1s0,.43,0,.64c0,.37-.07.73-.1,1.1,0,.18,0,.37-.06.55,0,.37-.1.74-.16,1.1,0,.18-.05.36-.08.53-.06.35-.14.7-.21,1.05,0,.19-.07.37-.11.56s-.16.65-.24,1-.1.41-.16.61-.17.58-.27.87-.14.46-.21.69-.18.51-.27.76-.18.51-.28.76-.18.44-.27.65-.23.56-.35.83-.18.38-.27.57-.27.58-.42.87l-.27.51c-.16.3-.32.6-.48.89l-.28.47c-.18.3-.35.6-.54.89l-.3.45c-.19.29-.38.58-.58.86l-.34.47c-.2.27-.39.54-.6.8l-.4.5c-.2.24-.39.48-.59.72l-.48.53-.57.63-.57.57-.54.54-.66.6-.5.45-.75.63-.46.38-.83.63-.43.32-.9.61-.41.28-.93.57-.42.26-.93.51-.47.25-.9.44-.54.26-.86.37-.63.26-.79.29-.73.27-.71.23-.84.26-.64.17L81,102l-.59.12-1,.21-.56.09-1.07.16-.58.06-1.07.11-.67,0-1,0h-.13q-.7,0-1.4,0h-.23c-14.28-.22-25.6-8.22-30.58-20A35.72,35.72,0,0,1,39.34,68.7c.08-17.82,14.19-33,34.1-33.25h.09c15.92-.15,33.75,14.45,32.85,33.82Q106.4,70,106.38,70.68Z"/><path class="cls-3" d="M25.93,50.33c.15-.37.31-.74.47-1.11Q26.16,49.77,25.93,50.33Z"/><path class="cls-3" d="M122.18,81.4c-.1.42-.19.85-.3,1.27C122,82.25,122.08,81.82,122.18,81.4Z"/><path class="cls-3" d="M121.54,83.82c-.12.41-.23.82-.36,1.22C121.31,84.64,121.42,84.22,121.54,83.82Z"/><path class="cls-3" d="M123.5,71.41c0,.44,0,.88,0,1.32C123.48,72.29,123.49,71.85,123.5,71.41Z"/><path class="cls-3" d="M123.09,76.46c-.06.44-.11.88-.18,1.32C123,77.34,123,76.9,123.09,76.46Z"/><path class="cls-3" d="M122.69,78.95c-.08.43-.15.87-.24,1.3C122.54,79.82,122.61,79.38,122.69,78.95Z"/><path class="cls-3" d="M81.87,119.22l-1.17.2Z"/><path class="cls-3" d="M123.36,73.94c0,.44-.06.89-.11,1.33C123.29,74.83,123.32,74.39,123.36,73.94Z"/><path class="cls-3" d="M84.34,118.73l-1.16.26Z"/><path class="cls-3" d="M26.92,48.06c.16-.35.33-.7.51-1Q27.17,47.53,26.92,48.06Z"/><path class="cls-3" d="M23.09,60q.13-.68.28-1.36Q23.22,59.29,23.09,60Z"/><path class="cls-3" d="M22.68,62.49q.1-.7.21-1.4Q22.77,61.78,22.68,62.49Z"/><path class="cls-3" d="M22.24,67.59q0-.69.07-1.37Q22.26,66.9,22.24,67.59Z"/><path class="cls-3" d="M89.16,117.4c-.39.13-.78.27-1.17.39C88.38,117.67,88.77,117.53,89.16,117.4Z"/><path class="cls-3" d="M22.39,65q.06-.71.14-1.41Q22.45,64.32,22.39,65Z"/><path class="cls-3" d="M79.38,119.58l-1.19.14Z"/><path class="cls-3" d="M25,52.66c.14-.39.28-.78.43-1.17Q25.25,52.08,25,52.66Z"/><path class="cls-3" d="M24.27,55.06q.18-.62.39-1.24Q24.46,54.43,24.27,55.06Z"/><path class="cls-3" d="M73.13,119.94c.4,0,.8,0,1.2,0-.45,0-.89,0-1.34,0Z"/><path class="cls-3" d="M23.62,57.49q.16-.66.34-1.31Q23.78,56.84,23.62,57.49Z"/><path class="cls-3" d="M76.86,119.81l-1.22.08Z"/><path class="cls-3" d="M120.79,86.19c-.13.39-.26.78-.41,1.17C120.52,87,120.65,86.58,120.79,86.19Z"/><path class="cls-3" d="M100.16,112.2c-.35.22-.7.45-1.05.66C99.46,112.65,99.81,112.42,100.16,112.2Z"/><path class="cls-3" d="M104.1,109.43c-.32.25-.64.51-1,.75C103.46,109.94,103.77,109.68,104.1,109.43Z"/><path class="cls-3" d="M102.17,110.86c-.34.24-.67.48-1,.71C101.49,111.34,101.83,111.1,102.17,110.86Z"/><path class="cls-3" d="M107.75,106.31c-.3.28-.59.56-.89.83C107.16,106.88,107.45,106.59,107.75,106.31Z"/><path class="cls-3" d="M106,107.92c-.31.27-.62.54-.93.79C105.35,108.45,105.65,108.18,106,107.92Z"/><path class="cls-3" d="M91.48,116.57c-.39.15-.77.31-1.16.45C90.71,116.88,91.1,116.72,91.48,116.57Z"/><path class="cls-3" d="M109.45,104.63c-.28.29-.55.58-.84.87C108.9,105.21,109.17,104.92,109.45,104.63Z"/><path class="cls-3" d="M93.75,115.63c-.38.17-.76.35-1.15.51C93,116,93.37,115.8,93.75,115.63Z"/><path class="cls-3" d="M98.09,113.44c-.36.21-.72.42-1.09.62C97.37,113.86,97.73,113.64,98.09,113.44Z"/><path class="cls-3" d="M96,114.58c-.37.19-.74.38-1.12.56C95.21,115,95.58,114.77,96,114.58Z"/><path class="cls-3" d="M119.92,88.51c-.15.37-.29.75-.45,1.12C119.63,89.26,119.77,88.88,119.92,88.51Z"/><path class="cls-3" d="M116.7,95.08c-.2.34-.39.68-.59,1C116.31,95.76,116.5,95.42,116.7,95.08Z"/><path class="cls-3" d="M86.78,118.13l-1.17.32Z"/><path class="cls-3" d="M117.87,93c-.18.35-.35.7-.54,1C117.52,93.66,117.69,93.31,117.87,93Z"/><path class="cls-3" d="M28,45.85c.18-.33.36-.67.54-1Z"/><path class="cls-3" d="M118.95,90.76c-.17.36-.33.73-.5,1.08C118.62,91.49,118.78,91.12,118.95,90.76Z"/><path class="cls-3" d="M115.43,97.14c-.21.33-.42.66-.64,1C115,97.8,115.21,97.46,115.43,97.14Z"/><path class="cls-3" d="M114.06,99.13c-.23.32-.45.64-.68.95C113.61,99.76,113.83,99.44,114.06,99.13Z"/><path class="cls-3" d="M111.08,102.87c-.26.3-.52.61-.79.9C110.56,103.47,110.81,103.17,111.08,102.87Z"/><path class="cls-3" d="M22.19,69.54c0,27.57,22.92,50.4,50.8,50.4C45.12,119.94,22.17,97.1,22.19,69.54Z"/><path class="cls-3" d="M112.61,101c-.25.31-.49.62-.74.92C112.13,101.66,112.37,101.34,112.61,101Z"/><path class="cls-4" d="M73.53,35.45h-.09c-19.91.26-34,15.43-34.1,33.25a35.82,35.82,0,0,0,2.77,14.16c5,11.79,16.34,19.78,30.58,20h.23c.51,0,1,0,1.53,0l1,0,.67,0,1.07-.11.58-.06,1.07-.16.56-.09,1-.21L81,102l.94-.24.64-.17.84-.26.71-.23.73-.27.79-.29.63-.26.86-.37.54-.26.9-.44.47-.25.93-.51.42-.26.93-.57.41-.28.9-.61.43-.32.83-.63.46-.38.75-.63.5-.45.66-.6.54-.54.57-.57.57-.63.48-.53c.2-.23.4-.48.59-.72l.4-.5c.2-.26.4-.53.6-.8l.34-.47c.2-.28.39-.57.58-.86l.3-.45c.19-.29.36-.59.54-.89l.28-.47c.17-.29.32-.59.48-.89l.27-.51c.15-.29.28-.58.42-.87s.18-.38.27-.57.24-.55.35-.83.19-.43.27-.65.19-.51.28-.76.19-.5.27-.76.14-.46.21-.69.18-.58.27-.87.11-.41.16-.61.17-.65.24-1,.08-.37.11-.56c.07-.35.15-.7.21-1.05,0-.18.05-.36.08-.53.06-.37.12-.73.16-1.1,0-.18,0-.37.06-.55,0-.36.08-.73.1-1.1,0-.21,0-.43,0-.64s0-.68,0-1c0-.51,0-1,0-1.53C107.26,49.9,89.38,35.33,73.53,35.45Z"/><path class="cls-4" d="M85.68,100.58l-.79.29Z"/><path class="cls-4" d="M102.82,85l-.27.51Z"/><path class="cls-4" d="M87.16,100l-.86.37Z"/><path class="cls-4" d="M84.16,101.15l-.71.23Z"/><path class="cls-4" d="M73.53,35.45c15.85-.13,33.72,14.44,32.85,33.82C107.29,49.9,89.45,35.3,73.53,35.45Z"/><path class="cls-4" d="M79.41,102.37l-.56.09Z"/><path class="cls-4" d="M105.9,75.75c-.06.35-.14.7-.21,1.05C105.76,76.46,105.83,76.11,105.9,75.75Z"/><path class="cls-4" d="M81,102l-.59.12Z"/><path class="cls-4" d="M106.14,74.12c0,.37-.1.74-.16,1.1C106,74.85,106.09,74.49,106.14,74.12Z"/><path class="cls-4" d="M103.51,83.51c-.09.19-.18.38-.27.57C103.33,83.89,103.43,83.71,103.51,83.51Z"/><path class="cls-4" d="M88.6,99.25l-.9.44Z"/><path class="cls-4" d="M92.65,96.77l-.9.61Z"/><path class="cls-4" d="M93.91,95.83l-.83.63Z"/><path class="cls-4" d="M91.35,97.66l-.93.57Z"/><path class="cls-4" d="M105.57,77.36c-.07.33-.16.65-.24,1C105.41,78,105.5,77.69,105.57,77.36Z"/><path class="cls-4" d="M77.78,102.63l-.58.06Z"/><path class="cls-4" d="M90,98.49l-.93.51Z"/><path class="cls-4" d="M95.11,94.82l-.75.63Z"/><path class="cls-4" d="M82.61,101.63l-.64.17Z"/><path class="cls-4" d="M72.92,102.89h0Z"/><path class="cls-4" d="M105.17,79c-.08.29-.18.58-.27.87C105,79.53,105.09,79.24,105.17,79Z"/><path class="cls-4" d="M100.36,89l-.34.47Z"/><path class="cls-4" d="M101.24,87.71l-.3.45Z"/><path class="cls-4" d="M97.38,92.66l-.57.57Z"/><path class="cls-4" d="M98.43,91.49l-.48.53Z"/><path class="cls-4" d="M99.42,90.28l-.4.5Z"/><path class="cls-4" d="M73.45,35.45h0c-19.91.25-34,15.43-34.1,33.25a35.72,35.72,0,0,0,2.78,14.16A35.82,35.82,0,0,1,39.35,68.7C39.45,50.88,53.54,35.71,73.45,35.45Z"/><path class="cls-4" d="M74.34,102.89h.13c-.51,0-1,0-1.53,0Q73.64,102.91,74.34,102.89Z"/><path class="cls-4" d="M76.13,102.8l-.67,0Z"/><path class="cls-4" d="M96.27,93.77l-.66.6Z"/><path class="cls-4" d="M104.69,80.51c-.09.26-.18.51-.27.76C104.51,81,104.6,80.76,104.69,80.51Z"/><path class="cls-4" d="M102.06,86.36l-.28.47Z"/><path class="cls-4" d="M106.38,70.81c0,.34,0,.68,0,1C106.35,71.49,106.37,71.15,106.38,70.81Z"/><path class="cls-4" d="M104.14,82c-.09.22-.18.44-.27.65C104,82.47,104.05,82.25,104.14,82Z"/><path class="cls-4" d="M106.3,72.47c0,.37-.07.73-.1,1.1C106.23,73.2,106.27,72.83,106.3,72.47Z"/><path class="cls-1" d="M18.16,69.24c-.12,30.12,24.82,55.06,55,55,30-.06,54.64-24.49,54.64-54.22A55.61,55.61,0,0,0,94.55,19,54.1,54.1,0,0,0,72.8,14.42a54.87,54.87,0,0,0-54.64,54.8h0Z"/><path class="cls-4" d="M0,216.24H171.23V0H0ZM72.8,14.42A54.1,54.1,0,0,1,94.55,19,55.61,55.61,0,0,1,127.8,70c0,29.73-24.64,54.16-54.64,54.22-30.18.06-55.12-24.88-55-55h0A54.87,54.87,0,0,1,72.8,14.42Z"/></g></g></svg>