<svg xmlns="http://www.w3.org/2000/svg" viewBox="0 0 157.63 473.9"><defs><style>.cls-1{fill:none;}.cls-2{fill:#ee7c35;}.cls-3{fill:#e42925;}.cls-4{fill:#3a1b0e;}</style></defs><title>Asset 1</title><g id="Layer_2" data-name="Layer 2"><g id="Layer_1-2" data-name="Layer 1"><path class="cls-1" d="M119.75,390.28s0,.07,0,.11S119.75,390.32,119.75,390.28Z"/><polygon class="cls-1" points="112.11 191.97 110.23 191.97 110.23 191.99 112.12 191.99 112.2 191.23 112.18 191.23 112.11 191.97"/><path class="cls-1" d="M112,394c1.18-.9,1.1-3.22,2.27-4.17h0C113,390.76,113.12,393.08,112,394Z"/><path class="cls-1" d="M116.29,187.46a4.43,4.43,0,0,1,1.43,4.75,4.36,4.36,0,0,0-1.42-4.81c-3.35-2.81-7.32-2.14-11.67-1.46V186C109,185.32,112.93,184.65,116.29,187.46Z"/><path class="cls-1" d="M118.26,395.5a7.81,7.81,0,0,0,1.5-5.11,7.8,7.8,0,0,1-1.52,5.1Z"/><path class="cls-1" d="M117,194.54v0l1,8.67h0Z"/><polygon class="cls-1" points="105.48 395.53 105.51 395.53 106.73 389.75 106.71 389.75 105.48 395.53"/><polygon class="cls-1" points="118.87 384.6 102.01 384.6 102.01 384.61 118.94 384.61 118.87 384.6"/><path class="cls-1" d="M114.61,370.9c-2.12-1.85-3.31-2.55-4.78-2.14,1.45-.39,2.63.31,4.74,2.14-1.59,4-1.69,4.27-1.21,6.22C112.87,375.17,113,374.92,114.61,370.9Z"/><polygon class="cls-1" points="114.5 293.36 114.47 293.43 115.72 299.48 119.45 299.79 119.45 299.79 115.76 299.47 114.5 293.36"/><path class="cls-1" d="M107.09,293.65v.05c1.56,2.37,1.32,5.79,4.56,4.9C108.4,299.47,108.67,296,107.09,293.65Z"/><path class="cls-1" d="M103,321.92l0,0c5.1.94,10.21,3.91,16.46,4l0-.86v.83C113.2,325.83,108.09,322.87,103,321.92Z"/><path class="cls-1" d="M105.5,299.89H102V289a23.5,23.5,0,0,1,4.23-.84,23.55,23.55,0,0,0-4.31.85V299.9h3.57Z"/><path class="cls-1" d="M119,312h0l.14.71Z"/><rect class="cls-1" x="102.92" y="281.41" width="16.45" height="0.02"/><path class="cls-1" d="M102,271.32h0c1.72,1.79,5,.45,5.8,3.24C107,271.77,103.78,273.08,102,271.32Z"/><polygon class="cls-1" points="119.88 267.64 119.88 267.64 119.87 267.72 119.88 267.64"/><path class="cls-1" d="M73.36,322.91l.12-.1Z"/><polygon class="cls-1" points="80.81 296.41 80.83 296.4 76.71 291.68 50.55 311.94 76.71 291.71 80.81 296.41"/><polygon class="cls-1" points="52.46 318.4 48.55 313.49 48.54 313.5 52.46 318.4"/><path class="cls-1" d="M49.45,58.29h-.09v180h.1Z"/><polygon class="cls-1" points="81.01 324.99 81.01 324.99 53.01 346.82 81.01 324.99"/><polygon class="cls-1" points="72.99 63.64 94.49 111.1 94.57 111.06 73.09 63.63 72.99 63.64"/><path class="cls-1" d="M108.45,181.89c-4.73-3.12-5.83-7.3-4.69-12.31.89-3.9,3.15-6.12,6.56-6.43a7.4,7.4,0,0,1,5.29,1.89,7.33,7.33,0,0,0-5.33-1.89c-3.41.31-5.67,2.53-6.56,6.43C102.61,174.59,103.72,178.77,108.45,181.89Z"/><polygon class="cls-1" points="157.61 238.31 157.63 238.31 157.63 238.26 157.63 214 157.61 214 157.61 238.31"/><polygon class="cls-1" points="52.42 332.24 81.13 309.95 81.12 309.94 52.41 332.23 52.42 332.24"/><polygon class="cls-1" points="113.69 252.22 115.93 248.49 115.87 248.48 113.62 252.22 101.17 253.11 102.53 257.77 102.59 257.77 101.24 253.12 113.69 252.22"/><path class="cls-1" d="M108.45,181.89c5,.19,8.59-2.14,10-5.69C117,179.74,113.39,182.08,108.45,181.89Z"/><polygon class="cls-1" points="48.36 327.4 51.74 331.43 48.36 327.4 48.36 327.4"/><polygon class="cls-1" points="105.77 141.9 116.1 141.33 116.1 141.33 105.73 141.9 105.73 159.15 105.77 159.15 105.77 141.9"/><path class="cls-1" d="M109,171a8.05,8.05,0,0,1,2-2.57A7.92,7.92,0,0,0,109,171Z"/><path class="cls-1" d="M96.23,407.47c-.39-23-.06-45.39-.1-67.79q-.06-34,0-68V204.33c0-22.33,0-44.82,0-68H96V339.75c0,22.4-.29,44.81.1,67.79a267.15,267.15,0,0,0,28.62,0v-.07A267.13,267.13,0,0,1,96.23,407.47Z"/><path class="cls-1" d="M85.9,223.25v-.07c-2,4.94-2,4.94,1.12,6.66C83.91,228.13,83.9,228.12,85.9,223.25Z"/><polygon class="cls-1" points="82.05 213.79 82.01 213.79 75.09 237.88 80.51 238.38 80.53 238.35 75.14 237.85 82.05 213.79"/><path class="cls-1" d="M87,235.36c1.46.56,2.56,1.86,3.73,3l5.12-.62v0l-5.06.61C89.57,237.21,88.46,235.92,87,235.36Z"/><path class="cls-1" d="M102,374a6.22,6.22,0,0,1,.8-7.4,10.61,10.61,0,0,1,7.64-3,10.62,10.62,0,0,0-7.68,3,6.21,6.21,0,0,0-.8,7.4c1.13,2.24,2.58,3.85,5.61,3.5C104.56,377.87,103.09,376.22,102,374Z"/><path class="cls-1" d="M115,339.59c-3.56,3.09-5.07,3.07-8.4.15C109.93,342.67,111.45,342.69,115,339.59Z"/><path class="cls-1" d="M140.25,233.3c-.82,0-1.28.89-2.13,2.88C139,234.2,139.44,233.31,140.25,233.3Z"/><path class="cls-1" d="M119.2,335.39a6.88,6.88,0,0,1,.8,1.68A6.73,6.73,0,0,0,119.2,335.39Z"/><polygon class="cls-1" points="101.61 353.4 119.25 353.4 119.25 353.39 101.6 353.39 102.19 357.54 102.25 357.54 101.61 353.4"/><path class="cls-1" d="M129.07,58.36V238.18h.09V58.35Z"/><path class="cls-1" d="M102.36,343.1a14.41,14.41,0,0,1-.82-4.27A14.21,14.21,0,0,0,102.36,343.1Z"/><path class="cls-1" d="M106.3,226.47c-1.23-3.81-3.15-7.38-5.1-11.84h0c2,4.48,3.89,8.07,5.12,11.89,1.29,4,1.91,8.21,2.91,12.69l5.74,0h-5.73C108.21,234.68,107.59,230.47,106.3,226.47Z"/><polygon class="cls-1" points="105.2 110.66 128.77 60.2 105.19 110.66 105.2 110.66"/><polygon class="cls-1" points="113.42 257.78 115.91 261.64 115.97 261.63 113.49 257.78 113.42 257.78"/><path class="cls-1" d="M105.33,332.88l-.08,0-.09.05.09-.05Z"/><path class="cls-1" d="M119.2,335.39c-1.54-2.36-4.67-3.7-8-3.77C114.52,331.69,117.66,333,119.2,335.39Z"/><path class="cls-1" d="M114.69,235.76c.12-7.69,4.73-13.81,7.3-21.13h0C119.4,222,114.81,228.09,114.69,235.76Z"/><path class="cls-1" d="M141.26,228.65v0c-.61-.23-1.12-.32-1.13-.44,0-.38,0-.77,0-1.17v1.2C140.12,228.33,140.65,228.42,141.26,228.65Z"/><path class="cls-1" d="M108.3,337.45a6.65,6.65,0,0,0-1.7,2.29A6.69,6.69,0,0,1,108.3,337.45Z"/><path class="cls-1" d="M140.12,225.13v1.15c0-.39,0-.77,0-1.16Z"/><rect class="cls-1" x="132.31" y="213.38" width="16.38" height="0.03"/><path class="cls-2" d="M157.61,238.31V214h0V0H0V473.45a4.22,4.22,0,0,0,0,.45H157.63V238.31ZM49.36,58.29H77.14l22.62,50.12-5.17,2.69,0,0-.08,0L73,63.64l-.78.1V237.83c-7.78,1.29-15,.38-22.75.49v0h-.1Zm-.81,255.2,2-1.55,26.15-20.26,4.12,4.72h0l0,0-28.37,22-3.92-4.9h0ZM81,325,53,346.82l-4-4.38c7.72-7.11,16.12-12.87,24.35-19.53l.12-.1q1.77-1.44,3.53-2.94L81,325h0Zm.12-15L52.42,332.24h0l-.67-.8-3.38-4h0l28.59-22.22,4.18,4.77h0Zm14.72-72.16-5.12.62c-1.17-1.19-2.27-2.49-3.73-3a5.16,5.16,0,0,0-4.27.46l-2.17,2.53h0l0,0-5.42-.5L82,213.79h0v0h7l6.84,24h-.06Zm29,169.68h-.11v.07a267.15,267.15,0,0,1-28.62,0c-.39-23-.1-45.39-.1-67.79V136.29h28.76C126.24,140.15,126.47,401.66,124.85,407.47ZM105.2,110.66h0a20.55,20.55,0,0,1-2.78-.9A22.47,22.47,0,0,1,99.95,108l23.51-50.39,5.31,2.59ZM152,238.18H129.07V58.36h.09v0c7.46-.78,14.85-.33,22.85-.06Z"/><path class="cls-3" d="M113.45,377.53h0Z"/><path class="cls-3" d="M124.65,136.36l-28.55-.07c0,23.22,0,45.71,0,68v67.35q-.06,34,0,68c0,22.4-.29,44.79.1,67.79a267.13,267.13,0,0,0,28.51,0C126.34,400.25,126.11,140.21,124.65,136.36Zm-18.92,5.54,10.37-.57h0l.75,3.86-5.63,1.87.16,1.09,3.82,1.64c1.33,3.86-2.26,3.43-4,4.91l-1,4.45h-4.51Zm-2,27.68c.89-3.9,3.15-6.12,6.56-6.43a7.33,7.33,0,0,1,5.33,1.89,9.27,9.27,0,0,1,2.71,3.79,10.35,10.35,0,0,1,.1,7.37c-1.38,3.54-5,5.88-10,5.69C103.72,178.77,102.61,174.59,103.72,169.58ZM118,203.31h-3.88l-2.5-5.21H110.5l-2.17,5.63-3.71-.73V186h0v-.06c4.35-.68,8.32-1.35,11.67,1.46a4.36,4.36,0,0,1,1.42,4.81,24,24,0,0,1-.71,2.33l1,8.71h0Zm1.76,187.08a7.81,7.81,0,0,1-1.5,5.11h0l0,0c-4.07-.36-2.72-3.64-4-5.68-1.17.95-1.09,3.27-2.27,4.17a2.66,2.66,0,0,1-2.63.12l-1.85-4.44-.74.06-1.23,5.78h0v0H102V384.61h16.93a43,43,0,0,1,.82,5.67s0,.07,0,.11Zm-.19-16.58c-1,2.54-2.84,3.62-6.1,3.72h0l-.1-.41c-.49-1.94-.39-2.2,1.21-6.22-2.1-1.83-3.29-2.53-4.74-2.14a10,10,0,0,0-3.11,1.89l2.29,6.62a9.37,9.37,0,0,1-1.43.28c-3,.36-4.48-1.26-5.61-3.5a6.21,6.21,0,0,1,.8-7.4,10.62,10.62,0,0,1,7.68-3,10.39,10.39,0,0,1,7.73,2.8A6.8,6.8,0,0,1,119.57,373.81Zm.31-106.17v.08l-.41,3.83-5.4,2.37v1.26l5.33,2.46v3.77h0v0H102.93v0h0l-1.13-3.86,6.25-1.82a4.91,4.91,0,0,0-.19-1.16c-.83-2.79-4.08-1.45-5.8-3.24h0l.22-3.69h17.62Zm-.43,54.43v3l0,.86c-6.25-.09-11.36-3.06-16.46-4l0,0h0c-2-3-1.18-4.94,1.26-5.75,4.69-1.56,9.51-2.73,14.74-4.2v0h0l.13.71.72,3.65-8,2.77ZM101.93,299.9V289a23.55,23.55,0,0,1,4.31-.85c4.28-.47,8.63.1,13.29.52l0,11.11h0l-3.73-.31-1.25-6.05-2.11,4.93a6.48,6.48,0,0,1-.72.24c-3.25.9-3-2.52-4.56-4.9l-1.54,6.19h-3.61Zm17.66-38.66-3.61.41v0h-.06l-2.48-3.86h-10.9l-1.36-4.66,12.45-.89,2.25-3.74h.07l3.65.67Zm-18,92.15h17.72l.21,4.15H102.19Zm12-6.71a11.88,11.88,0,0,1-11.26-3.58,14.21,14.21,0,0,1-.82-4.27,6,6,0,0,1,3.62-5.87l.09-.05.08,0a12.77,12.77,0,0,1,5.85-1.26c3.34.07,6.47,1.41,8,3.77a6.73,6.73,0,0,1,.8,1.68C121.28,341.11,118.5,345.69,113.62,346.68ZM122,214.63c-2.57,7.32-7.18,13.44-7.3,21.13a19.74,19.74,0,0,0,.24,3.4l-5.74,0c-1-4.48-1.62-8.69-2.91-12.69-1.23-3.82-3.12-7.41-5.12-11.89h0l0,0h6.89l3.53,6,3.89-6H122l0,0Z"/><path class="cls-3" d="M96.1,136.29h0l28.55.07c1.47,3.85,1.7,263.89.09,271.11h.11c1.62-5.81,1.39-267.32-.08-271.18Z"/><path class="cls-4" d="M72.11,237.8V63.75l.88-.11h.1l21.48,47.43,5.09-2.65L77.14,58.29H49.45v180C57.22,238.19,64.39,239.08,72.11,237.8Z"/><polygon class="cls-4" points="94.57 111.06 94.59 111.1 99.76 108.41 77.14 58.29 99.66 108.41 94.57 111.06"/><path class="cls-4" d="M72.11,63.75V237.8c-7.72,1.28-14.89.39-22.65.49v0c7.8-.11,15,.8,22.75-.49V63.74l.78-.1h0Z"/><path class="cls-4" d="M129.16,58.35V238.18H152l-.13-179.89C143.91,58,136.59,57.59,129.16,58.35Zm14,177.55h0l-5,.27c.85-2,1.31-2.87,2.13-2.88.63,0,1.48.5,2.87,1.44Zm-3-9.62v-1.15h0v0l.81-.1a8.48,8.48,0,0,1,.83,2c.07.5-.31,1.07-.5,1.62h0v0c-.61-.23-1.14-.32-1.14-.44V227C140.12,226.77,140.11,226.53,140.12,226.28Zm8.57-12.87v18l-.39.17-4.84-15.46h-5.34l-5.22,17.23-.59.06v-20h16.38Z"/><path class="cls-4" d="M129.16,58.33v0c7.43-.77,14.75-.32,22.72-.06L152,238.18V58.27C144,58,136.62,57.55,129.16,58.33Z"/><path class="cls-4" d="M99.95,108a22.48,22.48,0,0,0,2.47,1.76,20.55,20.55,0,0,0,2.78.9L128.77,60.2l-5.31-2.59Z"/><path class="cls-4" d="M99.95,108a22.47,22.47,0,0,0,2.46,1.77,20.55,20.55,0,0,0,2.78.9h0a20.55,20.55,0,0,1-2.78-.9A22.48,22.48,0,0,1,99.95,108Z"/><path class="cls-4" d="M82,213.79l-6.91,24.06,5.4.5,2.19-2.53a5.12,5.12,0,0,1,4.27-.46c1.47.55,2.58,1.85,3.78,3l5.06-.61-6.83-24Zm3.84,9.39v.07l0,0L87,229.84C83.87,228.12,83.87,228.12,85.89,223.18Z"/><path class="cls-4" d="M82.73,235.82a5.16,5.16,0,0,1,4.27-.46A5.12,5.12,0,0,0,82.73,235.82Z"/><polygon class="cls-4" points="80.56 238.35 82.73 235.82 80.53 238.35 80.56 238.35"/><polygon class="cls-4" points="89.06 213.76 82.06 213.76 82.05 213.79 89.01 213.79 95.84 237.77 95.9 237.76 89.06 213.76"/><path class="cls-4" d="M73.48,322.82l-.12.1c-8.22,6.65-16.62,12.42-24.35,19.53l4,4.38L81,325l-4-5.11Q75.25,321.38,73.48,322.82Z"/><path class="cls-4" d="M73.48,322.82q1.77-1.44,3.53-2.94Q75.25,321.38,73.48,322.82Z"/><polygon class="cls-4" points="77.01 319.88 81.01 324.99 81.01 324.99 77.01 319.88"/><path class="cls-4" d="M49,342.44c7.73-7.1,16.14-12.88,24.35-19.53C65.13,329.57,56.72,335.33,49,342.44Z"/><polygon class="cls-4" points="80.81 296.41 76.71 291.71 50.55 311.94 48.55 313.49 52.46 318.4 80.81 296.41"/><polygon class="cls-4" points="80.83 296.43 80.81 296.41 52.46 318.4 80.83 296.43"/><polygon class="cls-4" points="48.55 313.49 48.55 313.49 50.55 311.94 48.55 313.49"/><polygon class="cls-4" points="48.36 327.4 51.74 331.43 52.41 332.23 81.12 309.94 76.95 305.18 48.36 327.4"/><polygon class="cls-4" points="52.41 332.23 52.41 332.23 51.74 331.43 52.41 332.23"/><polygon class="cls-4" points="76.95 305.17 48.36 327.39 48.36 327.4 76.95 305.18 81.12 309.94 81.13 309.94 76.95 305.17"/><path class="cls-4" d="M111.59,220.63l-3.53-6H101.2c2,4.46,3.87,8,5.1,11.84,1.29,4,1.91,8.21,2.91,12.69h5.73a19.71,19.71,0,0,1-.24-3.4c.12-7.68,4.71-13.79,7.29-21.13h-6.51Z"/><path class="cls-4" d="M114.94,239.16a19.74,19.74,0,0,1-.24-3.4A19.71,19.71,0,0,0,114.94,239.16Z"/><path class="cls-4" d="M115.49,214.58l-3.89,6-3.53-6h-6.89l0,0h6.86l3.53,6,3.89-6H122l0,0Z"/><path class="cls-4" d="M102,271.32c1.74,1.77,5,.45,5.8,3.25a4.92,4.92,0,0,1,.2,1.18l-6.25,1.82,1.12,3.84h16.46v-3.75L114,275.19v-1.26l5.4-2.37.46-3.84v-.08H102.27Z"/><path class="cls-4" d="M108,275.75a4.92,4.92,0,0,0-.2-1.18,4.91,4.91,0,0,1,.19,1.16l-6.25,1.82,1.13,3.86h0l-1.12-3.84Z"/><polygon class="cls-4" points="114.01 273.93 114.01 275.19 119.38 277.66 119.38 281.41 119.39 281.41 119.39 277.64 114.06 275.18 114.06 273.92 119.46 271.55 119.87 267.72 119.41 271.56 114.01 273.93"/><polygon class="cls-4" points="102.26 267.62 102.04 271.31 102.05 271.32 102.27 267.64 119.88 267.64 119.88 267.63 102.26 267.62"/><path class="cls-4" d="M117,194.54v0c.22-.69.52-1.48.71-2.31a4.43,4.43,0,0,0-1.43-4.75c-3.36-2.81-7.32-2.14-11.66-1.46v17l3.73.67,2.17-5.63h1.12l2.5,5.21H118l-1-8.67ZM112.12,192h-1.89v0h0l.39-1.18,1.58.42v0h0Z"/><path class="cls-4" d="M117,194.54a24,24,0,0,0,.71-2.33c-.2.83-.5,1.62-.71,2.31Z"/><polygon class="cls-4" points="104.62 186 104.62 203 104.63 186 104.62 186"/><polygon class="cls-4" points="111.64 198.04 110.52 198.04 108.35 203.67 104.62 203 108.33 203.73 110.5 198.1 111.62 198.1 114.12 203.31 118 203.31 117.99 203.25 114.14 203.25 111.64 198.04"/><path class="cls-4" d="M113.62,346.68c4.86-1,7.64-5.6,6.38-9.61a6.88,6.88,0,0,0-.8-1.68c-1.54-2.36-4.67-3.7-8-3.77a12.8,12.8,0,0,0-5.85,1.26l-.08,0-.09.05a6.07,6.07,0,0,0-3.62,5.87,14.41,14.41,0,0,0,.82,4.27,11.88,11.88,0,0,0,11.26,3.58Zm-5.31-9.23c1.9-1.55,4.34-.89,6.7,2.14-3.56,3.1-5.08,3.08-8.4.15A6.65,6.65,0,0,1,108.3,337.45Z"/><path class="cls-4" d="M105.16,333a6,6,0,0,0-3.62,5.87A6.07,6.07,0,0,1,105.16,333Z"/><path class="cls-4" d="M113.62,346.68a11.88,11.88,0,0,1-10.13-2.5,11.88,11.88,0,0,0,10.13,2.5c4.88-1,7.66-5.57,6.38-9.61C121.26,341.08,118.48,345.69,113.62,346.68Z"/><path class="cls-4" d="M105.33,332.88a12.8,12.8,0,0,1,5.85-1.26A12.77,12.77,0,0,0,105.33,332.88Z"/><path class="cls-4" d="M110.32,163.15c-3.41.31-5.67,2.53-6.56,6.43-1.14,5,0,9.19,4.69,12.31,4.95.19,8.57-2.15,10-5.69a10.37,10.37,0,0,0-.14-7.37,9.13,9.13,0,0,0-2.67-3.79A7.4,7.4,0,0,0,110.32,163.15Zm1.14,13.93c-2.67-1.82-3.49-3.93-2.49-6.1a7.92,7.92,0,0,1,2-2.57C114.38,171.47,114.51,173.94,111.46,177.08Z"/><path class="cls-4" d="M118.28,168.83a10.37,10.37,0,0,1,.14,7.37,10.35,10.35,0,0,0-.1-7.37,9.27,9.27,0,0,0-2.71-3.79A9.13,9.13,0,0,1,118.28,168.83Z"/><path class="cls-4" d="M119.53,373.81a6.8,6.8,0,0,0-1.39-7.41,10.37,10.37,0,0,0-7.69-2.8,10.61,10.61,0,0,0-7.64,3,6.22,6.22,0,0,0-.8,7.4c1.08,2.17,2.56,3.82,5.57,3.5a9.73,9.73,0,0,0,1.39-.28l-2.29-6.62a10,10,0,0,1,3.15-1.89c1.47-.42,2.65.29,4.78,2.14-1.63,4-1.73,4.27-1.25,6.22l.1.41C116.71,377.42,118.6,376.34,119.53,373.81Z"/><path class="cls-4" d="M110.45,363.6a10.37,10.37,0,0,1,7.69,2.8,6.8,6.8,0,0,1,1.39,7.41c-.93,2.53-2.81,3.61-6.06,3.72h0c3.26-.1,5.15-1.18,6.1-3.72a6.8,6.8,0,0,0-1.39-7.41A10.39,10.39,0,0,0,110.45,363.6Z"/><path class="cls-4" d="M109,377.27a9.73,9.73,0,0,1-1.39.28,9.37,9.37,0,0,0,1.43-.28l-2.29-6.62a10,10,0,0,1,3.11-1.89,10,10,0,0,0-3.15,1.89Z"/><path class="cls-4" d="M102,299.89h3.49l1.55-6.23,0,0v-.05c1.58,2.37,1.32,5.82,4.55,5a6.55,6.55,0,0,0,.68-.23l2.14-5v.06l0-.07,1.26,6.11,3.69.32v-11.1c-4.63-.43-9-1-13.21-.53A23.5,23.5,0,0,0,102,289Z"/><path class="cls-4" d="M105.5,299.89h0l1.54-6.19,0,0Z"/><path class="cls-4" d="M112.32,298.37a6.55,6.55,0,0,1-.68.23,6.48,6.48,0,0,0,.72-.24l2.11-4.93v-.06Z"/><path class="cls-4" d="M119.45,288.69v11.1h0l0-11.11c-4.66-.42-9-1-13.29-.52C110.49,287.71,114.82,288.26,119.45,288.69Z"/><path class="cls-4" d="M105.77,159.15h4.43l1-4.45c1.7-1.48,5.3-1.05,4-4.91l-3.82-1.64-.16-1.09,5.63-1.87-.75-3.86-10.33.57Z"/><path class="cls-4" d="M111.22,147.06l.16,1.09,3.82,1.64c1.3,3.86-2.3,3.43-4,4.91l-1,4.45h0l1-4.45c1.74-1.48,5.33-1,4-4.91l-3.82-1.64-.16-1.09,5.63-1.87-.75-3.86h0l.75,3.86Z"/><path class="cls-4" d="M111.79,319.14l8-2.77-.65-3.66L119,312c-5.23,1.47-10,2.64-14.73,4.2-2.43.81-3.24,2.72-1.28,5.72,5.1,1,10.21,3.91,16.46,4v-.83l-.07-3Z"/><path class="cls-4" d="M104.27,316.2c4.69-1.56,9.49-2.73,14.73-4.2v0c-5.23,1.47-10,2.64-14.74,4.2-2.44.81-3.26,2.75-1.26,5.75h0C101,318.92,101.83,317,104.27,316.2Z"/><polygon class="cls-4" points="119.13 312.71 119.79 316.37 111.79 319.14 119.38 322.07 119.45 325.09 119.45 322.07 111.86 319.13 119.86 316.36 119.13 312.71"/><polygon class="cls-4" points="119.52 249.15 115.93 248.49 113.69 252.22 101.24 253.12 102.59 257.77 113.42 257.77 113.42 257.78 113.49 257.78 115.97 261.63 119.52 261.23 119.52 249.15"/><polygon class="cls-4" points="115.93 248.49 119.52 249.15 119.52 261.23 115.97 261.63 115.98 261.65 119.59 261.24 119.59 249.15 115.94 248.48 115.93 248.49"/><polygon class="cls-4" points="102.59 257.77 102.6 257.78 113.42 257.78 113.42 257.77 102.59 257.77"/><path class="cls-4" d="M118.94,384.61H102v10.92h3.47l1.23-5.78h0v0l.77-.06,1.85,4.44a2.68,2.68,0,0,0,2.6-.1c1.17-.93,1.08-3.25,2.27-4.18h0l0,0c1.3,2-.06,5.32,4,5.69a7.8,7.8,0,0,0,1.52-5.1h0s0-.07,0-.11A43.42,43.42,0,0,0,118.94,384.61Z"/><path class="cls-4" d="M119.76,390.39h0Z"/><rect class="cls-4" x="102.01" y="395.53" width="3.47" height="0.02"/><path class="cls-4" d="M114.26,389.81l0,0c1.27,2-.07,5.32,4,5.68l0,0C114.2,395.13,115.55,391.81,114.26,389.81Z"/><path class="cls-4" d="M118.94,384.61a43.42,43.42,0,0,1,.82,5.67A43,43,0,0,0,118.94,384.61Z"/><path class="cls-4" d="M109.36,394.11l-1.85-4.44-.77.06v0l.74-.06,1.85,4.44A2.66,2.66,0,0,0,112,394,2.68,2.68,0,0,1,109.36,394.11Z"/><polygon class="cls-4" points="102.25 357.54 119.46 357.54 119.25 353.4 101.61 353.4 102.25 357.54"/><polygon class="cls-4" points="102.25 357.54 102.26 357.55 119.53 357.55 119.32 353.4 119.25 353.4 119.46 357.54 102.25 357.54"/><polygon class="cls-2" points="132.31 233.41 132.9 233.32 138.12 216.09 143.46 216.09 148.3 231.55 148.69 231.38 148.69 213.41 132.31 213.41 132.31 233.41"/><polygon class="cls-2" points="143.46 216.09 138.12 216.09 132.9 233.32 132.31 233.41 132.9 233.35 138.12 216.12 143.46 216.12 148.3 231.58 148.69 231.41 148.69 231.38 148.3 231.55 143.46 216.09"/><path class="cls-2" d="M138.13,236.18l5-.28v-1.16c-1.4-.93-2.24-1.45-2.87-1.44C139.44,233.31,139,234.2,138.13,236.18Z"/><path class="cls-2" d="M140.25,233.3c.63,0,1.48.51,2.87,1.44C141.73,233.8,140.89,233.29,140.25,233.3Z"/><polygon class="cls-2" points="143.13 235.91 143.13 235.9 138.13 236.18 143.13 235.91"/><path class="cls-2" d="M141.27,228.62c.18-.54.56-1.1.49-1.59a8.48,8.48,0,0,0-.81-2l-.81.13c0,.38,0,.77,0,1.16V227c0,.39,0,.78,0,1.17C140.15,228.3,140.66,228.39,141.27,228.62Z"/><path class="cls-2" d="M141.27,228.62h0c.19-.55.57-1.12.5-1.62a8.48,8.48,0,0,0-.83-2,8.48,8.48,0,0,1,.81,2C141.82,227.52,141.45,228.08,141.27,228.62Z"/><path class="cls-2" d="M140.12,227v-.73C140.11,226.53,140.12,226.77,140.12,227Z"/><path class="cls-2" d="M140.14,225.1v0l.81-.13Z"/><path class="cls-2" d="M85.9,223.25c-2,4.87-2,4.88,1.11,6.59l0,0Z"/><path class="cls-2" d="M85.9,223.25,87,229.82l0,0-1.09-6.64Z"/><polygon class="cls-3" points="112.18 191.23 110.62 190.81 110.23 191.97 112.11 191.97 112.18 191.23"/><polygon class="cls-3" points="112.18 191.23 112.19 191.21 110.61 190.79 110.22 191.97 110.23 191.97 110.62 190.81 112.18 191.23"/><path class="cls-3" d="M115,339.59c-2.36-3-4.8-3.68-6.7-2.14a6.69,6.69,0,0,0-1.7,2.29C109.94,342.66,111.45,342.68,115,339.59Z"/><path class="cls-3" d="M115,339.59c-2.36-3-4.8-3.69-6.7-2.14C110.2,335.91,112.64,336.59,115,339.59Z"/><path class="cls-3" d="M109,171c-1,2.16-.17,4.28,2.49,6.1,3-3.14,2.92-5.61-.45-8.67A8.05,8.05,0,0,0,109,171Z"/><path class="cls-3" d="M109,171c-1,2.16-.18,4.27,2.49,6.1C108.8,175.26,108,173.14,109,171Z"/></g></g></svg>