<svg xmlns="http://www.w3.org/2000/svg" viewBox="0 0 171.25 257.66"><defs><style>.cls-1{fill:none;}.cls-2{fill:#3a1b0e;}.cls-3{fill:#ee7c35;}</style></defs><title>Asset 2</title><g id="Layer_2" data-name="Layer 2"><g id="Layer_1-2" data-name="Layer 1"><path class="cls-1" d="M72.83,232.24c.89.84,1.76,1.27,2.74.87-1,.38-1.84-.06-2.72-.88-2.13-2-4.45-1.75-6.86-.88C68.42,230.49,70.72,230.24,72.83,232.24Z"/><path class="cls-1" d="M81.46,225.43a7.21,7.21,0,0,1,.58.51A7.05,7.05,0,0,0,81.46,225.43Z"/><path class="cls-1" d="M79.91,224.4l.25.13Z"/><path class="cls-1" d="M80.51,224.74c.23.14.47.28.68.44C81,225,80.74,224.89,80.51,224.74Z"/><path class="cls-1" d="M66,231.35c.64,5.32,3.93,8.21,9,8.1C69.91,239.54,66.64,236.68,66,231.35Z"/><polygon class="cls-1" points="57.61 238.4 57.62 238.35 50.7 238.35 43.93 214.09 50.67 238.4 57.61 238.4"/><polygon class="cls-1" points="53.76 227 50.71 214.13 50.69 214.13 53.74 227 53.76 227"/><path class="cls-1" d="M70.52,214.06l.48-.2Z"/><path class="cls-1" d="M74.26,219.64c2.09.08,4,1.92,6,1.83C78.3,221.54,76.35,219.71,74.26,219.64Z"/><polygon class="cls-1" points="64.4 214.23 64.39 214.23 61.23 225.51 64.4 214.23"/><path class="cls-1" d="M75.2,213.2a11.89,11.89,0,0,0-3,.29,7.87,7.87,0,0,0-1,.29,7.86,7.86,0,0,1,1.07-.29A11.91,11.91,0,0,1,75.2,213.2Z"/><path class="cls-1" d="M68.19,215.69l0,0Z"/><polygon class="cls-1" points="12.77 223.34 13.67 222.09 12.77 223.34 12.77 223.34"/><path class="cls-1" d="M69.87,214.39l.36-.19Z"/><polygon class="cls-1" points="8.06 230 6.96 230 6.95 230.05 8.04 230.05 12.93 238.89 20.3 238.11 20.29 238.08 12.95 238.86 8.06 230"/><polygon class="cls-1" points="94.87 230.37 99.42 238.6 99.45 238.6 94.9 230.36 94.87 230.37"/><rect class="cls-1" x="0.02" y="238.26" width="5.98" height="0.05"/><polygon class="cls-1" points="11.96 213.93 11.94 213.93 6.84 220.43 6.84 220.45 11.96 213.93"/><path class="cls-1" d="M34.45,239c5-1.19,8.14-5.87,8.67-12.76C42.58,233.06,39.4,237.77,34.45,239Z"/><polygon class="cls-1" points="98.86 214.18 98.82 214.18 94.03 220.06 94.04 220.1 98.86 214.18"/><path class="cls-1" d="M69.26,214.78l.23-.15Z"/><rect class="cls-1" x="86.85" y="214.23" width="0.04" height="24.29"/><path class="cls-1" d="M41.94,222.22q-.64-2-1.39-3.91l0-.07,0,.07Q41.3,220.25,41.94,222.22Z"/><path class="cls-1" d="M32.57,232.76a10.45,10.45,0,0,0,1.18-1.24,10.28,10.28,0,0,1-1.15,1.2c-2.83,0-3.61-2-3.89-4.22-.42-3.26-.81-6.65,3-9h0c-3.78,2.31-3.4,5.7-3,9C29,230.74,29.74,232.81,32.57,232.76Z"/><path class="cls-1" d="M68.71,215.21l.11-.1Z"/><path class="cls-1" d="M114.88,234.58c-.25-1.32-.49-2.63-.77-3.91C114.38,231.95,114.63,233.25,114.88,234.58Z"/><polygon class="cls-1" points="121.86 238.69 121.86 238.69 121.85 238.69 121.86 238.69"/><path class="cls-1" d="M118.17,221l2.17-4L118.17,221l-3.41-6.71H107.4l0,0h7.34Z"/><path class="cls-1" d="M124.65,223.47a62.5,62.5,0,0,0,3.91-9.19h0A62.17,62.17,0,0,1,124.65,223.47Z"/><path class="cls-1" d="M121.85,238.63a17.56,17.56,0,0,1-.41-3.4A17.53,17.53,0,0,0,121.85,238.63Z"/><path class="cls-2" d="M21.67,229a17.1,17.1,0,0,0,1.5,4.74,8.87,8.87,0,0,0,8.68,5.52,11,11,0,0,0,2.6-.31c5-1.19,8.13-5.9,8.67-12.76q-.54-2-1.18-4t-1.39-3.91l0-.07c-1.66-3.69-4.88-5.2-8.83-5.12a8.92,8.92,0,0,0-8.32,5.29A17.11,17.11,0,0,0,21.54,228Q21.59,228.52,21.67,229Zm10-9.47h0a7.71,7.71,0,0,1,2.06,12,10.45,10.45,0,0,1-1.18,1.24c-2.83,0-3.61-2-3.89-4.22C28.28,225.24,27.9,221.85,31.68,219.54Z"/><path class="cls-2" d="M24.78,216.19a8.92,8.92,0,0,1,2-1.68A8.92,8.92,0,0,0,24.78,216.19Z"/><path class="cls-2" d="M34.45,239a11,11,0,0,1-2.6.31A10.91,10.91,0,0,0,34.45,239Z"/><path class="cls-2" d="M40.52,218.24c-1.66-3.69-4.85-5.2-8.83-5.12C35.64,213,38.86,214.56,40.52,218.24Z"/><path class="cls-2" d="M22.1,230.94a17.09,17.09,0,0,1-.43-1.94A17.09,17.09,0,0,0,22.1,230.94Z"/><path class="cls-2" d="M26.73,214.51a8.91,8.91,0,0,1,3.63-1.32A8.91,8.91,0,0,0,26.73,214.51Z"/><path class="cls-2" d="M24.78,216.19a8.91,8.91,0,0,0-1.41,2.22,17.1,17.1,0,0,0-1.92,7.65,17.1,17.1,0,0,1,1.92-7.65A8.91,8.91,0,0,1,24.78,216.19Z"/><path class="cls-2" d="M21.45,226.06a17.14,17.14,0,0,0,.09,2A17.12,17.12,0,0,1,21.45,226.06Z"/><polygon class="cls-2" points="6.01 238.26 6.94 230.05 6.95 230.05 6.96 230 8.06 230 12.95 238.86 20.29 238.08 12.75 223.37 12.77 223.34 12.77 223.34 13.67 222.09 19.52 213.93 11.96 213.93 6.84 220.45 6.84 220.43 6.82 220.45 6 214 0.02 214 0.02 238.26 6.01 238.26"/><polygon class="cls-2" points="6.84 220.43 6.02 214 6 214 6.82 220.45 6.84 220.43"/><polygon class="cls-2" points="6.01 238.26 6.02 238.26 6.95 230.05 6.94 230.05 6.01 238.26"/><polygon class="cls-2" points="20.29 238.08 20.32 238.08 12.77 223.34 12.75 223.37 20.29 238.08"/><polygon class="cls-2" points="19.53 213.93 19.52 213.93 13.67 222.09 19.53 213.93"/><polygon class="cls-2" points="93.06 238.52 93.86 230.57 94.86 230.35 94.87 230.37 94.9 230.36 99.45 238.6 107.12 238.6 99.78 223.51 106.29 214.18 98.86 214.18 94.04 220.1 94.03 220.06 94 220.1 92.74 214.23 86.89 214.23 86.89 238.52 93.06 238.52"/><polygon class="cls-2" points="107.12 238.6 99.45 238.6 99.46 238.61 107.16 238.61 99.82 223.52 106.3 214.18 106.29 214.18 99.78 223.51 107.12 238.6"/><polygon class="cls-2" points="93.86 230.57 93.06 238.52 86.89 238.52 86.89 238.53 93.1 238.53 93.9 230.58 94.87 230.37 94.86 230.35 93.86 230.57"/><polygon class="cls-2" points="94.03 220.06 92.78 214.23 92.74 214.23 94 220.1 94.03 220.06"/><path class="cls-2" d="M66.1,222.74a7.85,7.85,0,0,0,.3,1.09c.92,2.81,3.27,4,5.78,5.09,1.71.72,3.36,1.6,5.28,2.53a4.64,4.64,0,0,1-1.89,1.66c-1,.39-1.86,0-2.74-.87-2.11-2-4.41-1.75-6.84-.89.65,5.33,3.92,8.19,9,8.1.29,0,.58,0,.89,0,5.14-.44,8.25-3.93,8-8.93A6.66,6.66,0,0,0,82,225.94a7.21,7.21,0,0,0-.58-.51c-.09-.08-.18-.17-.28-.24s-.45-.3-.68-.44l-.34-.22-.25-.13a15.52,15.52,0,0,0-2.11-.92c-1.81-.65-4.38-.56-4.82-3.64a3.34,3.34,0,0,1,1.28-.2c2.09.06,4,1.9,6,1.83a3.31,3.31,0,0,0,2.36-1.26c-.65-4.35-3.41-6.88-7.41-7a11.91,11.91,0,0,0-2.93.29,7.86,7.86,0,0,0-1.07.29l-.21.07-.48.2-.29.14-.36.19-.37.23-.23.15-.44.34-.11.1c-.17.14-.33.29-.49.45l0,0A7.84,7.84,0,0,0,66.1,222.74Z"/><path class="cls-2" d="M70.22,214.2l.29-.14Z"/><path class="cls-2" d="M69.49,214.62l.37-.23Z"/><path class="cls-2" d="M68.82,215.11l.44-.34Z"/><path class="cls-2" d="M80.17,224.53l.34.22Z"/><path class="cls-2" d="M75.85,239.41c-.3,0-.6,0-.89,0,.3,0,.6,0,.92,0,5.11-.44,8.23-3.93,8-8.93A6.64,6.64,0,0,0,82,225.94a6.66,6.66,0,0,1,1.81,4.54C84.1,235.48,81,239,75.85,239.41Z"/><path class="cls-2" d="M73,219.84c.44,3.08,3,3,4.82,3.64a15.52,15.52,0,0,1,2.11.92,15.52,15.52,0,0,0-2.08-.92c-1.82-.64-4.38-.56-4.82-3.64a3.34,3.34,0,0,1,1.25-.2A3.34,3.34,0,0,0,73,219.84Z"/><path class="cls-2" d="M71.13,213.8l-.13.05.21-.07Z"/><path class="cls-2" d="M82.61,220.22a3.31,3.31,0,0,1-2.36,1.26,3.3,3.3,0,0,0,2.39-1.26c-.65-4.36-3.43-6.89-7.44-7C79.2,213.34,82,215.87,82.61,220.22Z"/><path class="cls-2" d="M66.38,223.84c.92,2.82,3.27,4,5.78,5.09,1.71.72,3.36,1.6,5.28,2.53a4.72,4.72,0,0,1-1.87,1.65,4.64,4.64,0,0,0,1.89-1.66c-1.92-.93-3.57-1.81-5.28-2.53-2.51-1.09-4.86-2.28-5.78-5.09a7.85,7.85,0,0,1,1.79-8.14A7.84,7.84,0,0,0,66.38,223.84Z"/><path class="cls-2" d="M81.18,225.19c.1.07.18.16.28.24C81.37,225.35,81.28,225.26,81.18,225.19Z"/><path class="cls-2" d="M68.22,215.66c.16-.16.32-.31.49-.45Q68.45,215.42,68.22,215.66Z"/><polygon class="cls-2" points="57.62 238.35 61.23 225.51 64.39 214.23 57.65 214.23 54.49 227.05 53.77 227.05 53.76 227 53.74 227 50.69 214.13 43.93 214.09 50.7 238.35 57.62 238.35"/><polygon class="cls-2" points="57.64 238.35 61.23 225.51 57.62 238.35 57.64 238.35"/><polygon class="cls-2" points="50.68 214.09 43.93 214.09 50.69 214.13 50.68 214.09"/><polygon class="cls-2" points="54.49 227.05 57.65 214.23 64.39 214.23 64.4 214.18 57.62 214.18 54.46 227 53.76 227 53.77 227.05 54.49 227.05"/><path class="cls-2" d="M121.87,214.28l-1.53,2.79-2.17,4-3.41-6.71h-7.34c2.05,4.31,4.16,7.88,5.46,11.72a42.17,42.17,0,0,1,1.23,4.62c.28,1.28.52,2.59.77,3.91s.51,2.71.8,4.07l6.17,0h0v-.06a17.53,17.53,0,0,1-.41-3.4c-.09-4.31,1.46-8.05,3.21-11.76a62.17,62.17,0,0,0,3.9-9.19Z"/><path class="cls-2" d="M121.44,235.23c-.09-4.31,1.46-8,3.21-11.76C122.89,227.18,121.34,230.92,121.44,235.23Z"/><path class="cls-2" d="M121.86,238.69v0Z"/><path class="cls-2" d="M114.88,234.58c.25,1.36.51,2.73.8,4.11h6.17l-6.17,0C115.39,237.29,115.13,235.93,114.88,234.58Z"/><polygon class="cls-2" points="128.55 214.28 128.55 214.27 121.86 214.27 120.33 217.07 121.87 214.28 128.55 214.28"/><path class="cls-2" d="M107.42,214.33h0c2.07,4.34,4.14,7.78,5.48,11.76a42.67,42.67,0,0,1,1.23,4.58,42.17,42.17,0,0,0-1.23-4.62C111.58,222.21,109.47,218.64,107.42,214.33Z"/><path class="cls-3" d="M28.71,228.5c.28,2.22,1.06,4.27,3.89,4.22a10.28,10.28,0,0,0,1.15-1.2,7.72,7.72,0,0,0-2.06-12C27.9,221.85,28.29,225.24,28.71,228.5Z"/><path class="cls-3" d="M33.75,231.52a7.71,7.71,0,0,0-2.06-12A7.72,7.72,0,0,1,33.75,231.52Z"/><polygon class="cls-2" points="0 238.31 0.02 238.31 0.02 238.26 0.02 214 0 214 0 238.31"/><polygon class="cls-1" points="57.62 214.18 54.46 227 53.76 227 50.71 214.13 50.69 214.13 50.68 214.09 43.93 214.09 50.67 238.4 57.61 238.4 57.62 238.35 57.64 238.35 61.23 225.51 64.4 214.23 64.39 214.23 64.4 214.18 57.62 214.18"/><path class="cls-1" d="M82,225.94a7.05,7.05,0,0,0-.58-.51c-.09-.08-.18-.17-.28-.24s-.45-.3-.68-.44l-.34-.22-.25-.13a15.52,15.52,0,0,0-2.08-.92c-1.82-.64-4.38-.56-4.82-3.64a3.34,3.34,0,0,1,1.25-.2c2.09.08,4,1.92,6,1.83a3.3,3.3,0,0,0,2.39-1.26c-.65-4.36-3.43-6.89-7.44-7a11.89,11.89,0,0,0-3,.29,7.87,7.87,0,0,0-1,.29l-.07,0-.13.05-.48.2-.29.14-.36.19-.37.23-.23.15-.44.34-.11.1q-.26.22-.49.45l0,0a7.84,7.84,0,0,0-1.81,8.15c.92,2.82,3.27,4,5.78,5.09,1.71.72,3.36,1.6,5.28,2.53a4.72,4.72,0,0,1-1.87,1.65c-1,.38-1.84-.06-2.72-.88-2.13-2-4.45-1.75-6.86-.88.64,5.32,3.93,8.21,9,8.1.3,0,.6,0,.92,0,5.11-.44,8.23-3.93,8-8.93A6.64,6.64,0,0,0,82,225.94Z"/><path class="cls-1" d="M40.55,218.31l0-.07c-1.66-3.69-4.85-5.2-8.83-5.12a8.92,8.92,0,0,0-8.32,5.29A17.11,17.11,0,0,0,21.54,228q.05.49.13,1a17.1,17.1,0,0,0,1.5,4.74,8.87,8.87,0,0,0,8.68,5.52,10.91,10.91,0,0,0,2.6-.31c5-1.19,8.14-5.87,8.67-12.76q-.54-2-1.18-4T40.55,218.31Z"/><polygon class="cls-1" points="106.3 214.18 106.29 214.18 98.86 214.18 98.82 214.18 94.03 220.06 92.78 214.23 92.74 214.23 86.89 214.23 86.85 214.23 86.85 238.52 86.89 238.52 86.89 238.53 93.1 238.53 93.9 230.58 94.87 230.37 99.42 238.6 99.45 238.6 99.46 238.61 107.16 238.61 99.82 223.52 106.3 214.18"/><path class="cls-1" d="M128.55,214.27h-6.69l-1.52,2.8L118.17,221l-3.41-6.71H107.4l0,0h0c2.07,4.34,4.14,7.78,5.48,11.76a42.67,42.67,0,0,1,1.23,4.58c.27,1.28.52,2.59.77,3.91s.51,2.73.8,4.11h6.18v-.06a17.56,17.56,0,0,1-.41-3.4c-.09-4.31,1.46-8,3.21-11.76a62.5,62.5,0,0,0,3.91-9.19h0Z"/><path class="cls-3" d="M0,0V214H6l.82,6.43,5.1-6.5h7.59l-5.86,8.16-.9,1.25,7.55,14.74h0v0l-7.37.78L8,230.05H7L6,238.26H6v0H0v19.35H171.25V0ZM34.45,239a10.91,10.91,0,0,1-2.6.31,8.87,8.87,0,0,1-8.68-5.52,17.1,17.1,0,0,1-1.5-4.74q-.08-.49-.13-1a17.11,17.11,0,0,1,1.83-9.62,8.92,8.92,0,0,1,8.32-5.29c4-.08,7.17,1.44,8.83,5.13l0,.07q.75,1.94,1.39,3.91t1.18,4C42.59,233.1,39.41,237.78,34.45,239Zm30-24.73-3.17,11.28-3.59,12.84h0v0H50.67l-6.74-24.31h6.75v0h0l3,12.87h.7l3.16-12.82H64.4v.05Zm11.48,25.18c-.31,0-.62,0-.92,0-5,.11-8.33-2.78-9-8.1,2.41-.87,4.73-1.12,6.86.88.88.83,1.75,1.26,2.72.88a4.72,4.72,0,0,0,1.87-1.65c-1.92-.93-3.57-1.81-5.28-2.53-2.51-1.06-4.86-2.27-5.78-5.09a7.84,7.84,0,0,1,1.81-8.15l0,0q.23-.24.49-.45l.11-.1.44-.34.23-.15.37-.23.36-.19.29-.14.48-.2.13-.05.07,0a7.87,7.87,0,0,1,1-.29,11.89,11.89,0,0,1,3-.29c4,.13,6.79,2.66,7.44,7a3.3,3.3,0,0,1-2.39,1.26c-2,.09-3.9-1.75-6-1.83a3.34,3.34,0,0,0-1.25.2c.44,3.08,3,3,4.82,3.64a15.52,15.52,0,0,1,2.08.92l.25.13.34.22c.23.14.47.28.68.44s.18.16.28.24a7.05,7.05,0,0,1,.58.51,6.64,6.64,0,0,1,1.84,4.54C84.11,235.48,81,239,75.88,239.41Zm23.58-.8h0l-4.55-8.23-1,.21-.8,8H86.85V214.23h5.93L94,220.06l4.79-5.88h7.48l-6.48,9.34,7.34,15.09Zm25.19-15.14c-1.76,3.71-3.31,7.45-3.21,11.76a17.56,17.56,0,0,0,.41,3.4v.06h-6.18c-.29-1.38-.55-2.76-.8-4.11s-.5-2.63-.77-3.91a42.67,42.67,0,0,0-1.23-4.58c-1.34-4-3.41-7.42-5.48-11.76h0l0,0h7.36l3.41,6.71,2.17-3.93,1.52-2.8h6.7A62.5,62.5,0,0,1,124.65,223.47Z"/></g></g></svg>