<svg xmlns="http://www.w3.org/2000/svg" viewBox="0 0 126.46 230.73"><defs><style>.cls-1{fill:#eb3e3e;}.cls-2{fill:#181616;}.cls-3{fill:none;}</style></defs><title>Asset 9</title><g id="Layer_2" data-name="Layer 2"><g id="Layer_1-2" data-name="Layer 1"><path class="cls-1" d="M56.88,81.6c18.33.21,32.78,8.23,42.73,23.26C107,116,109.5,129,106,142.1c-5.12,19.31-17.66,31.72-37.22,37.08-12.89,3.53-24.71,1.1-36-5.06-16.59-9-23.71-23.78-24.88-42C7.1,119.64,11.62,109,19.15,99.54c5.33-6.72,11.75-12.21,20.08-14.93C44.93,82.75,50.77,81.39,56.88,81.6ZM96.63,131C97,108.35,79.08,89.54,54.19,90.19c-22.54.59-38.37,21.73-38,39.13.51,25.3,17.72,41.55,40.55,41.32S97.48,151,96.63,131Z"/><path class="cls-2" d="M95.93,57.81c-3.77-2.48-5.19-4.67-4.23-6.95,1.39-3.27,4.45-3.71,7.48-3.88a47.48,47.48,0,0,1,5.51.32c1.37,1.32,1.41,2.72.33,4.29-4.72-3-4.72-3-7.9-.39,1.49.72,2.73,1.34,4,1.91.6.27,1.26.42,1.88.66,2.66,1,4.43,3.32,4.29,5.47-.13,1.85-3.87,5.78-5.88,5.4-6.24-1.2-12.45.17-18.66-.25-.55,0-1.06-.64-1.59-1q.2-.25-.12-.48c.59-1.29,1.69-2.58,1.67-3.86-.06-3.75-.56-7.49-.9-11.45H90V61.17c2.31.72,2.24-3.86,4.77-1.81.32.75.45,1.78,1,2.16a3.78,3.78,0,0,0,2.68.51c.56-.13,1.41-1.34,1.26-1.75a4.77,4.77,0,0,0-1.87-2A6,6,0,0,0,95.93,57.81Z"/><path class="cls-2" d="M67.05,64.68l-3.66.13L62.21,62.6c2.26-4.07.76-8.24.27-12.37a24.09,24.09,0,0,0-.78-2.87c4.87-.82,9.42-1,13.79.22,3.71,1.06,4.45,4.87,2.07,8.24a15.77,15.77,0,0,0-.83,1.6l4,5.43-2.48,1.56-4.34-.06L70.84,59v5.32l-3.16.35A.39.39,0,0,0,67.05,64.68Zm4.41-9.85c.86-3.07.86-3.07-.52-5.19C68.77,51.33,69.34,52.84,71.46,54.83Z"/><path class="cls-2" d="M32.76,57.8l.85,6.35A10.29,10.29,0,0,1,25,64.2c2.14-5.49.58-10.69-.13-16.54,3.22,0,6.35-.19,9.43.07A10.41,10.41,0,0,1,39.4,49.4a6,6,0,0,1,2.28,4c.1,2-1.56,3.22-3.49,3.66C36.76,57.41,35.27,57.48,32.76,57.8Zm.41-7.57c-1.08,1.47-1.36,2.72-.25,4.24C35,52.77,35,52.77,33.18,50.24Z"/><path class="cls-2" d="M61.53,64.28l-7.64,1.28-1.38-4.13a2.73,2.73,0,0,0-4.13.76C47,65.5,47,65.5,43.11,64.61L49,48.29c4.41-1.15,5.28-.95,7,2.8,1.67,3.56,3,7.29,4.42,11Zm-10-7.71-1.2-.71c-.2.38-.59.79-.55,1.15s.58.52.89.77Z"/><path class="cls-1" d="M57.16,96.88c18.68-.59,34.46,15.85,33.08,36.77-1.12,17-17,30.95-34.76,30.48-20.67-.54-33.16-15.84-33-35.76C22.6,111.87,37.24,95.71,57.16,96.88Z"/><rect class="cls-3" width="126.46" height="230.73"/></g></g></svg>