<svg xmlns="http://www.w3.org/2000/svg" viewBox="0 0 397.7 826.63"><defs><style>.cls-1{fill:#eb3e3e;}.cls-2{fill:#181616;}.cls-3{fill:none;}</style></defs><title>Asset 11</title><g id="Layer_2" data-name="Layer 2"><g id="Layer_1-2" data-name="Layer 1"><path class="cls-1" d="M275.45,554.53c.07,1.27.16,2.07.16,2.87,0,6.8,0,13.6,0,21.05-4.15,0-7.92,0-11.68,0-18,.09-36,.1-53.94.32-14.63.17-29.27.59-43.9.91-7.31.16-14.61.36-21.92.48-1.6,0-3.2-.21-5-.33V556C184.64,555.64,229.92,554,275.45,554.53Z"/><path class="cls-1" d="M147.63,826.63V802.78c1.16-.07,2.43-.2,3.71-.22q26-.46,51.92-.89,37.69-.57,75.39-1.06a18.48,18.48,0,0,1,1.89.21c1.64,7.75,1.37,15.54.57,23.61Z"/><path class="cls-1" d="M125.89,351.2V327.5c1.54-.11,3.12-.3,4.69-.31,10.49-.08,21-.06,31.47-.18,10-.12,20-.35,29.93-.55,16.3-.33,32.6-.71,48.9-1,6.76-.11,13.53,0,20.7,0v24Z"/><path class="cls-2" d="M343.08,801.16c-2.4-.52-4.1-2.57-6.69-.91-1.34.86-3-.52-3.34-2.08a37.14,37.14,0,0,1-1-7.29c-.15-5.16-.06-5.1-4.94-6.16-5.81-1.26-9.34-3.7-8.93-11.42.27-5-.63-10.2-1.58-15.21-2.24-11.89,4.95-20.93,15.32-24a42.54,42.54,0,0,1,25.07.12c8.27,2.57,13.84,11.32,12.35,18.67-.65,3.23-.68,6.59-1.38,9.81a8.3,8.3,0,0,0,1.12,6.55c3.53,6,2.4,9.36-3.78,12.79-1.45.81-3,1.43-4.44,2.26-3,1.71-3.77,3.58-3.2,7,1,6.08-.25,7.5-6.78,7.42C347.92,798.73,344.83,798,343.08,801.16ZM323,775.85c3.12,3.3,2.75,2.48,9.79,2.61,3,.05,5.11-1,6.14-4a32.8,32.8,0,0,1,1.63-3.07c1.31-2.79,1.07-3.54-1.64-5.27a19.55,19.55,0,0,0-2.63-1.42c-4.57-2-7-1.23-9.44,3.22C325.39,770.56,324.2,773.29,323,775.85ZM356.5,764c-4.94.07-8,4-6,7.46a29.17,29.17,0,0,0,4.77,5.72,3.77,3.77,0,0,0,2.69.72c6.76-.53,8.41-3.65,5.07-9.49C361.49,765.76,359.86,763.19,356.5,764Zm-15.31,24.21c.33.25.45.4.58.43q1.45.28,2.9.52c2.76.45,3.72-.57,2.85-3.21-.61-1.85-1.45-3.62-2.27-5.63l-4.06,1.61Z"/><path class="cls-2" d="M325.85,327.14l-2.61,2.8c-2.3-1-4.45-1.85-7.06-1.06-1.73.52-3.19-.69-3.41-2.73-.29-2.64-.57-5.28-.83-7.92-.33-3.46-.33-3.4-3.7-4a28.81,28.81,0,0,1-5.23-1.46c-3.28-1.28-5.29-3.91-5-7.32.7-7.21-.74-14.13-1.76-21.16-1-6.58,1.61-11.76,6.76-16.15,10.25-8.72,29.39-8.16,38.12-2.32,6.46,4.32,8.67,10.2,8.11,17.49-.25,3.28-1.17,6.52-1.26,9.8a14.36,14.36,0,0,0,1.4,6.1c2.22,4.89,1.09,9-3.67,11.66-1.59.9-3.32,1.55-4.9,2.46-3.68,2.11-4.08,3.17-3.34,7.3.31,1.72,1.11,3.9.41,5.15-1.24,2.2-4,2-6.33,1.88C329.75,327.59,327.94,327.33,325.85,327.14ZM321,296.26c-1.69-.9-3.1-1.74-4.59-2.44-3.74-1.76-5.91-1.48-8.28,1.79-2.18,3-3.81,6.41-6,10.2,2,.8,3.37,1.78,4.67,1.74,3.11-.08,6.89.34,9.14-1.24A12.45,12.45,0,0,0,321,296.26Zm15.33-3.09c-3.23-.2-3.65.37-5.53,2.86s-.7,4.27.62,6.19c.65.95,1.44,1.81,2.18,2.69,2.4,2.86,8.52,2.46,10.54-.71a3.91,3.91,0,0,0,.69-1.8C344.94,298.52,340.21,293.42,336.28,293.18Zm-15.7,24a34.73,34.73,0,0,0,4.44,1.09,2.22,2.22,0,0,0,2.41-3.15c-.77-2.21-1.75-4.34-2.65-6.54C320.26,311.15,320.26,311.15,320.58,317.14Z"/><path class="cls-2" d="M333.79,555.84l-2.27,3.05c-2.7-.77-4.41-2.49-7-1.24-1.74.84-3.26-.54-3.57-2.44a56.05,56.05,0,0,1-.5-6.45c-.21-4.8-.59-5.12-5.22-6.05a15.24,15.24,0,0,1-6-2.25c-1.45-1.07-2.29-3.06-3.19-4.75a4.15,4.15,0,0,1-.14-2.46c1.18-6.7-.74-13.17-1.42-19.73-.72-7,1.19-12.64,7-17,9-6.82,19-7.29,29.44-5.22,5.91,1.17,11,3.75,14.06,9.29A17.18,17.18,0,0,1,357.29,512a82.34,82.34,0,0,0-1.36,9.82,12.57,12.57,0,0,0,1.18,5.64c2.55,5.53,1.48,9.32-3.87,12.35-1.45.82-3,1.41-4.43,2.28-3.25,2-3.71,3.19-3,7,1.1,6.16-.63,8-7.06,7.46C337.22,556.42,335.75,556.13,333.79,555.84Zm-23-21.12c3.86,2.84,7.82,1.24,11.64,1.16,3.39-.07,3.5-3.08,4.69-5,3.13-5.14,2.82-6-2.74-8.26a7.56,7.56,0,0,0-3.29-.89,6.76,6.76,0,0,0-4,1.39A24.87,24.87,0,0,0,310.75,534.72ZM343.58,522c-1.65-.16-3.44-.07-4.46,1.9s-2.16,4.08-.32,6.32c.94,1.14,1.65,2.47,2.58,3.62,2.14,2.65,8.23,2.52,10.34-.24a4.34,4.34,0,0,0,.89-2.27C352.83,526.75,348.38,522.08,343.58,522ZM328.51,546.2c1.53.26,2.65.48,3.78.65,3.06.46,4.09-.7,3-3.41-.77-1.92-1.62-3.8-2.54-6l-4.24,2.63Z"/><path class="cls-2" d="M297.4,807.32c3.46,1.51,6.44,2.92,9.51,4.08a5.79,5.79,0,0,0,3.4.14c3-.85,6-2.07,9-2.93,2.84-.81,5.75-1.36,9.79-2.29-1.87-.92-2.71-1.62-3.64-1.74-5.58-.74-11.18-1.42-16.78-1.94a4.77,4.77,0,0,0-3.12,1c-2.27,1.85-4.76,2.14-7.64,1.79-1.1-2.39-2.67-4.55-.65-7.35a13.49,13.49,0,0,1,8.59-5.47,2.42,2.42,0,0,1,1.83.52c3.22,2.88,7.33,2.79,11.2,3.63a47.74,47.74,0,0,1,8.45,2.64c5.6,2.36,11.59,3,17.47,3.33a23,23,0,0,0,11-2.73c5.43-2.76,11.29-3.78,17-5.59.95-.3,1.92-.53,2.88-.82,3.88-1.15,4.24-1.45,4.4-5.44.09-2.2.49-3.82,2.85-4.63,3.95-1.35,6.09-.27,6.85,3.83a12.33,12.33,0,0,1,0,2.53c1.92.53,3.44,1,5,1.37a3.77,3.77,0,0,1,3,4.07c0,2.2-1,4-3.21,4.51a45.7,45.7,0,0,1-8.32,1.12c-7.12.27-14.26.31-21.19,2.19a8.33,8.33,0,0,0-3.54,2.42c4.46,1.59,8.24,4.35,13.09,4.27,2.26,0,4.53,1,6.82,1.41,2.54.5,4.91.63,6.43-2.23.9-1.7,2.41-2.86,4.52-1.77,2.52,1.31,3.67,3.92,2.39,6.16a16.35,16.35,0,0,1-3.88,4.28c-1.76,1.45-4,2.31-5.65,3.88-3.27,3.22-6.41,1.38-9.71.34-3-.93-3.65-3.06-3.49-5.8,0-.3-.21-.61-.44-1.2a106.47,106.47,0,0,0-24.11-4.9,6.24,6.24,0,0,0-2.47.12c-9.13,3-18.92,3.91-27.45,8.75a41,41,0,0,0-3.9,2.87,35.59,35.59,0,0,1-4.81,3.45c-3.05,1.53-5.29.75-6.12-2.54a5.15,5.15,0,0,0-3.8-4c-2.33-.83-2.44-3-2.78-4.91C295.32,809.67,295.37,809.66,297.4,807.32Z"/><path class="cls-2" d="M285,564.69c3.31,1.5,6.28,2.92,9.32,4.19a4.92,4.92,0,0,0,2.84.4c5.64-1.37,11.25-2.85,16.85-4.37.53-.14.94-.72,1.93-1.53-4.24-1.61-8.16-1.72-12-2.36-1.79-.3-3.67-.2-5.43-.61a6.46,6.46,0,0,0-6,1.26c-1.56,1.19-3.92,1.33-5.94,1.95-2-2.87-2.88-5.32-.87-8.11a11.15,11.15,0,0,1,8.71-5.07,2.16,2.16,0,0,1,1.39.45c4.07,3.46,9.18,3.57,14.06,4.44a7.24,7.24,0,0,1,2.43.47c5.45,3.37,11.79,3.08,17.73,4.43a5.52,5.52,0,0,0,2.45.28c4.44-1.19,8.84-2.49,13.25-3.8,5.73-1.7,11.43-3.48,17.17-5.15,4.76-1.38,5-1.32,5.08-6.28.08-3.35,2-4.31,4.74-4.6,2.37-.26,4.31,1.51,4.76,4.09.19,1.11.23,2.25.34,3.29a52.53,52.53,0,0,1,5.36,1.44,3.88,3.88,0,0,1,2.66,4.29c-.15,2.15-1.15,3.58-3.17,3.89a69.44,69.44,0,0,1-8.86.79c-7.31.18-14.59.49-21.6,2.81a18.32,18.32,0,0,0-2.6,1.34c2.66,3.14,8,4.64,23.49,6.75.76-.85,1.64-1.81,2.49-2.8,1.24-1.44,2.48-2.82,4.6-1.41,2.37,1.58,3.47,3.81,2.33,5.89a15.87,15.87,0,0,1-3.78,4.42c-1.74,1.45-4.05,2.26-5.67,3.81-3.65,3.51-7.15,1.16-10.68.09-3.09-.94-2.93-3.61-2.76-6.62-5.93-1.38-11.9-2.65-17.79-4.17a24.28,24.28,0,0,0-15.11.77c-7.15,2.68-14.47,4.88-21.66,7.46-1.47.53-2.7,1.79-4,2.76a30.48,30.48,0,0,1-3.83,3c-3.85,2-5.55,1.23-7.32-2.7a10.38,10.38,0,0,0-2.31-2.93c-1.12-1.1-3.29-1.92-3.45-3.08C283.84,570.89,282.31,567.62,285,564.69Z"/><path class="cls-2" d="M369.59,319a52.79,52.79,0,0,1,6.15,1.88c1.87.84,2.4,2.54,2.2,4.59a3.45,3.45,0,0,1-3.07,3.41,47.54,47.54,0,0,1-8.38.8,74.1,74.1,0,0,0-22.12,2.93c-1.2.34-2.26,1.18-4.32,2.3,4.34,1.52,7.71,3,11.24,3.85s7.21.81,10.75,1.53c2.47.51,4.14,0,5.5-2.11,1.11-1.73,2.44-3.4,4.83-1.84,2.77,1.8,3.44,4.06,2.09,6.73a3.44,3.44,0,0,1-.47.87c-3.58,3.69-8.54,5.32-12.51,8.42-2.81-.87-5.85-1.34-8.34-2.77-1.13-.65-1.19-3.18-1.92-5.43-8-1.89-16.32-4.82-25.15-5.47a6.36,6.36,0,0,0-2.44.32c-9,3-17.93,6.07-26.85,9.23-1.29.46-2.33,1.62-3.47,2.47a30.39,30.39,0,0,1-3.89,2.92c-4.11,2.14-5.58,1.43-7.43-3a4.33,4.33,0,0,0-2.13-2.39c-3.44-1.06-4.05-3.57-4-6.62.05-1.94-.61-4.06,1.33-5.49,2.58,1.12,5.2,2.08,7.67,3.37s4.63,1.09,7.17.36c4.6-1.33,9.33-2.23,14-3.36a19.85,19.85,0,0,0,2.62-1.1c-2.52-2.29-5.49-1.95-8.06-2.51a86.62,86.62,0,0,0-11.32-1.48,8.54,8.54,0,0,0-3.66.81c-2.2.87-4.33,1.93-6.55,2.94-2-3-3.29-5.36-1.36-8.26a11.84,11.84,0,0,1,8.49-5.51c.53-.07,1.18.48,1.74.8.72.42,1.34,1.16,2.09,1.32,8.56,1.81,16.63,5.44,25.3,6.87a8.22,8.22,0,0,1,1.48.18c6.19,2.29,12.2,0,18.06-1.21s11.58-3.81,17.35-5.79c.79-.27,1.56-.56,2.36-.81,5-1.57,5-1.56,5.37-6.65.21-2.67,1.56-4,4.44-4.35a4.28,4.28,0,0,1,4.8,3.4A27.28,27.28,0,0,1,369.59,319Z"/><path class="cls-2" d="M129.63,379.95a23,23,0,0,1,6.22-10.2c.77-.71,2.52-.5,3.81-.48q27.44.41,54.88.89c1,0,2,.05,3,0,2.74,0,5.32-.39,6.44-3.78l2.45,1.65c-4.09,10.19-11.23,14.79-22.2,12.25l-13.12,22.12c1,1.22,1.65,2.14,2.4,3,1.19,1.34,2.22,3.23,3.71,3.76,1.1.39,2.81-1.1,4.29-1.63a6.5,6.5,0,0,1,1.85-.12c.68,4.46-1.55,7.89-7.34,11.34-.41-.29-1.31-.6-1.36-1-.62-5.65-5.07-8.81-8.36-12.59-7.31-8.4-15.06-16.41-22.46-24.73-2.53-2.85-5.3-2.18-8.19-1.37a47.86,47.86,0,0,0-4.94,2Zm38.72,19.89,11.84-19.75a203.69,203.69,0,0,0-30.25-.44Z"/><path class="cls-2" d="M137.86,210.62c1-4.93,1.16-5.11,5.05-5.38,7.78-.53,15.57-.95,23.34-1.52a48,48,0,0,0,5.81-1.18c-1,3.72-3.15,6-6.72,6.4a4.32,4.32,0,0,0-4,3c-1.11,2.68-2.63,5.18-3.78,7.4,1.57,3,3.56,2.21,5.74,1.56-.19,2.92-1.17,4.92-3.36,5.9a63.36,63.36,0,0,0-4.14-5c-3.65-3.63-7.46-7.09-11.14-10.68-1.33-1.3-2.64-1.9-4.44-1A11.81,11.81,0,0,1,137.86,210.62Zm9.42-.83c3.1,3.35,5.31,6.24,9.18,7.94l3.57-8.51Z"/><path class="cls-2" d="M177.33,131.69c.71-4.16,1.16-4.7,4.54-4.94,7.22-.53,14.44-1,21.66-1.54,2.34-.18,4.67-.58,7.31-.91-1,3.15-3,5.38-6.38,5.73a5,5,0,0,0-4.68,3.71c-.63,1.7-1.55,3.29-2.34,4.93-.69,1.44-.86,2.71.41,4.08s2.32.46,3.5,0c.19-.07.55.29,1.31.73l-3.12,4.72c-4.61-4.65-9-9.09-13.39-13.47C182.2,130.82,182.17,130.85,177.33,131.69Zm17.19,7.83c2-2.74,3.65-5.39,4-9.15l-11.36.71-.33,1Z"/><path class="cls-2" d="M215.58,53.1l2.49-4.94c10.33-1.32,20.59-.77,30.79-2.81-1.08,5.07-4.95,6.12-9.35,6.45-1.1,2.16-2.28,4.16-3.17,6.29-1.87,4.47-1,5.76,4.37,6.21l-1.85,5.34A28.14,28.14,0,0,1,236,67.45c-4.29-4.37-8.53-8.79-12.78-13.19C221.13,52.08,220.91,52,215.58,53.1Zm22-1.61c-4.83.27-8.56-.14-12.36,1.41,2.77,2.56,4.34,6.07,8.41,7Z"/><path class="cls-2" d="M189.63,687.48h3.87l-3,4.49c-4.24-5-8-9.5-12-13.9-2.71-3-2.82-2.93-6.74-2.1,1.43-4.33,1.43-4.39,5.55-4.34,5.49.07,11,.29,16.45.36,2.56,0,5.13-.14,8-.23a6.38,6.38,0,0,1-4.91,4.57C191.34,677.49,189.19,680.76,189.63,687.48ZM180,675.92l6.75,8.07c1.58-2.95,3.63-4.87,4.09-8.07Z"/><path class="cls-2" d="M139.89,728.24l2.17-3.78c9.58-.32,18.93,1.27,28.44-.29a5.7,5.7,0,0,1-5.73,5c-2.94.11-4.43,1.48-5.47,4.05a37.49,37.49,0,0,1-3,5l5.3,2.6c.09,1.75-.38,3.31-2.34,3.44-4.23-4.54-8.16-9-12.32-13.15C144,728.15,143.84,728.28,139.89,728.24Zm7.43.78,8.6,6.74,4-6.74Z"/><path class="cls-2" d="M231.66,619.26c-.48,2.65-2.32,3.91-5.07,4.35a35.07,35.07,0,0,0-4.46,1.33c-2.47-3.87-6.86-1.63-11.33-2.22,1,1.37,1.61,2.28,2.3,3.1,1.29,1.52,2.54,4.13,4,4.25,3.06.26,1.31,3,2.72,3.76a34,34,0,0,0,4.16,1.45L221.09,639c-3.32-4.09-6.34-7.91-9.48-11.64-2.32-2.75-4.59-5.77-9-4.07.56-3.71,2.68-4.66,5.7-4.52q7,.33,14,.48C225.36,619.32,228.48,619.26,231.66,619.26Z"/><path class="cls-2" d="M137.3,252.67A18,18,0,0,1,134,253c-3.28-.26-5-2.6-4.28-5.78a13.14,13.14,0,0,1,5.42-7.84c1.87,1.21,3.32,3.18,6.26,2.75,2.65-.38,3.76,1.56,4.16,4.4.45,3.17-1.48,5.55-2.48,8.2-.28.74-2,1.43-2.94,1.29s-1.38-1.49-2.07-2.3c4.06-2.51,4.85-4.27,3.51-8.41C139.22,247.37,137.54,249.57,137.3,252.67Zm-3.1-3.6c3.19-4.65,3.19-4.65,1.75-7.07C134,244,132.35,245.72,134.2,249.07Z"/><path class="cls-2" d="M150.82,417.78l-2.13,2.44-7.15-4.66,4.5,8.75h-7.11c0,2.81,2.73,2.8,4,4.61l-1.37,1.77L129.65,423l1.66-2.67,9.48.89-3.88-8.66,1.47-2.59Z"/><path class="cls-2" d="M180.81,178.28l-1.21,1.8-12.53-6.27.85-3.09h8.91c.22-4.11-5.88-5.69-3.25-10.83l12.79,6.36c-1.75,2.38-1.75,2.38-8.63-.47l5.45,7.63-7.25.37C176.3,176.73,179.53,176.37,180.81,178.28Z"/><path class="cls-2" d="M164.36,445.09l-12.72-7.87c1.62-2.35,3.14-4.68,4.77-6.92,1.38-1.9,2.88-3.81,5.67-3.17,1.65.37,3,2.34,3.81,5.37.92,0,1.9.08,2.88.16.8.06,1.59.18,2.58.29-.3,1.72-1.05,2.55-2.56,2.69s-3,.25-4.44.43c-1.71.2-2.67,1.17-2.79,3.21l3.93,3.12Zm-8.16-9c1.63,1.84,2.72,1.17,3.49-.13,1.06-1.8,3.32-3.46,1.16-6.14C158,431.13,157.19,433.61,156.19,436.1Z"/><path class="cls-2" d="M218.62,88.76l5.11-.37c.07,1.73-.29,2.86-2,3.11a20.31,20.31,0,0,0-3.9.61A4.44,4.44,0,0,0,215.43,94c-.63,1.42.32,2.46,1.69,3.07.74.33,1.45.74,2.39,1.22-.6,1.54-1,2.9-3.08,1.79-3.49-1.86-7-3.64-10.85-5.62,1.14-2.3,2.36-4.92,3.73-7.44,1.05-1.93,2.4-3.67,5-3.45s3.09,2.15,3.69,4.09A6.38,6.38,0,0,0,218.62,88.76Zm-6.87,5.48c.54-.78,1.26-1.37,1.39-2.07.32-1.79,3-3.23,1.06-5.3-.94-1-2.47.6-4,4C209.55,92.37,209.6,93.4,211.76,94.24Z"/><path class="cls-2" d="M113.62,410.15c1.54-2,2.75-3.74,4.11-5.34,2.11-2.48,3.79-2.83,6-1.46a4.89,4.89,0,0,1,1.3,6.6c-1.9,2.53-3.32,5.69-6.82,6.94l-1.41-2.18a30.55,30.55,0,0,0,4.22-3.81c1-1.27,2.48-2.93,0-5-1.42,1.65-2.71,3.28-4.13,4.79-2.15,2.26-3.71,2.54-5.61,1.17s-2.57-3.19-1.11-5.66a37.8,37.8,0,0,1,5.29-6.39c.27-.28,1.45.29,2,.44-1.92,2.85-3.64,5.33-5.23,7.9C112.14,408.35,112.91,409.12,113.62,410.15Z"/><path class="cls-1" d="M109.38,536.25l-.91-1.85a7.92,7.92,0,0,1,1.27.67C109.82,535.13,109.59,535.6,109.38,536.25Z"/><rect class="cls-3" width="397.7" height="826.63"/></g></g></svg>